<?xml version="1.0" encoding="UTF-8" standalone="no"?>
<!-- Created with Inkscape (http://www.inkscape.org/) -->

<svg
   width="26.792761mm"
   height="26.653728mm"
   viewBox="0 0 26.792761 26.653728"
   version="1.1"
   id="svg1506"
   inkscape:version="1.2.2 (b0a8486541, 2022-12-01)"
   sodipodi:docname="favicon.svg"
   inkscape:export-filename="favicon.png"
   inkscape:export-xdpi="30.336554"
   inkscape:export-ydpi="30.336554"
   xmlns:inkscape="http://www.inkscape.org/namespaces/inkscape"
   xmlns:sodipodi="http://sodipodi.sourceforge.net/DTD/sodipodi-0.dtd"
   xmlns="http://www.w3.org/2000/svg"
   xmlns:svg="http://www.w3.org/2000/svg">
  <sodipodi:namedview
     id="namedview1508"
     pagecolor="#505050"
     bordercolor="#eeeeee"
     borderopacity="1"
     inkscape:showpageshadow="0"
     inkscape:pageopacity="0"
     inkscape:pagecheckerboard="0"
     inkscape:deskcolor="#505050"
     inkscape:document-units="mm"
     showgrid="false"
     inkscape:zoom="140.45887"
     inkscape:cx="50.427575"
     inkscape:cy="4.1755997"
     inkscape:window-width="1876"
     inkscape:window-height="1052"
     inkscape:window-x="0"
     inkscape:window-y="0"
     inkscape:window-maximized="1"
     inkscape:current-layer="layer1" />
  <defs
     id="defs1503" />
  <g
     inkscape:label="Lag 1"
     inkscape:groupmode="layer"
     id="layer1"
     transform="translate(-2.1488029,-1.3710035)">
    <g
       id="g262"
       transform="matrix(0.35277777,0,0,-0.35277777,13.356493,9.3207623)">
      <path
         d="m 0,0 c -0.007,0 0.024,-0.017 0.091,-0.04 2.074,-0.731 4.163,-1.593 6.21,-2.563 0.062,-0.029 0.101,-0.033 0.124,-0.033 0.054,0 0.124,0.022 0.222,0.069 1.972,0.939 3.989,1.773 5.996,2.477 0.153,0.053 0.188,0.094 0.19,0.097 -10e-4,0 0.012,0.052 -0.034,0.213 -0.322,1.139 -0.65,2.3 -1.058,3.405 C 11.022,5.572 10.15,7.6 8.643,9.237 7.94,10.002 7.246,10.386 6.461,10.443 5.548,10.382 4.769,9.921 4.009,8.994 1.873,6.384 0.903,3.248 0.021,-0.006 0.009,-0.002 0.002,0 0,0 m 10.423,-4.671 c 1.202,-0.652 2.43,-1.364 3.665,-2.121 -0.12,1.069 -0.291,2.134 -0.505,3.366 L 13.177,-3.578 C 12.276,-3.919 11.352,-4.269 10.423,-4.671 M -1.215,-6.809 c 0.204,0.12 0.403,0.247 0.603,0.373 1.023,0.649 1.994,1.178 3.021,1.739 l 0.09,0.049 c -1.058,0.458 -2.109,0.872 -3.192,1.256 0,0 -0.424,-2.752 -0.522,-3.417 m -10.204,5.73 c -1.487,0 -2.722,-0.201 -3.571,-0.583 -1.135,-0.511 -1.658,-1.515 -1.436,-2.754 0.158,-0.884 0.474,-1.747 0.966,-2.638 1.386,-2.51 3.37,-4.611 5.128,-6.335 -0.012,-0.016 -0.016,-0.024 -0.011,-0.024 0.008,0 0.033,0.018 0.074,0.053 1.678,1.443 3.419,2.79 5.177,4.005 0.132,0.091 0.142,0.133 0.149,0.2 0.196,2.007 0.458,4.371 0.91,6.704 0.014,0.073 0.015,0.112 0.013,0.13 -0.008,0 -0.036,0.013 -0.087,0.028 -2.6,0.734 -5.043,1.143 -7.263,1.215 l -0.049,0.425 z m 28.312,-1.284 c 0.002,-10e-4 -0.007,-0.037 0.012,-0.129 0.433,-2.152 0.673,-4.319 0.899,-6.533 0.016,-0.16 0.058,-0.235 0.178,-0.32 2.036,-1.444 3.757,-2.78 5.263,-4.085 0.033,-0.029 0.057,-0.047 0.074,-0.058 0.01,0.012 0.034,0.032 0.066,0.065 1.644,1.655 2.88,3.093 3.888,4.523 0.741,1.049 1.638,2.471 2.001,4.161 0.345,1.606 -0.278,2.725 -1.804,3.236 -0.98,0.329 -2.024,0.402 -3.007,0.432 -2.278,-0.058 -4.64,-0.45 -7.431,-1.232 -0.103,-0.028 -0.134,-0.055 -0.139,-0.06 M -0.294,-14.39 c 0.737,1.432 2.414,4.707 3.017,5.894 -1.501,-0.846 -2.85,-1.666 -4.119,-2.501 -0.14,-0.091 -0.194,-0.165 -0.218,-0.395 -0.1,-0.945 -0.102,-1.905 -0.103,-2.834 l -10e-4,-0.164 z m -4.887,-3.399 c 0.003,0.452 0.003,3.608 0.001,4.12 0,0 -1.962,-1.565 -2.566,-2.042 -0.005,-0.004 -0.01,-0.008 -0.015,-0.012 0.004,-0.004 2.58,-2.066 2.58,-2.066 m 23.234,-0.132 0.992,0.789 c 0.564,0.45 1.128,0.9 1.696,1.345 -0.563,0.449 -2.687,2.133 -2.687,2.133 -0.002,-0.438 -0.003,-3.749 -10e-4,-4.267 M 4.798,-7.359 c 0.463,-0.172 0.67,-0.682 1.564,-2.876 0.515,-1.266 3.356,-8.299 3.356,-8.299 l 1.123,2.627 c 0.398,0.945 0.638,1.515 1.622,1.515 0.411,-0.006 1.477,-0.011 2.123,-0.011 l 10e-4,0.001 c -0.012,0.888 -0.034,1.776 -0.071,2.666 -0.02,0.47 -0.167,0.71 -0.608,0.986 -2.326,1.457 -4.737,2.847 -7.167,4.133 -0.136,0.072 -0.214,0.08 -0.261,0.08 -0.075,0 -0.16,-0.025 -0.265,-0.08 C 5.728,-6.868 5.256,-7.115 4.798,-7.359 m 6.213,-15.223 c 1.041,0.611 2.133,1.281 3.298,2.022 0.125,0.08 0.161,0.139 0.17,0.275 0.054,0.948 0.089,1.971 0.107,3.116 l -1.26,-0.006 c -0.533,-1.241 -1.553,-3.624 -2.315,-5.407 m -12.728,5.41 c 0.002,-0.999 0.007,-1.947 0.101,-2.898 0.029,-0.282 0.094,-0.369 0.23,-0.46 2.431,-1.624 4.982,-3.109 7.582,-4.413 0.095,-0.048 0.172,-0.07 0.241,-0.07 0.062,0 0.127,0.017 0.204,0.055 0.878,0.436 1.769,0.905 2.693,1.417 -0.614,0.146 -0.905,0.649 -0.977,0.936 -0.147,0.378 -2.703,6.724 -4.289,10.626 L 3.612,-12.87 c -2.154,-4.206 -2.154,-4.206 -2.901,-4.293 -0.053,-0.006 -0.107,-0.009 -0.16,-0.009 z m 12.081,-9.703 c 1.095,-0.473 2.141,-0.872 3.197,-1.266 0,0 0.404,2.711 0.502,3.387 -1.32,-0.794 -2.479,-1.472 -3.699,-2.121 m -11.472,1.409 c 0.145,-0.891 0.291,-1.783 0.415,-2.678 0.001,10e-4 3.186,1.277 3.186,1.277 -1.328,0.706 -2.612,1.47 -3.725,2.148 z m 18.059,-3.782 c 2.785,-0.789 5.144,-1.186 7.424,-1.251 h 0.001 c 0.836,0 1.577,0.075 2.262,0.221 0.401,0.085 0.789,0.2 1.154,0.343 1.053,0.414 1.55,1.142 1.561,2.289 0.01,1.049 -0.377,1.978 -0.756,2.749 -1.313,2.662 -3.36,4.859 -5.176,6.71 -0.05,0.052 -0.085,0.08 -0.106,0.094 -0.023,-0.013 -0.063,-0.039 -0.125,-0.091 -1.346,-1.114 -3.796,-3.042 -5.06,-3.952 -0.288,-0.207 -0.288,-0.207 -0.356,-0.703 -0.141,-1.131 -0.6,-4.767 -0.892,-6.268 -0.011,-0.058 -0.014,-0.094 -0.014,-0.115 0.012,-0.002 0.04,-0.013 0.083,-0.026 m -27.323,11.119 c -0.019,-0.011 -0.061,-0.039 -0.132,-0.112 -1.437,-1.481 -2.551,-2.764 -3.504,-4.037 -1.015,-1.357 -2.004,-2.86 -2.367,-4.661 -0.325,-1.613 0.267,-2.603 1.862,-3.117 1.037,-0.334 2.102,-0.413 3.007,-0.447 2.262,0.068 4.65,0.471 7.485,1.268 0.003,-0.001 0.005,-0.002 0.007,-0.002 0.021,0 0.006,0.078 -0.005,0.132 -0.453,2.353 -0.707,4.617 -0.898,6.529 -0.023,0.234 -0.092,0.348 -0.294,0.488 -1.944,1.347 -3.583,2.606 -5.01,3.851 -0.083,0.072 -0.131,0.098 -0.151,0.108 M 0.022,-31.485 c 0.007,-0.007 0.01,-0.056 0.037,-0.153 0.393,-1.422 0.884,-3.089 1.552,-4.682 0.53,-1.261 1.289,-2.88 2.476,-4.213 0.789,-0.886 1.498,-1.305 2.299,-1.36 0.552,0.015 1.054,0.202 1.59,0.608 0.751,0.571 1.387,1.34 2.062,2.495 1.358,2.328 2.147,4.853 2.796,7.236 0.009,0.033 0.013,0.056 0.016,0.073 -0.017,0.002 -0.054,0.02 -0.118,0.042 -2.057,0.722 -4.093,1.558 -6.05,2.484 -0.084,0.04 -0.157,0.059 -0.229,0.059 -0.084,0 -0.177,-0.025 -0.293,-0.079 -2.311,-1.067 -4.219,-1.845 -6.003,-2.45 -0.081,-0.027 -0.12,-0.05 -0.135,-0.06 m 6.392,-13.867 c -1.491,0 -2.925,0.596 -4.147,1.724 -1.872,1.727 -2.979,3.947 -3.735,5.689 -0.695,1.602 -1.269,3.329 -1.707,5.134 -0.056,0.231 -0.097,0.284 -0.104,0.292 -0.043,-0.012 -0.119,-0.021 -0.259,-0.061 -2.979,-0.847 -5.632,-1.26 -8.111,-1.26 l -0.424,0.004 c -1.241,0.023 -2.416,0.207 -3.493,0.547 -3.223,1.016 -4.828,3.707 -4.189,7.021 0.317,1.639 1.023,3.249 2.222,5.067 1.205,1.825 2.661,3.542 4.452,5.247 0.093,0.088 0.134,0.14 0.151,0.166 -0.017,0.008 -0.059,0.062 -0.155,0.155 -2.717,2.627 -4.562,5.044 -5.805,7.606 -0.602,1.242 -1.27,2.91 -1.084,4.808 0.216,2.199 1.427,3.79 3.601,4.729 1.353,0.585 2.868,0.868 4.632,0.868 0.418,0 0.838,-0.015 1.26,-0.043 2.312,-0.151 4.652,-0.577 7.157,-1.304 0.046,-0.014 0.076,-0.018 0.092,-0.019 -0.03,0.011 -0.003,0.117 0.015,0.189 0.675,2.667 1.49,4.905 2.498,6.862 0.902,1.752 1.831,3.041 2.927,4.056 1.248,1.159 2.709,1.771 4.225,1.771 1.504,0 2.956,-0.604 4.198,-1.746 1.862,-1.712 2.95,-3.897 3.769,-5.807 0.69,-1.609 1.251,-3.32 1.669,-5.085 0.043,-0.184 0.081,-0.228 0.083,-0.23 0.03,0.016 0.101,0.024 0.234,0.061 3.105,0.875 5.739,1.288 8.289,1.297 h 10e-4 c 1.301,0 2.518,-0.164 3.672,-0.487 3.379,-0.946 5.146,-3.899 4.395,-7.346 -0.576,-2.642 -2.021,-4.751 -3.498,-6.636 -1.016,-1.295 -2.123,-2.509 -3.29,-3.607 -0.07,-0.065 -0.103,-0.107 -0.118,-0.13 0.016,-0.008 0.052,-0.055 0.132,-0.132 2.236,-2.169 3.85,-4.153 5.081,-6.244 0.942,-1.604 1.498,-3.127 1.699,-4.655 0.304,-2.316 -0.892,-4.704 -2.908,-5.809 -1.729,-0.946 -3.586,-1.131 -5.335,-1.19 -2.749,0.072 -5.409,0.494 -8.157,1.29 -0.115,0.033 -0.179,0.04 -0.214,0.04 -0.002,-0.01 -0.031,-0.073 -0.073,-0.237 -0.84,-3.312 -1.885,-5.928 -3.288,-8.232 -0.742,-1.219 -1.577,-2.186 -2.552,-2.959 -1.159,-0.919 -2.476,-1.404 -3.808,-1.404"
         style="fill:#c8171e;fill-opacity:1;fill-rule:nonzero;stroke:none"
         id="path264" />
    </g>
    <path
       d="m 15.538826,1.37109 c -7.8369596,0 -13.3900231,2.1190143 -13.3900231,9.925982 v 7.16422 c 0,7.80697 5.5305702,9.56344 13.3675301,9.56344 7.83696,0 13.42523,-1.75647 13.42523,-9.56344 v -7.16422 c 0,-7.8069677 -5.562784,-9.9260685 -13.399744,-9.9260685 m -0.01888,1.5287203 c 4.32506,0 7.11166,0.9420995 8.98562,2.0078415 0.57301,0.3257674 1.228104,0.7892343 1.785598,1.5511541 0.724796,0.9905707 1.284622,2.4856032 1.284622,4.8383526 v 7.16422 c 0,4.16242 -1.75224,5.64056 -3.07022,6.39021 -1.87431,1.0661 -4.652548,1.829957 -8.977248,1.829957 -4.3247,0 -7.0752021,-0.763857 -8.9495121,-1.829957 -1.31798,-0.74965 -3.07022,-2.22779 -3.07022,-6.39021 v -7.16422 c 0,-4.1624197 1.75224,-5.6402097 3.07022,-6.3895067 1.87396,-1.065742 4.6156411,-2.010458 8.9407011,-2.010458"
       style="fill:#1d3f8a;fill-opacity:1;fill-rule:nonzero;stroke:none;stroke-width:0.352778"
       id="path180"
       sodipodi:nodetypes="cssssscccssscscsscc" />
  </g>
</svg>
