<?xml version="1.0" encoding="UTF-8" standalone="no"?>
<!-- Created with Inkscape (http://www.inkscape.org/) -->

<svg
   width="590.46222mm"
   height="590.8302mm"
   viewBox="0 0 590.46222 590.8302"
   version="1.1"
   id="svg367"
   inkscape:version="1.2.2 (b0a8486541, 2022-12-01)"
   sodipodi:docname="instruksjonsbok.svg"
   xmlns:inkscape="http://www.inkscape.org/namespaces/inkscape"
   xmlns:sodipodi="http://sodipodi.sourceforge.net/DTD/sodipodi-0.dtd"
   xmlns="http://www.w3.org/2000/svg"
   xmlns:svg="http://www.w3.org/2000/svg">
  <sodipodi:namedview
     id="namedview369"
     pagecolor="#505050"
     bordercolor="#eeeeee"
     borderopacity="1"
     inkscape:showpageshadow="0"
     inkscape:pageopacity="0"
     inkscape:pagecheckerboard="0"
     inkscape:deskcolor="#505050"
     inkscape:document-units="mm"
     showgrid="false"
     inkscape:zoom="0.26471304"
     inkscape:cx="1333.5195"
     inkscape:cy="844.31049"
     inkscape:window-width="1876"
     inkscape:window-height="1052"
     inkscape:window-x="0"
     inkscape:window-y="0"
     inkscape:window-maximized="1"
     inkscape:current-layer="layer1" />
  <defs
     id="defs364" />
  <g
     inkscape:label="Lag 1"
     inkscape:groupmode="layer"
     id="layer1"
     transform="translate(236.2403,175.72855)">
    <path
       style="fill:#0000ff;stroke-width:0.352778"
       d="m 54.872135,415.05275 c -0.09701,-0.0907 -3.748264,-0.26441 -8.113889,-0.38597 -16.664759,-0.46412 -32.214279,-2.44747 -51.8583313,-6.61452 -17.3495017,-3.68035 -37.9560587,-10.42804 -55.3861097,-18.13644 -43.437705,-19.2102 -81.564275,-48.76211 -112.030615,-86.83494 -37.3394,-46.66188 -59.62421,-104.74276 -63.32486,-165.04341 -0.52685,-8.58491 -0.53256,-28.44072 -0.0106,-36.86528 1.58253,-25.542182 6.56046,-51.348512 14.49449,-75.141665 2.47854,-7.432819 6.08399,-16.97417 8.507,-22.512661 3.71354,-8.488359 4.2532,-9.654695 7.29379,-15.763726 28.6599,-57.582321 77.09791,-105.627918 134.974667,-133.881198 34.375862,-16.78103 71.577649,-26.63009 110.461383,-29.24433 7.917328,-0.5323 31.331368,-0.45433 39.687498,0.13216 38.520542,2.70363 75.081192,12.4444 109.008322,29.04285 6.83469,3.34378 14.29555,7.31669 19.22639,10.23807 32.55134,19.28564 59.47925,42.666194 82.95926,72.030505 7.75144,9.694033 17.55581,23.908712 22.99405,33.337499 23.47623,40.702941 35.99342,80.451287 39.99375,126.999994 0.71811,8.356302 0.59206,40.185662 -0.19209,48.506942 -3.26697,34.66744 -10.89335,64.22944 -24.57256,95.25 -11.86593,26.90858 -29.6805,54.22519 -50.38418,77.25833 -4.89768,5.4488 -18.89033,19.23369 -24.47075,24.10746 -35.11493,30.66849 -73.99245,51.49825 -118.64692,63.56858 -18.4169,4.97818 -41.633067,8.61927 -60.501383,9.48877 -7.429612,0.34237 -19.929541,0.63016 -20.108332,0.46298 z m 26.458332,-9.22115 c 16.544676,-1.31928 24.375993,-2.48536 40.745833,-6.06697 36.21955,-7.92459 70.9592,-23.27709 101.95277,-45.056 26.46144,-18.59424 50.74549,-42.77194 69.44758,-69.14342 28.97417,-40.8559 46.86424,-88.80855 51.35415,-137.64996 1.8749,-20.39542 1.82407,-37.67146 -0.17237,-58.561112 C 341.42201,55.489606 330.93178,20.092065 314.81018,-11.363918 290.47074,-58.854275 252.48656,-99.44516 206.63826,-126.9592 c -30.31402,-18.19176 -63.14853,-30.35701 -98.81165,-36.60989 -31.890891,-5.59148 -70.03716,-5.2597 -102.338999,0.89012 -37.716913,7.18078 -72.923171,21.4834 -104.602971,42.49518 -24.24034,16.07754 -45.34869,35.134884 -64.06876,57.843485 -8.57105,10.397218 -19.80767,26.358627 -24.75406,35.16269 -0.47161,0.83941 -2.09201,3.669322 -3.60089,6.288697 -3.05825,5.30902 -7.38963,13.822581 -10.91027,21.444712 -6.84064,14.809906 -13.23015,33.172374 -17.15027,49.28723 -6.02323,24.760364 -8.26286,43.645234 -8.26286,69.673606 0,24.50899 1.74751,40.69299 6.89469,63.85278 4.33616,19.51062 10.67801,38.15507 19.38758,56.9977 3.08172,6.66715 8.96484,18.12654 10.83551,21.10592 0.47464,0.75597 1.7397,2.89306 2.81124,4.7491 14.19857,24.59372 36.78952,51.39714 60.15565,71.37272 12.60095,10.77246 27.05872,21.26315 38.892995,28.22106 1.164167,0.6845 3.466042,2.0453 5.115278,3.02405 4.973129,2.9513 14.78414,8.00953 22.153001,11.42132 17.722824,8.20572 37.554608,14.98734 56.024171,19.15781 17.387068,3.92603 30.86489,5.79599 49.704768,6.89624 7.348107,0.42915 29.357531,0.14308 37.218054,-0.48373 z M 45.170746,382.66969 c -25.080044,-1.37894 -48.8583303,-6.01705 -72.316616,-14.10582 -6.878549,-2.37179 -17.407163,-6.55683 -22.580603,-8.97558 -19.23109,-8.99107 -33.361212,-17.38087 -49.036109,-29.11531 -37.559178,-28.11734 -67.577838,-66.55869 -85.258108,-109.17996 -11.13624,-26.84579 -17.71281,-54.49834 -19.7586,-83.07916 -0.56537,-7.89845 -0.55904,-29.78797 0.0109,-37.57084 2.3461,-32.03944 10.34294,-62.908927 23.86148,-92.110233 20.08838,-43.392773 52.85494,-81.575364 92.962423,-108.328308 5.967949,-3.980809 20.677515,-12.815619 21.337439,-12.815619 0.112007,0 1.270338,-0.60188 2.574074,-1.33752 2.691434,-1.51864 13.470227,-6.70816 17.187097,-8.27484 17.951223,-7.5665 33.028176,-12.37382 50.060075,-15.96174 19.886788,-4.18934 37.889461,-5.93489 58.242699,-5.64725 14.07167,0.19887 23.784418,0.96704 36.159716,2.8598 26.085197,3.98967 50.391627,11.44343 73.779307,22.62504 53.17289,25.42189 96.42962,67.94605 122.64266,120.565676 9.27019,18.608773 16.61495,39.189863 20.89873,58.561109 4.53027,20.485993 6.23281,35.021673 6.50798,55.562505 0.48986,36.56636 -6.04873,70.39793 -20.29774,105.02303 -2.47788,6.02128 -9.75491,20.94875 -13.15717,26.98965 -20.22393,35.90819 -48.96883,67.04908 -82.94754,89.86163 -8.5073,5.71162 -14.84961,9.49209 -25.93456,15.45876 -4.95699,2.6682 -17.27144,8.22022 -24.78419,11.17403 -10.80795,4.24938 -24.96196,8.70895 -34.65886,10.92005 -15.62309,3.56243 -28.667327,5.59841 -42.156945,6.58002 -6.789201,0.49399 -26.702479,0.68569 -33.337499,0.32088 z M -3.154019,322.98121 c -0.272111,-20.68608 -0.8842688,-81.82814 -0.8862232,-88.5155 l -0.00141,-5.17173 -6.1077578,-9.11577 c -3.359266,-5.01364 -12.408016,-18.51745 -20.108333,-30.00844 -15.16756,-22.63415 -15.153819,-22.609 -13.09945,-23.9551 1.007894,-0.6604 2.784165,-0.73261 3.495675,-0.14209 0.532257,0.44174 3.475754,4.46426 21.175817,28.9385 6.946001,9.60437 15.277437,21.11375 18.514303,25.57638 3.23687,4.46264 7.550344,10.41577 9.585501,13.22917 2.035157,2.8134 5.567969,7.69073 7.850695,10.8385 4.370949,6.02735 6.669663,8.42828 10.004012,10.44885 5.656548,3.42784 12.744115,3.92046 18.672848,1.29791 0.84926,-0.37568 11.462688,-7.0001 23.585392,-14.72096 12.12271,-7.72086 27.000583,-17.19696 33.06197,-21.05801 6.06139,-3.86105 12.30535,-7.8298 13.87549,-8.81945 33.06787,-20.84228 46.29926,-29.47997 48.37409,-31.57946 6.77284,-6.85338 6.4056,-15.5442 -1.048,-24.80088 -3.22153,-4.00082 -11.36399,-13.42848 -12.82019,-14.84372 -5.46947,-5.31559 -13.8412,-6.63173 -22.47455,-3.53332 -1.31999,0.47375 -6.47937,3.25353 -11.46528,6.17732 -4.98591,2.92382 -9.93842,5.82154 -11.00557,6.43943 -2.10118,1.21659 -17.838417,10.44373 -26.105554,15.30635 -2.813403,1.65481 -6.782153,3.98195 -8.819444,5.17141 -2.037292,1.18942 -6.468787,3.78633 -9.84777,5.77084 -3.37898,1.98455 -6.325969,3.53826 -6.548861,3.45274 -0.222892,-0.0856 -5.097974,-7.67277 -10.833519,-16.86055 C 29.839145,140.0278 23.804274,130.44674 16.237907,118.63469 13.752168,114.75414 10.45269,109.59476 8.905735,107.16941 3.550174,98.772848 -8.2148237,81.224988 -10.84372,77.712468 c -3.42888,-4.58139 -8.834049,-10.002502 -12.799335,-12.837089 -3.996697,-2.857042 -9.215705,-5.37252 -13.736097,-6.620581 l -3.527778,-0.974005 -35.630554,-0.01471 c -39.227186,-0.01619 -37.897556,-0.08232 -44.025416,2.189067 -8.65581,3.208405 -17.87404,13.210848 -22.88338,24.830118 l -1.3538,3.13994 v 69.138452 69.13845 l 2.60148,4.69459 c 17.20551,31.04892 42.646526,58.52925 72.540184,78.35487 18.476516,12.25373 35.130273,20.32698 55.947766,27.1218 8.5844274,2.80194 9.1332472,2.96612 10.1295622,3.03011 0.6083268,0.0391 0.6275848,-0.67892 0.4270688,-15.92227 z M 190.59107,166.21584 c 2.78197,-0.94435 3.0802,-1.1926 26.20606,-21.81211 6.35444,-5.66575 32.40764,-28.81803 37.92989,-33.70654 6.88361,-6.09365 14.21595,-12.638452 15.68781,-14.002842 0.8605,-0.79767 1.11869,-1.25188 0.85916,-1.51142 -0.37614,-0.37613 -5.47638,-2.53398 -29.60603,-12.52591 -7.37306,-3.05314 -15.38993,-6.38321 -17.81528,-7.40016 -2.42535,-1.01694 -7.9816,-3.32326 -12.34722,-5.125136 -4.36563,-1.80188 -11.50278,-4.771521 -15.86036,-6.599202 -9.54793,-4.004667 -13.35126,-5.092376 -18.00631,-5.149596 -1.84326,-0.02265 -4.02244,0.155173 -4.84265,0.395185 -0.82017,0.240009 -2.88392,1.493082 -4.58611,2.784605 -4.47075,3.392206 -55.98703,42.715696 -60.6474,46.293506 -2.16172,1.65955 -6.32788,4.84298 -9.258187,7.0743 -2.93032,2.23132 -5.32885,4.2395 -5.33009,4.46262 -0.004,0.3343 14.362857,9.04872 25.006367,15.17024 l 2.60721,1.49952 1.44974,-0.99374 c 6.09596,-4.17847 13.76609,-5.94724 21.07046,-4.85894 4.197,0.62532 7.91291,1.8043 10.16229,3.22427 3.5063,2.21344 11.72037,11.73018 20.1216,23.31276 4.18712,5.77268 6.58745,8.28618 8.92746,9.3484 1.89686,0.86106 5.91697,0.91948 8.27159,0.12019 z M 46.353363,136.03831 c 12.677514,-7.71094 25.503737,-15.49959 27.69182,-16.8157 1.134851,-0.6826 2.140867,-1.44311 2.235623,-1.69004 0.186549,-0.48617 -0.471205,-1.32633 -8.696268,-11.10737 C 45.740976,80.449358 41.761318,75.772188 41.502824,75.772188 c -0.137686,0 -5.956857,2.95148 -12.931485,6.55885 -6.974632,3.60736 -14.541362,7.50365 -16.814955,8.65841 -2.273596,1.15476 -4.207079,2.21812 -4.296632,2.36301 -0.08955,0.1449 0.707231,1.60643 1.770623,3.24784 4.125878,6.368542 7.302306,11.246042 16.187653,24.856612 12.797214,19.60277 12.543867,19.22639 12.941522,19.22639 0.196342,0 3.793556,-2.09024 7.993813,-4.64499 z m 54.491007,-28.25154 c 57.22461,-42.77742 70.43229,-52.712425 70.59464,-53.10228 0.10311,-0.247608 -1.48202,-4.375108 -3.52256,-9.172222 -2.04054,-4.797111 -4.01323,-9.436396 -4.38379,-10.309521 -0.37056,-0.873125 -1.45941,-3.413125 -2.41967,-5.644444 -0.96026,-2.23132 -3.76304,-8.819444 -6.2284,-14.640278 -2.46538,-5.820833 -5.63633,-13.282082 -7.04659,-16.580554 -1.41027,-3.298473 -3.80062,-8.89441 -5.31185,-12.435417 -1.51521,-3.550228 -2.94968,-6.438194 -3.19793,-6.438194 -0.24761,0 -5.18308,3.119903 -10.96772,6.933117 -5.78464,3.813217 -12.02566,7.915874 -13.86893,9.117019 -1.84326,1.201141 -7.39951,4.852067 -12.34722,8.113162 -13.547437,8.929281 -26.681741,17.571899 -38.310849,25.20928 -5.747384,3.774574 -10.522933,7.053464 -10.612327,7.286424 -0.0894,0.23296 1.775297,4.764673 4.143759,10.070475 2.368465,5.305799 5.457282,12.266284 6.864036,15.467742 3.095921,7.045622 7.872299,17.800229 9.087269,20.461109 0.487257,1.06715 3.775816,8.44619 7.307862,16.39786 7.069913,15.916412 7.973373,17.821592 8.451393,17.821592 0.17865,0 5.47462,-3.84969 11.768877,-8.55487 z M 79.029192,107.1827 c 0.22666,-0.36671 -0.861801,-2.68151 -9.876126,-21.003562 -3.245655,-6.59695 -6.974272,-14.21695 -8.285822,-16.933337 -1.311547,-2.716388 -4.24779,-8.748888 -6.524981,-13.405555 -5.990396,-12.249865 -8.995128,-18.549601 -8.995128,-18.859231 0,-0.255598 3.755302,-2.749416 32.808332,-21.787343 6.499931,-4.259287 16.501176,-10.833385 22.224993,-14.609102 5.72382,-3.775721 14.51208,-9.548992 19.52943,-12.829494 5.01738,-3.280502 9.20266,-6.17341 9.3006,-6.428683 0.098,-0.25527 -0.61049,-1.850334 -1.57431,-3.544581 -0.96382,-1.69425 -2.57955,-4.545802 -3.59054,-6.336785 -1.01095,-1.790982 -1.98561,-3.34748 -2.16588,-3.458883 -0.18023,-0.111404 -5.36913,2.693536 -11.53086,6.233198 -6.16175,3.539663 -12.235027,7.014796 -13.496207,7.722517 -1.26118,0.707725 -6.02368,3.431463 -10.583337,6.052757 -4.559653,2.621294 -14.878402,8.545748 -22.930555,13.165458 -8.052152,4.619709 -20.434652,11.725962 -27.516666,15.791669 -7.082013,4.065711 -15.6942,9.000049 -19.138193,10.965198 -3.443993,1.965148 -6.261806,3.773141 -6.261806,4.017761 0,0.244623 3.060309,3.818442 6.800688,7.941821 3.740379,4.123383 11.870943,13.132682 18.067919,20.020668 6.196975,6.887985 12.080807,13.396737 13.075179,14.463887 2.32979,2.50031 7.944858,8.7119 10.210379,11.29509 1.863676,2.125 6.776029,7.55879 10.043566,11.10969 4.425671,4.809442 8.243834,9.049012 8.894286,9.875922 0.736247,0.936 1.17422,1.09237 1.515039,0.54092 z M -64.013972,46.646092 c 21.338059,-3.708714 38.589506,-18.416872 45.825789,-39.069933 3.176122,-9.06496 3.854154,-20.83461 1.786266,-31.006978 -1.060429,-5.216479 -2.145348,-8.267259 -4.929696,-13.862265 -3.812776,-7.661574 -8.502018,-13.719263 -14.456261,-18.674982 -6.296339,-5.240447 -12.159583,-8.505098 -19.949946,-11.108118 -6.070681,-2.02842 -10.02279,-2.616027 -17.801152,-2.646709 -10.706897,-0.04224 -17.181028,1.448876 -26.634718,6.134474 -16.22802,8.043196 -27.4282,22.727288 -31.24005,40.957509 -1.1988,5.733281 -1.34815,14.65756 -0.3443,20.573714 2.10765,12.42139 7.12452,22.56133 15.53296,31.39473 9.39484,9.869657 22.364126,16.283464 36.071825,17.838893 3.941099,0.447198 12.04766,0.180819 16.139283,-0.530335 z"
       id="path338" />
  </g>
</svg>
