<svg width="73.4mm" height="73.3mm" version="1.1" viewBox="0 0 73.4 73.3" xmlns="http://www.w3.org/2000/svg">
 <g transform="translate(-69.7 -52)">
  <path d="m101 125c-3.34-0.477-7.44-1.74-10.6-3.25-9.33-4.51-15.7-11.7-19.1-21.5-1.52-4.37-2.04-8.32-1.79-13.7 0.23-4.94 1.04-8.39 3.07-13 1.93-4.41 3.87-7.26 7.22-10.6 7.84-7.89 17-11.5 28.1-11 12.2 0.508 22.6 6.55 29.4 17.2 6.92 10.7 7.39 25.4 1.19 37-6.24 11.7-19.1 19.2-32.5 19.1-2.19-0.0291-4.46-0.121-5.04-0.204zm11.4-3.64c9.27-1.5 19-8.91 23.5-17.9 2.39-4.76 3.46-9.34 3.49-14.9 0.0215-5.33-1.09-10.1-3.51-14.8-5.18-10.3-15.1-17.1-26.6-18.3-9.83-1.01-19 2.22-26.2 9.25-6.97 6.79-10.2 14.3-10.2 23.7-0.0145 9.07 2.97 16.6 9.07 23.1 4.99 5.24 11.5 8.8 18.1 9.91 2.52 0.423 9.84 0.423 12.4-3.4e-4zm-29.5-16c-1.18-0.519-2.59-1.75-2.59-2.27 0-0.168 2.01-1.71 4.47-3.42 2.46-1.71 5.15-3.6 5.99-4.19 5.77-4.1 8.32-5.84 8.56-5.84 0.153 0 0.904 0.453 1.67 1.01 2.96 2.14 6.54 2.37 9.25 0.57l1.44-0.952 1.86 1.28c1.02 0.702 2.68 1.87 3.69 2.6 9.64 6.97 13.5 9.83 13.5 10 0.0106 0.141-0.41 0.538-0.935 0.882-0.885 0.58-2.58 0.631-23.4 0.705-18.5 0.0659-22.6-6e-3 -23.5-0.412zm48.7-4.47c-0.194-0.198-2.02-1.55-4.06-3.01-2.04-1.46-5.53-3.98-7.76-5.61-2.23-1.63-4.35-3.17-4.7-3.43-0.59-0.423-0.406-0.628 2.12-2.36 11.3-7.78 14.8-10.1 15.2-10.4 0.349-0.207 0.441 2.38 0.441 12.5 0 12.9-0.0626 13.5-1.23 12.3zm-52.4-13c0-11.8 0.0159-12 0.676-11.7 0.372 0.199 2.9 1.91 5.63 3.8 2.72 1.89 6.34 4.38 8.03 5.53l3.08 2.09-0.844 0.557c-0.97 0.639-11.9 8.39-14.7 10.4l-1.85 1.34zm25.7 1.4c-0.937-0.275-2.03-0.949-6.16-3.8-1.36-0.938-5.01-3.43-8.11-5.54-8.27-5.62-9.7-6.65-9.7-6.99 0-0.167 0.708-0.616 1.57-0.999 1.52-0.672 2.33-0.693 23.9-0.598 21.5 0.0946 22.4 0.125 23.5 0.792 0.631 0.381 1.14 0.778 1.14 0.882-6e-3 0.104-1.52 1.22-3.36 2.48-1.84 1.26-4.5 3.09-5.9 4.07-7.06 4.94-14.3 9.63-15.1 9.78-0.485 0.0972-1.29 0.058-1.78-0.0873z" stroke-width=".353"/>
 </g>
</svg>
