<svg width="73.1mm" height="73.3mm" version="1.1" viewBox="0 0 73.1 73.3" xmlns="http://www.w3.org/2000/svg">
 <g transform="translate(-25.9 -41.5)">
  <path d="m55 114c-8.16-1.75-13.8-4.92-19.7-11.1-4.01-4.22-6.75-9-8.45-14.7-0.924-3.12-0.981-3.7-0.986-10.2-0.0056-6.2 0.076-7.16 0.823-9.7 1.88-6.38 4.98-11.5 9.89-16.4 6.9-6.88 15.8-10.5 25.5-10.5 10 0 19.2 3.8 26.1 10.8 3.37 3.43 5.06 5.78 7.02 9.82 10.2 20.9-1.35 45.8-23.9 51.7-4.01 1.06-12.3 1.24-16.3 0.369zm11.8-3.06c4.65-0.419 12-3.41 15.5-6.3 0.97-0.8 1.97-1.61 2.23-1.81 1.56-1.19 6.13-7.25 7.44-9.85 3.78-7.53 4.57-16.9 2.11-25-2.61-8.6-9.48-16.4-17.7-20.2-5.22-2.4-7.18-2.8-13.8-2.81-6.47-0.0085-9.41 0.524-13.9 2.52-6.63 2.93-12.9 8.91-16.1 15.5-3.58 7.17-4.56 15.8-2.61 23.2 3.61 13.7 15.7 24 29.3 24.9 2.05 0.143 4.05 0.215 4.43 0.161 0.388-0.054 1.82-0.198 3.18-0.321zm-6.95-9.32c-0.507-0.399-1.73-2.58-2.92-5.2-1.12-2.48-3.08-6.82-4.35-9.63-1.27-2.81-3.06-6.72-3.98-8.69-0.924-1.96-1.93-4.41-2.24-5.44-2.19-7.36 2.51-15.7 10.3-18.3 3.12-1.05 8-1.06 11.1-0.023 7.73 2.57 12.5 11.1 10.3 18.4-0.805 2.65-12.9 28.2-13.7 28.9-0.966 0.851-3.42 0.814-4.55-0.0693zm6.16-23.7c2.99-1.26 5.19-4.6 5.18-7.85-0.0222-5.06-3.95-9.01-8.95-8.99-7.41 0.0269-11.5 8.39-7.05 14.3 1.63 2.17 5.42 3.8 7.91 3.41 0.679-0.107 1.99-0.513 2.91-0.902z" stroke-width=".353"/>
 </g>
</svg>
