<svg width="73.1mm" height="73.2mm" version="1.1" viewBox="0 0 73.1 73.2" xmlns="http://www.w3.org/2000/svg">
 <g transform="translate(-31.9 -38.1)">
  <path d="m61.2 111c-3.69-0.782-6.3-1.65-9-3.01-9.67-4.86-16.8-13.8-19.5-24.4-0.659-2.62-0.785-4.06-0.768-8.78 0.0176-4.93 0.137-6.08 0.938-9.07 3.82-14.3 15.8-25.1 30.2-27.1 4.3-0.608 10.9-0.288 14.7 0.709 10.3 2.73 19.4 10.3 24.1 20.2 0.615 1.29 1.12 2.57 1.12 2.85 0 0.279 0.109 0.617 0.242 0.75 0.732 0.732 1.54 5.45 1.74 10.1 0.337 7.99-0.896 13.6-4.32 19.5-5.38 9.38-12.9 15.1-23.4 17.9-3.96 1.05-11.9 1.21-16.1 0.323zm11.8-3.03c8.2-0.689 17.4-6.25 22.8-13.7 2.79-3.89 4.31-7.49 5.51-13.1 1.66-7.66-0.156-17.1-4.58-23.9-8.41-12.9-23.4-18.5-37.8-14.1-6.81 2.07-12.3 5.86-16.7 11.6-5.12 6.58-7.21 13.3-6.8 22 0.407 8.74 3.53 15.8 9.75 21.9 5.67 5.62 12.2 8.73 20 9.47 1.74 0.166 3.64 0.252 4.22 0.191 0.582-0.0613 2.23-0.21 3.66-0.33zm-14.5-8.52c-1.2-0.197-2.44-1.54-2.73-2.93-0.124-0.603-0.145-10.8-0.0484-22.6l0.176-21.5 1.96-1.96 10.1-0.0834c8.78-0.0726 10.3-0.0075 11.3 0.502 2.24 1.06 2.2 0.636 2.2 24 0 14.2-0.125 21.5-0.379 22.2-0.792 2.27-1.21 2.36-12 2.41-5.34 0.0271-10.1-0.0195-10.6-0.104zm11.8-1.99c0.634-0.463 0.886-2.61 0.399-3.4-0.318-0.515-3.83-0.477-4.35 0.0472-0.611 0.611-0.52 2.41 0.161 3.16 0.691 0.763 2.86 0.868 3.79 0.183zm8.16-6.4 0.866-0.866v-36l-1.76-1.76-9.37 0.105c-8.94 0.0998-9.39 0.137-9.79 0.81-0.573 0.973-0.807 11.1-0.592 25.7 0.167 11.3 0.213 12 0.861 12.4 0.549 0.401 2.49 0.5 9.81 0.5h9.12z" stroke-width=".353"/>
 </g>
</svg>
