<svg width="73.5mm" height="73.3mm" version="1.1" viewBox="0 0 73.5 73.3" xmlns="http://www.w3.org/2000/svg">
 <g transform="translate(-61.4 -146)">
  <path d="m93.1 219c-0.485-0.0805-2.2-0.468-3.81-0.861-20.6-5.03-32.7-27-25.9-47.2 6.69-20 28.3-30.2 48.3-22.6 8.56 3.24 15.4 9.47 19.5 17.8 2.43 4.89 3.48 9 3.8 14.8 0.619 11.4-4.45 22.6-13.6 30.3-4.12 3.41-11 6.54-16.5 7.5-2.73 0.476-9.56 0.64-11.7 0.28zm8.64-3.32c13.5-1.65 23.9-10.1 28.3-23 1.21-3.55 1.68-7.54 1.45-12.2-0.675-13.6-10.1-25.7-23.5-29.8-5.57-1.74-13.3-1.75-19.2-0.0415-11.1 3.21-19.6 12-22.7 23.4-0.841 3.04-0.961 4.11-0.963 8.59-0.0018 4.21 0.14 5.65 0.799 8.11 3.58 13.4 14.4 23 28.1 25 2.99 0.437 4.16 0.437 7.73-7e-4zm-7.76-11.4c-2.85-0.667-7.31-2.92-9.78-4.93-2.38-1.94-5.11-5.62-5.28-7.09l-0.114-1.04 40.1-0.198-0.234 0.795c-0.325 1.11-2.4 4.24-3.97 5.98-1.96 2.18-6.11 4.74-9.35 5.76-3.55 1.12-8.35 1.43-11.4 0.72zm0.176-2.59c0-0.149-0.687-1.06-1.53-2.03-0.839-0.967-1.99-2.63-2.56-3.7-0.567-1.07-1.19-2.06-1.38-2.21s-1.54-0.226-2.99-0.176c-3.38 0.116-3.51 0.574-0.914 3.13 2.61 2.57 9.38 6.16 9.38 4.98zm14.4-2.14c2.87-1.71 5.9-4.7 5.6-5.5-0.168-0.438-0.775-0.556-2.85-0.556h-2.64l-1.11 2.08c-0.609 1.14-1.89 2.95-2.84 4.03-0.954 1.07-1.73 2.03-1.73 2.14 0 0.448 3.4-0.886 5.58-2.19zm-11.2-2.26-0.176-3.62-2.39-0.104c-2.8-0.122-3.31 0.384-2.07 2.06 0.414 0.56 0.753 1.16 0.753 1.34 0 0.35 3.5 3.94 3.84 3.95 0.118 3.5e-4 0.135-1.63 0.0378-3.62zm6.58-0.901c1.68-2.52 1.46-2.89-1.63-2.89h-2.48v7.55l1.43-1.39c0.788-0.767 1.99-2.24 2.68-3.26zm-24.6-8.09c-1.17-0.124-1.3-0.246-1.48-1.44-0.374-2.45-1.31-8.01-1.51-8.98-0.195-0.944-0.158-0.97 1.38-0.97h1.58l0.253 2.86c0.139 1.57 0.366 3.28 0.505 3.79 0.21 0.777 0.288 0.608 0.464-1 0.117-1.07 0.395-2.77 0.619-3.79l0.407-1.85h3.75l0.447 3.09c0.65 4.49 0.911 4.93 1.19 2.03 0.506-5.29 0.436-5.12 2.03-5.12h1.42l-0.165 1.32c-0.377 3.02-1.06 7.06-1.43 8.47l-0.396 1.5h-3.65l-0.234-1.68c-0.129-0.922-0.411-2.62-0.627-3.77-0.457-2.43-0.72-2.07-1.34 1.83-0.61 3.81-0.664 3.97-1.32 3.9-0.336-0.0326-1.19-0.12-1.89-0.195zm13.6-0.451c-0.0902-0.291-0.321-1.64-0.514-3-0.192-1.36-0.513-3.32-0.713-4.37s-0.363-2.32-0.363-2.83c0-0.801 0.138-0.924 0.97-0.862 0.534 0.0392 1.16 0.0841 1.4 0.0998 0.5 0.0337 0.78 1.41 0.958 4.72 0.0711 1.32 0.195 2.47 0.276 2.55 0.0806 0.0806 0.342-1.08 0.581-2.58 0.814-5.1 0.56-4.67 2.71-4.67h1.9l0.24 1.32c0.132 0.728 0.436 2.28 0.676 3.44l0.435 2.12 0.234-1.59c0.234-1.59 0.449-3.51 0.524-4.67 0.0313-0.49 0.365-0.617 1.62-0.617 1.11 0 1.53 0.131 1.42 0.441-0.0854 0.243-0.479 2.72-0.874 5.51s-0.812 5.22-0.925 5.4c-0.253 0.409-3.2 0.201-3.66-0.258-0.182-0.182-0.578-1.75-0.88-3.48s-0.597-3.2-0.657-3.26c-0.0593-0.0593-0.398 1.36-0.752 3.15s-0.77 3.4-0.923 3.57c-0.504 0.561-3.49 0.452-3.68-0.134zm14.8 0.265c-0.0749-0.243-0.392-2.35-0.705-4.67-0.313-2.33-0.663-4.76-0.778-5.4l-0.209-1.17 3.09 0.221 0.361 3.35c0.384 3.57 0.481 3.5 1.25-0.94l0.436-2.53 1.89-0.118c1.2-0.0748 1.94 0.0305 2.04 0.288 0.0854 0.223 0.343 1.69 0.573 3.26 0.433 2.96 1.04 3.85 1.05 1.53 2e-3 -0.728 0.101-2.14 0.222-3.14l0.219-1.82 1.54-0.123c0.883-0.0702 1.54 0.0292 1.54 0.233-6e-3 0.521-1.75 10.9-1.85 11-0.0458 0.0448-0.852 0.128-1.79 0.186-2.03 0.124-2.07 0.0663-2.69-3.57-0.246-1.46-0.559-2.85-0.694-3.1-0.135-0.251-0.457 0.861-0.714 2.47-0.715 4.47-0.744 4.51-2.84 4.51-1.12 0-1.83-0.164-1.92-0.441zm-29.5-14.2c0-0.95 2.74-4.98 4.77-7.01 4.38-4.38 9.14-6.3 15.7-6.31 5.74-6e-3 10.5 1.75 14.4 5.31 2.04 1.85 4.98 5.84 5.46 7.43l0.243 0.794h-20.3c-11.2 0-20.3-0.0968-20.3-0.215zm10.9-3.36c1.04-1.91 3.17-5.03 4.15-6.06 0.515-0.546 0.879-1.05 0.81-1.12-0.223-0.223-3.84 1.17-5.38 2.08-1.75 1.03-5.01 3.88-5.53 4.85-0.589 1.1-0.0699 1.36 2.71 1.36 2.6 0 2.65-0.0189 3.24-1.1zm8.11-2.77 0.101-3.7-1.44 1.41c-2.04 1.99-4.01 4.95-3.75 5.64 0.175 0.456 0.676 0.545 2.6 0.46l2.39-0.104zm7.48 3.53c0.461-0.292 0.441-0.496-0.16-1.61-0.378-0.703-1.6-2.26-2.72-3.45l-2.03-2.18-0.0156 3.56c-0.0086 1.96 0.0902 3.66 0.22 3.79 0.358 0.358 4.1 0.27 4.7-0.11zm9.4-0.182c0.598-1.56-5.94-6.48-9.9-7.44l-1.04-0.254 1.6 2.08c0.882 1.15 2.11 3 2.74 4.11l1.13 2.03h2.63c2.01 0 2.68-0.125 2.83-0.527z" stroke-width=".353"/>
 </g>
</svg>
