<svg width="223" height="44" viewBox="0 0 223 44" fill="none" xmlns="http://www.w3.org/2000/svg">
<path fill-rule="evenodd" clip-rule="evenodd" d="M111.299 15.5679C108.819 14.4301 106.107 14 103.398 14C98.1589 14 92.8272 16.6635 92.8272 22.6525C92.8272 27.0224 95.4919 28.3541 98.1589 29.0676C100.822 29.7811 103.487 29.874 103.487 31.7759C103.487 33.1076 101.899 33.6305 100.822 33.6305C98.7183 33.6305 95.818 32.3941 94.0894 31.1585L91 37.194C93.9019 39.0022 97.2694 40 100.683 40C106.248 40 112 37.339 112 30.9198C112 26.405 109.007 24.5056 105.029 23.6959C103.865 23.4589 101.195 23.2227 101.195 21.5578C101.195 20.3214 102.881 19.8946 103.865 19.8946C105.311 19.8946 107.135 20.3695 108.446 21.083L111.299 15.5679Z" fill="#002D40"/>
<path fill-rule="evenodd" clip-rule="evenodd" d="M90 15H81V40H90V15.0569V15Z" fill="#002D40"/>
<path fill-rule="evenodd" clip-rule="evenodd" d="M219.5 8C219.005 8 218.545 8.09029 218.118 8.27264C217.69 8.44884 217.318 8.69693 217.005 9.01603C216.691 9.33338 216.444 9.70332 216.263 10.1302C216.087 10.5563 216 11.0139 216 11.5048C216 12.0001 216.087 12.463 216.263 12.889C216.444 13.3107 216.691 13.6798 217.005 13.9919C217.318 14.3057 217.69 14.552 218.118 14.7353C218.545 14.9141 219.005 15 219.5 15C219.994 15 220.459 14.9141 220.885 14.7353C221.31 14.552 221.68 14.3057 221.995 13.9919C222.307 13.6798 222.552 13.3107 222.729 12.889C222.909 12.463 223 12.0001 223 11.5048C223 11.0139 222.909 10.5563 222.729 10.1302C222.552 9.70332 222.307 9.33338 221.995 9.01603C221.68 8.69693 221.31 8.44884 220.885 8.27264C220.459 8.09029 219.994 8 219.5 8ZM219.5 8.49969C219.921 8.49969 220.307 8.57858 220.666 8.73463C221.029 8.89155 221.343 9.10545 221.609 9.37545C221.87 9.64283 222.079 9.96193 222.229 10.3257C222.378 10.6922 222.454 11.0832 222.454 11.5048C222.454 11.9265 222.378 12.3175 222.229 12.6839C222.079 13.0451 221.87 13.3642 221.609 13.6351C221.343 13.9042 221.029 14.1181 220.666 14.275C220.307 14.4337 219.921 14.51 219.5 14.51C219.074 14.51 218.677 14.4337 218.314 14.275C217.957 14.1181 217.645 13.9042 217.382 13.6351C217.121 13.3642 216.911 13.0451 216.762 12.6839C216.617 12.3175 216.545 11.9265 216.545 11.5048C216.545 11.0832 216.617 10.6922 216.762 10.3257C216.911 9.96193 217.121 9.64283 217.382 9.37545C217.645 9.10545 217.957 8.89155 218.314 8.73463C218.677 8.57858 219.074 8.49969 219.5 8.49969ZM218.728 13.5299V11.7301H219.567L220.703 13.5299H221.287L220.084 11.7301C220.222 11.7064 220.35 11.6679 220.47 11.6188C220.592 11.5609 220.703 11.489 220.797 11.4005C220.891 11.3058 220.967 11.1927 221.013 11.0604C221.072 10.9289 221.1 10.7746 221.1 10.601C221.1 10.2372 220.993 9.96018 220.78 9.77082C220.572 9.57621 220.24 9.4789 219.782 9.4789H218.229V13.5299H218.728ZM219.386 11.3058H218.728V9.90232H219.642C219.766 9.90232 219.887 9.91371 219.999 9.93125C220.111 9.95141 220.211 9.98735 220.298 10.0426C220.393 10.0969 220.467 10.1636 220.516 10.2521C220.572 10.3398 220.601 10.4564 220.601 10.601C220.601 10.7684 220.566 10.9043 220.497 11.0078C220.428 11.0989 220.338 11.1673 220.225 11.212C220.111 11.2576 219.979 11.2839 219.828 11.2979C219.685 11.3041 219.538 11.3058 219.386 11.3058Z" fill="#002D40"/>
<path fill-rule="evenodd" clip-rule="evenodd" d="M220 27.5478C220 19.2292 215.079 14 206.572 14C198.592 14 193 18.8977 193 27.0248C193 35.4379 199.069 40 207.193 40C212.785 40 218.28 37.3846 219.667 31.6358H211.305C210.348 33.2518 209.009 33.87 207.148 33.87C203.563 33.87 201.699 31.9681 201.699 28.4519H220V27.5478ZM201.843 23.4597C202.368 20.9404 204.47 19.6087 207.002 19.6087C209.343 19.6087 211.495 21.131 211.924 23.4597H201.843Z" fill="#002D40"/>
<path fill-rule="evenodd" clip-rule="evenodd" d="M141 27.5478C141 19.2292 136.079 14 127.572 14C119.591 14 114 18.8977 114 27.0248C114 35.4379 120.068 40 128.194 40C133.783 40 139.279 37.3846 140.665 31.6358H132.303C131.346 33.2518 130.009 33.87 128.145 33.87C124.563 33.87 122.695 31.9681 122.695 28.4519H141V27.5478ZM122.839 23.4597C123.368 20.9404 125.469 19.6087 128.001 19.6087C130.342 19.6087 132.495 21.131 132.925 23.4597H122.839Z" fill="#002D40"/>
<path fill-rule="evenodd" clip-rule="evenodd" d="M190.298 15.5679C187.82 14.4301 185.106 14 182.394 14C177.157 14 171.822 16.6635 171.822 22.6525C171.822 27.0224 174.489 28.3541 177.157 29.0676C179.823 29.7811 182.486 29.874 182.486 31.7759C182.486 33.1076 180.898 33.6305 179.823 33.6305C177.717 33.6305 174.816 32.3941 173.087 31.1585L170 37.194C172.9 39.0022 176.267 40 179.68 40C185.247 40 191 37.339 191 30.9198C191 26.405 188.006 24.5056 184.031 23.6959C182.862 23.4589 180.194 23.2227 180.194 21.5578C180.194 20.3214 181.88 19.8946 182.862 19.8946C184.31 19.8946 186.135 20.3695 187.445 21.083L190.298 15.5679Z" fill="#002D40"/>
<path fill-rule="evenodd" clip-rule="evenodd" d="M147.469 15.4737H143V40H151.747V27.4547C151.747 24.4356 152.758 21.8401 156.315 21.8401C160.637 21.8401 160.253 25.8971 160.253 28.2081V40H169V25.0491C169 19.1063 166.358 15 159.725 15C156.315 15 153.864 15.9926 151.844 18.9172L151.747 15.4737H147.469Z" fill="#002D40"/>
<path fill-rule="evenodd" clip-rule="evenodd" d="M55.8878 22.0065C55.9593 22.0065 60.4619 22.0297 61 22.0272V15.0216C60.7098 15.0091 54.8882 15 54.5771 15C46.5508 15 42.1331 20.2584 42.0042 27.8321L42 27.8337C42 27.8893 42.0025 27.944 42.0025 28.0012C42.0025 28.056 42 28.1107 42 28.1679H42.0042C42.1331 35.7408 46.5508 41 54.5771 41C54.8882 41 60.7098 40.9934 61 40.9793V33.9753C60.4619 33.9728 55.9593 33.996 55.8878 33.996C51.2796 33.996 50.774 29.6191 50.7424 28.0012C50.774 26.3833 51.2796 22.0065 55.8878 22.0065Z" fill="#002D40"/>
<path fill-rule="evenodd" clip-rule="evenodd" d="M65.8039 40V22.2843H63V15.438H65.8039V11H74.4558V15.438H80V22.2843H74.4558V40H65.8039Z" fill="#002D40"/>
<path fill-rule="evenodd" clip-rule="evenodd" d="M34 40H44L37.496 23C37.587 25.361 37.4986 27.7454 37.1678 30.1181C36.4248 35.4312 34.7601 38.7232 34 40Z" fill="#002D40"/>
<mask id="mask0" mask-type="alpha" maskUnits="userSpaceOnUse" x="0" y="0" width="35" height="44">
<path fill-rule="evenodd" clip-rule="evenodd" d="M0 0.427776H34.6876V44H0V0.427776Z" fill="white"/>
</mask>
<g mask="url(#mask0)">
<path fill-rule="evenodd" clip-rule="evenodd" d="M18.7323 24.7378L22.8916 12.4007H22.9934L27.1014 24.7378H18.7323ZM34.3781 29.093C35.0847 23.7747 34.5133 18.3684 33.3648 13.3882L28.4876 0.427776H17.5008L0 44C10.032 33.1841 20.0672 29.0579 27.9552 27.0926L31.806 37.7096C32.5004 36.4149 33.7913 33.5288 34.3781 29.093Z" fill="#002D40"/>
</g>
<path fill-rule="evenodd" clip-rule="evenodd" d="M81 8.49959C81 6.01447 83.0147 4 85.5 4C87.9853 4 90 6.01447 90 8.49959C90 10.9855 87.9853 13 85.5 13C83.0147 13 81 10.9855 81 8.49959Z" fill="#002D40"/>
</svg>
