<?xml version="1.0" encoding="utf-8"?>
<!-- Generator: Adobe Illustrator 25.2.1, SVG Export Plug-In . SVG Version: 6.00 Build 0)  -->
<svg version="1.1" id="Layer_1" xmlns="http://www.w3.org/2000/svg" xmlns:xlink="http://www.w3.org/1999/xlink" x="0px" y="0px"
	 viewBox="0 0 501.7 147.4" style="enable-background:new 0 0 501.7 147.4;" xml:space="preserve">
<style type="text/css">
	.st0{fill:#FFFFFF;}
</style>
<g>
	<g>
		<path class="st0" d="M145,146.9h-13.8v-3.7h4.9v-14.3l-4.9,2.1l-1.5-2.9l7.4-3.8h3.1v18.9h4.8V146.9z"/>
		<path class="st0" d="M168.2,135.7c0,8-4.4,11.7-9.5,11.7c-5,0-9.5-3.7-9.5-11.7c0-8,4.4-11.7,9.5-11.7
			C163.8,124,168.2,127.7,168.2,135.7z M158.8,127.6c-3.4,0-5.3,2.9-5.3,8.1c0,5.1,1.9,8.1,5.3,8.1c3.4,0,5.3-3,5.3-8.1
			C164,130.5,162.2,127.6,158.8,127.6L158.8,127.6z"/>
		<path class="st0" d="M190.8,135.7c0,8-4.4,11.7-9.5,11.7c-5,0-9.5-3.7-9.5-11.7c0-8,4.4-11.7,9.5-11.7
			C186.4,124,190.8,127.7,190.8,135.7z M181.3,127.6c-3.4,0-5.3,2.9-5.3,8.1c0,5.1,1.9,8.1,5.3,8.1c3.4,0,5.3-3,5.3-8.1
			C186.6,130.5,184.7,127.6,181.3,127.6L181.3,127.6z"/>
		<path class="st0" d="M199.1,124c3,0,5.2,2,5.2,5.5c0,3.5-2.2,5.5-5.2,5.5c-2.9,0-5.2-1.9-5.2-5.5C194,126,196.2,124,199.1,124
			L199.1,124z M196.6,146.9l15.2-22.5h2.5l-15.2,22.5H196.6z M196.8,129.5c0,2.1,0.8,3.2,2.3,3.2c1.6,0,2.3-1.1,2.3-3.2
			c0-2.1-0.7-3.2-2.3-3.2C197.6,126.3,196.8,127.4,196.8,129.5z M212,136.3c2.9,0,5.2,2,5.2,5.5c0,3.5-2.2,5.5-5.2,5.5
			c-2.9,0-5.2-1.9-5.2-5.5C206.8,138.2,209.1,136.3,212,136.3L212,136.3z M209.6,141.8c0,2,0.8,3.2,2.3,3.2c1.6,0,2.3-1.2,2.3-3.2
			c0-2.1-0.7-3.2-2.3-3.2C210.4,138.5,209.6,139.7,209.6,141.8z"/>
		<path class="st0" d="M235,131.4v15.5h-4v-22.5h3.4l11.4,15.6v-15.6h4.1v22.5h-3.4L235,131.4z"/>
		<path class="st0" d="M277,135.5c0,8.1-5.5,11.8-11.1,11.8c-5.5,0-11.1-3.7-11.1-11.8c0-8.1,5.5-11.5,11.1-11.5
			C271.5,124,277,127.5,277,135.5z M259.2,135.6c0,5.3,3,8.1,6.7,8.1c3.8,0,6.9-2.7,6.9-8.1c0-5.3-3-7.9-6.8-7.9
			C262.2,127.7,259.2,130.2,259.2,135.6z"/>
		<path class="st0" d="M290.6,138.9l-0.5,0h-3.9v8h-4v-22.5h8.1c6.3,0,8.6,2.9,8.6,6.8c0,3.5-1.7,5.8-4.4,6.9l5.4,8.7h-4.5
			L290.6,138.9z M290.4,135.5c2.7,0,4.2-1.5,4.2-3.9c0-2.4-1.3-3.7-4.6-3.7h-3.8v7.6L290.4,135.5z"/>
		<path class="st0" d="M323.3,146.9l-5.3-16.1l-5.3,16.1h-3.3l-7.1-22.5h4.3l4.8,16.3l5.1-16.3h3.3l5.1,16.4l4.7-16.4h4.1l-7.1,22.5
			H323.3z"/>
		<path class="st0" d="M338.2,142.1l-1.7,4.8h-4.2l8.4-22.5h4.2l8.6,22.5h-4.4l-1.7-4.8H338.2z M342.8,128.9l-3.5,10h7L342.8,128.9z
			"/>
		<path class="st0" d="M364.2,146.9h-4v-9l-7.8-13.5h4.7l5.3,9.7l5.3-9.7h4.4l-7.8,13.5L364.2,146.9z"/>
	</g>
	<g>
		<path class="st0" d="M46,72.1c0,12.2-10.1,21.3-22.5,21.3H0V18.5h23.5c12.4,0,22.5,9.1,22.5,21.3c0,6.9-3.2,12.5-8.1,16.2
			C42.7,59.6,46,65.2,46,72.1z M11.1,29.1v21.5h12.3c6.4,0,11.4-4.5,11.4-10.8c0-6.2-4.9-10.7-11.4-10.7H11.1z M34.8,72.1
			c0-6.3-4.9-10.8-11.4-10.8H11.1v21.5h12.3C29.9,82.8,34.8,78.3,34.8,72.1z"/>
		<path class="st0" d="M112.7,93.4L86.6,60.5v32.9H75.4V18.5h24.5c12.5,0,22.6,9.1,22.6,21.3c0,12.1-9.7,21.1-22,21.4l25.8,32.1
			H112.7z M86.6,29.1v21.5h13.5c6.4,0,11.4-4.5,11.4-10.8c0-6.2-4.9-10.7-11.4-10.7H86.6z"/>
		<path class="st0" d="M189.9,71.9h-28.4l-10,21.5h-11.2l31.2-67.3c-5.4-1.7-9.2-6.7-9.2-12.7c0-7.5,6.1-13.4,13.6-13.4
			c7.5,0,13.6,5.9,13.6,13.4c0,6-3.9,11-9.2,12.7l31.2,67.3h-11.6L189.9,71.9z M185.1,61.3l-9.3-20.1l-9.3,20.1H185.1z M175.9,20.1
			c3.7,0,6.7-3,6.7-6.7s-3-6.7-6.7-6.7c-3.7,0-6.7,3-6.7,6.7S172.1,20.1,175.9,20.1z"/>
		<path class="st0" d="M236.9,29.1h-19.5V18.5h50v10.6H248v64.3h-11.1V29.1z"/>
		<path class="st0" d="M305.4,29.1v21.5h29.5v10.6h-29.5v21.5h29.5v10.6h-40.6V18.5h40.6v10.6H305.4z"/>
		<path class="st0" d="M425.7,18.5v76.4h-0.2l-47.6-51.2v49.7h-11.1V16.9h0.2L414.6,68V18.5H425.7z"/>
		<path class="st0" d="M457.1,82.8h22.1c6.3,0,11.4-4.5,11.4-10.7c0-6.3-5-10.8-11.4-10.8h-2.7c-12.4,0-22.6-9.1-22.6-21.4
			c0-12.2,10.2-21.3,22.6-21.3h21.9v10.6h-22c-6.3,0-11.4,4.5-11.4,10.7c0,6.3,5,10.8,11.4,10.8h2.7c12.4,0,22.6,9.1,22.6,21.4
			c0,12.2-10.2,21.3-22.6,21.3h-22V82.8z"/>
	</g>
</g>
</svg>
