<svg xmlns="http://www.w3.org/2000/svg" width="97.063" height="55.29" viewBox="0 0 97.063 55.29">
  <g id="em-trak-logo" transform="translate(0 -1.1)">
    <path id="Path_1" data-name="Path 1" d="M0,1.1V51.41s0,4.98,4.98,4.98h87.1s4.98,0,4.98-4.98V1.1H0Z" fill="#e84e0f"/>
    <path id="Path_2" data-name="Path 2" d="M161.377,80.9a1.748,1.748,0,0,0-1.677,1.779v5.946a1.68,1.68,0,1,0,3.354,0V82.679a1.748,1.748,0,0,0-1.677-1.779" transform="translate(-78.544 -39.247)" fill="#fff"/>
    <path id="Path_3" data-name="Path 3" d="M81.2,72.2v7.724h2.744V77.336a5.763,5.763,0,0,1,.407-2.541.941.941,0,0,1,.864-.457,1.707,1.707,0,0,1,.762.2c.3-.711.559-1.423.864-2.134A3.006,3.006,0,0,0,85.52,72a1.465,1.465,0,0,0-.966.3,3,3,0,0,0-.762,1.118v-1.27H81.2Z" transform="translate(-39.936 -34.87)" fill="#fff"/>
    <path id="Path_4" data-name="Path 4" d="M133.957,73.544c1.474,1.575,2.947,3.151,4.472,4.777a3.848,3.848,0,0,0,5.692,0c1.22-1.321,2.49-2.643,3.71-3.964a.983.983,0,0,1,1.423,0c1.474,1.575,2.947,3.151,4.472,4.777a1.474,1.474,0,0,0,2.134,0,1.658,1.658,0,0,0,0-2.287c-1.474-1.575-2.947-3.151-4.472-4.777a3.848,3.848,0,0,0-5.692,0c-1.22,1.321-2.49,2.643-3.71,3.964a.982.982,0,0,1-1.423,0c-1.474-1.575-2.947-3.151-4.472-4.777a1.474,1.474,0,0,0-2.134,0,1.658,1.658,0,0,0,0,2.287" transform="translate(-65.658 -34.28)" fill="#fff"/>
    <path id="Path_5" data-name="Path 5" d="M111.7,66.6V77.272h2.744V75.239l1.016-1.067,1.525,3.1h3.151l-2.795-5.031,2.643-2.693h-3.456l-2.084,2.49V66.6Z" transform="translate(-54.936 -32.214)" fill="#fff"/>
    <path id="Path_6" data-name="Path 6" d="M71.761,66.6l-2.744,1.525v1.423H68v2.134h1.016v2.744a5.528,5.528,0,0,0,.254,1.88,1.735,1.735,0,0,0,.711.864,2.856,2.856,0,0,0,1.525.3,8.923,8.923,0,0,0,1.931-.2c-.051-.661-.152-1.27-.2-1.931a2.28,2.28,0,0,1-.864.2.476.476,0,0,1-.457-.254,1.766,1.766,0,0,1-.1-.661V71.783h1.525V69.649H71.811V66.6Z" transform="translate(-33.444 -32.214)" fill="#fff"/>
    <rect id="Rectangle_1" data-name="Rectangle 1" width="4.065" height="2.388" transform="translate(29.881 39.874)" fill="#fff"/>
    <path id="Path_7" data-name="Path 7" d="M32.4,72.252v7.724h2.744V76.064a2.024,2.024,0,0,1,.3-1.27.988.988,0,0,1,.813-.407.859.859,0,0,1,.508.152.74.74,0,0,1,.3.457,2.31,2.31,0,0,1,.051.711v4.269H39.87V76.013a1.954,1.954,0,0,1,.3-1.22.948.948,0,0,1,.813-.356.876.876,0,0,1,.711.407,1.055,1.055,0,0,1,.2.762v4.421h2.744V75.1a3.157,3.157,0,0,0-.661-2.287,2.305,2.305,0,0,0-1.829-.711,3.4,3.4,0,0,0-1.321.254,4.048,4.048,0,0,0-1.169,1.016,2.577,2.577,0,0,0-.813-.966,3.24,3.24,0,0,0-2.744,0,3.381,3.381,0,0,0-1.118,1.016V72.3H32.4Z" transform="translate(-15.935 -34.919)" fill="#fff"/>
    <path id="Path_8" data-name="Path 8" d="M21.734,76.728v-.356a5.892,5.892,0,0,0-.457-2.49A3.484,3.484,0,0,0,19.9,72.408a4.836,4.836,0,0,0-2.439-.508,3.911,3.911,0,0,0-3,1.118,4.078,4.078,0,0,0-1.067,2.9,4.226,4.226,0,0,0,.559,2.185,3.558,3.558,0,0,0,1.372,1.372,4.759,4.759,0,0,0,2.236.407,5,5,0,0,0,2.541-.508,4.107,4.107,0,0,0,1.525-1.677c-.915-.1-1.829-.152-2.744-.254a1.6,1.6,0,0,1-.508.508,1.434,1.434,0,0,1-.762.2,1.277,1.277,0,0,1-1.067-.508,2.04,2.04,0,0,1-.356-1.067h5.539Zm-5.59-1.474a1.854,1.854,0,0,1,.356-1.016,1.35,1.35,0,0,1,1.118-.559,1.265,1.265,0,0,1,.966.356,1.93,1.93,0,0,1,.457,1.22Z" transform="translate(-6.59 -34.821)" fill="#fff"/>
    <path id="Path_9" data-name="Path 9" d="M147.077,68.8a1.748,1.748,0,0,0,1.677-1.779V61.079a1.68,1.68,0,1,0-3.354,0v5.946a1.784,1.784,0,0,0,1.677,1.779" transform="translate(-71.51 -28.624)" fill="#fff"/>
    <path id="Path_10" data-name="Path 10" d="M95.6,74.793A1.341,1.341,0,0,1,96,74.133a1.683,1.683,0,0,1,.966-.254.919.919,0,0,1,.711.2,1.055,1.055,0,0,1,.2.762c-.356.152-.661.254-.966.356s-.966.254-1.982.457a3.627,3.627,0,0,0-1.779.813,2.174,2.174,0,0,0-.457,1.423,2.113,2.113,0,0,0,.661,1.575,2.751,2.751,0,0,0,1.931.61,4.121,4.121,0,0,0,1.677-.3,2.985,2.985,0,0,0,1.067-.813,4.4,4.4,0,0,0,.1.508c.051.1.1.254.2.457h2.643a3.921,3.921,0,0,1-.3-.762,4.124,4.124,0,0,1-.051-.864v-3.4a2.9,2.9,0,0,0-.2-1.118,2.01,2.01,0,0,0-.559-.915,2.7,2.7,0,0,0-1.27-.61,10.452,10.452,0,0,0-1.982-.152,11.689,11.689,0,0,0-1.423.1,3.719,3.719,0,0,0-1.067.356,2.352,2.352,0,0,0-.813.762,2.444,2.444,0,0,0-.407,1.169c.864.1,1.779.2,2.693.3m2.287,2.033a2.025,2.025,0,0,1-.152.864,1.47,1.47,0,0,1-.559.559,1.713,1.713,0,0,1-.864.254.862.862,0,0,1-.661-.2.694.694,0,0,1-.2-.559.652.652,0,0,1,.2-.508,2.676,2.676,0,0,1,1.067-.457c.407-.1.813-.254,1.169-.356Z" transform="translate(-45.592 -34.919)" fill="#fff"/>
  </g>
</svg>
