<?xml version="1.0" encoding="UTF-8" standalone="no"?>
<svg
   width="97.059998"
   height="29.797665"
   viewBox="0 0 97.059994 29.797664"
   version="1.1"
   id="svg14"
   sodipodi:docname="em-trak.svg"
   inkscape:version="1.2.2 (b0a8486541, 2022-12-01)"
   xmlns:inkscape="http://www.inkscape.org/namespaces/inkscape"
   xmlns:sodipodi="http://sodipodi.sourceforge.net/DTD/sodipodi-0.dtd"
   xmlns="http://www.w3.org/2000/svg"
   xmlns:svg="http://www.w3.org/2000/svg">
  <defs
     id="defs18" />
  <sodipodi:namedview
     id="namedview16"
     pagecolor="#505050"
     bordercolor="#eeeeee"
     borderopacity="1"
     inkscape:showpageshadow="0"
     inkscape:pageopacity="0"
     inkscape:pagecheckerboard="0"
     inkscape:deskcolor="#505050"
     showgrid="false"
     inkscape:zoom="13.403665"
     inkscape:cx="71.24917"
     inkscape:cy="27.492481"
     inkscape:window-width="1876"
     inkscape:window-height="1052"
     inkscape:window-x="0"
     inkscape:window-y="0"
     inkscape:window-maximized="1"
     inkscape:current-layer="em-trak-logo" />
  <g
     id="em-trak-logo"
     transform="translate(0,-26.592335)">
    <path
       id="Path_1"
       data-name="Path 1"
       d="M 0,26.592335 0.09674956,51.835992 C 0.09674956,51.835992 0,56.39 4.98,56.39 h 87.1 c 0,0 4.934446,-0.136142 4.941513,-4.737382 L 97.06,26.592335 Z"
       fill="#e84e0f"
       style="stroke-width:0.734121"
       sodipodi:nodetypes="ccscscc" />
    <path
       id="Path_2"
       data-name="Path 2"
       d="m 161.377,80.9 a 1.748,1.748 0 0 0 -1.677,1.779 v 5.946 a 1.68,1.68 0 1 0 3.354,0 V 82.679 A 1.748,1.748 0 0 0 161.377,80.9"
       transform="translate(-78.544,-39.247)"
       fill="#ffffff" />
    <path
       id="Path_4"
       data-name="Path 4"
       d="m 133.957,73.544 c 1.474,1.575 2.947,3.151 4.472,4.777 a 3.848,3.848 0 0 0 5.692,0 c 1.22,-1.321 2.49,-2.643 3.71,-3.964 a 0.983,0.983 0 0 1 1.423,0 c 1.474,1.575 2.947,3.151 4.472,4.777 a 1.474,1.474 0 0 0 2.134,0 1.658,1.658 0 0 0 0,-2.287 c -1.474,-1.575 -2.947,-3.151 -4.472,-4.777 a 3.848,3.848 0 0 0 -5.692,0 c -1.22,1.321 -2.49,2.643 -3.71,3.964 a 0.982,0.982 0 0 1 -1.423,0 c -1.474,-1.575 -2.947,-3.151 -4.472,-4.777 a 1.474,1.474 0 0 0 -2.134,0 1.658,1.658 0 0 0 0,2.287"
       transform="translate(-65.658,-34.28)"
       fill="#ffffff"
       inkscape:label="Path_4" />
    <path
       id="Path_9"
       data-name="Path 9"
       d="m 147.077,68.8 a 1.748,1.748 0 0 0 1.677,-1.779 v -5.942 a 1.68,1.68 0 1 0 -3.354,0 v 5.946 a 1.784,1.784 0 0 0 1.677,1.779"
       transform="translate(-71.51,-28.624)"
       fill="#ffffff"
       inkscape:label="Path_9" />
    <path
       id="Path_5"
       data-name="Path 5"
       d="m 111.7,66.6 v 10.672 h 2.744 v -2.033 l 1.016,-1.067 1.525,3.1 h 3.151 l -2.795,-5.031 2.643,-2.693 h -3.456 l -2.084,2.49 V 66.6 Z"
       transform="translate(-54.936,-32.214)"
       fill="#ffffff"
       inkscape:label="k" />
    <path
       id="Path_10"
       data-name="Path 10"
       d="m 95.6,74.793 a 1.341,1.341 0 0 1 0.4,-0.66 1.683,1.683 0 0 1 0.966,-0.254 0.919,0.919 0 0 1 0.711,0.2 1.055,1.055 0 0 1 0.2,0.762 c -0.356,0.152 -0.661,0.254 -0.966,0.356 -0.305,0.102 -0.966,0.254 -1.982,0.457 a 3.627,3.627 0 0 0 -1.779,0.813 2.174,2.174 0 0 0 -0.457,1.423 2.113,2.113 0 0 0 0.661,1.575 2.751,2.751 0 0 0 1.931,0.61 4.121,4.121 0 0 0 1.677,-0.3 2.985,2.985 0 0 0 1.067,-0.813 4.4,4.4 0 0 0 0.1,0.508 c 0.051,0.1 0.1,0.254 0.2,0.457 h 2.643 a 3.921,3.921 0 0 1 -0.3,-0.762 4.124,4.124 0 0 1 -0.051,-0.864 v -3.4 a 2.9,2.9 0 0 0 -0.2,-1.118 2.01,2.01 0 0 0 -0.559,-0.915 2.7,2.7 0 0 0 -1.27,-0.61 10.452,10.452 0 0 0 -1.982,-0.152 11.689,11.689 0 0 0 -1.423,0.1 3.719,3.719 0 0 0 -1.067,0.356 2.352,2.352 0 0 0 -0.813,0.762 2.444,2.444 0 0 0 -0.407,1.169 c 0.864,0.1 1.779,0.2 2.693,0.3 m 2.287,2.033 a 2.025,2.025 0 0 1 -0.152,0.864 1.47,1.47 0 0 1 -0.559,0.559 1.713,1.713 0 0 1 -0.864,0.254 0.862,0.862 0 0 1 -0.661,-0.2 0.694,0.694 0 0 1 -0.2,-0.559 0.652,0.652 0 0 1 0.2,-0.508 2.676,2.676 0 0 1 1.067,-0.457 c 0.407,-0.1 0.813,-0.254 1.169,-0.356 z"
       transform="translate(-45.592,-34.919)"
       fill="#ffffff"
       inkscape:label="a" />
    <path
       id="Path_3"
       data-name="Path 3"
       d="m 81.2,72.2 v 7.724 h 2.744 v -2.588 a 5.763,5.763 0 0 1 0.407,-2.541 0.941,0.941 0 0 1 0.864,-0.457 1.707,1.707 0 0 1 0.762,0.2 c 0.3,-0.711 0.559,-1.423 0.864,-2.134 A 3.006,3.006 0 0 0 85.52,72 a 1.465,1.465 0 0 0 -0.966,0.3 3,3 0 0 0 -0.762,1.118 v -1.27 H 81.2 Z"
       transform="translate(-39.936,-34.87)"
       fill="#ffffff"
       inkscape:label="r" />
    <path
       id="Path_6"
       data-name="Path 6"
       d="m 71.761,66.6 -2.744,1.525 v 1.423 H 68 v 2.134 h 1.016 v 2.744 a 5.528,5.528 0 0 0 0.254,1.88 1.735,1.735 0 0 0 0.711,0.864 2.856,2.856 0 0 0 1.525,0.3 8.923,8.923 0 0 0 1.931,-0.2 C 73.386,76.609 73.285,76 73.237,75.339 a 2.28,2.28 0 0 1 -0.864,0.2 0.476,0.476 0 0 1 -0.457,-0.254 1.766,1.766 0 0 1 -0.1,-0.661 v -2.841 h 1.525 v -2.134 h -1.53 V 66.6 Z"
       transform="translate(-33.444,-32.214)"
       fill="#ffffff"
       inkscape:label="t" />
    <rect
       id="Rectangle_1"
       data-name="Rectangle 1"
       width="4.0650001"
       height="2.388"
       fill="#ffffff"
       inkscape:label="-"
       x="29.881001"
       y="39.873989"
       style="stroke-width:1" />
    <path
       id="Path_7"
       data-name="Path 7"
       d="m 32.4,72.252 v 7.724 h 2.744 v -3.912 a 2.024,2.024 0 0 1 0.3,-1.27 0.988,0.988 0 0 1 0.813,-0.407 0.859,0.859 0 0 1 0.508,0.152 0.74,0.74 0 0 1 0.3,0.457 2.31,2.31 0 0 1 0.051,0.711 v 4.269 h 2.754 v -3.963 a 1.954,1.954 0 0 1 0.3,-1.22 0.948,0.948 0 0 1 0.813,-0.356 0.876,0.876 0 0 1 0.711,0.407 1.055,1.055 0 0 1 0.2,0.762 v 4.421 h 2.744 V 75.1 a 3.157,3.157 0 0 0 -0.661,-2.287 2.305,2.305 0 0 0 -1.829,-0.711 3.4,3.4 0 0 0 -1.321,0.254 4.048,4.048 0 0 0 -1.169,1.016 2.577,2.577 0 0 0 -0.813,-0.966 3.24,3.24 0 0 0 -2.744,0 3.381,3.381 0 0 0 -1.118,1.016 V 72.3 H 32.4 Z"
       transform="translate(-15.935,-34.919)"
       fill="#ffffff"
       inkscape:label="m" />
    <path
       id="Path_8"
       data-name="Path 8"
       d="M 21.734,76.728 V 76.372 A 5.892,5.892 0 0 0 21.277,73.882 3.484,3.484 0 0 0 19.9,72.408 4.836,4.836 0 0 0 17.461,71.9 a 3.911,3.911 0 0 0 -3,1.118 4.078,4.078 0 0 0 -1.067,2.9 4.226,4.226 0 0 0 0.559,2.185 3.558,3.558 0 0 0 1.372,1.372 4.759,4.759 0 0 0 2.236,0.407 5,5 0 0 0 2.541,-0.508 4.107,4.107 0 0 0 1.525,-1.677 c -0.915,-0.1 -1.829,-0.152 -2.744,-0.254 a 1.6,1.6 0 0 1 -0.508,0.508 1.434,1.434 0 0 1 -0.762,0.2 1.277,1.277 0 0 1 -1.067,-0.508 2.04,2.04 0 0 1 -0.356,-1.067 h 5.539 z m -5.59,-1.474 a 1.854,1.854 0 0 1 0.356,-1.016 1.35,1.35 0 0 1 1.118,-0.559 1.265,1.265 0 0 1 0.966,0.356 1.93,1.93 0 0 1 0.457,1.22 z"
       transform="translate(-6.59,-34.821)"
       fill="#ffffff"
       inkscape:label="e" />
  </g>
</svg>
