<svg width="298" height="50" viewBox="0 0 298 50" fill="none" xmlns="http://www.w3.org/2000/svg">
<g clip-path="url(#clip0_12241_489)">
<path d="M191.972 11.4303H195.701L201.509 25.1272C202.083 26.5256 202.765 28.5335 202.765 28.5335H202.836C202.836 28.5335 203.517 26.5256 204.091 25.1272L209.9 11.4303H213.629L215.673 36.7447H212.159L210.904 20.7886C210.796 19.2468 210.868 17.0595 210.868 17.0595H210.796C210.796 17.0595 210.043 19.3902 209.434 20.7886L204.378 32.1907H201.223L196.203 20.7886C195.629 19.426 194.84 16.9879 194.84 16.9879H194.769C194.769 16.9879 194.804 19.2468 194.697 20.7886L193.478 36.7447H189.928L191.972 11.4303Z" fill="#002F87"/>
<path d="M230.194 25.4141H230.983V25.0913C230.983 22.1154 229.297 21.1112 227.003 21.1112C224.206 21.1112 221.947 22.8682 221.947 22.8682L220.513 20.3223C220.513 20.3223 223.13 18.1711 227.289 18.1711C231.879 18.1711 234.461 20.6811 234.461 25.2707V36.7447H231.234V35.0235C231.234 34.1988 231.305 33.5894 231.305 33.5894H231.234C231.234 33.5894 229.764 37.1747 225.425 37.1747C222.305 37.1747 219.258 35.2743 219.258 31.653C219.258 25.6651 227.146 25.4141 230.194 25.4141ZM226.178 34.3782C229.118 34.3782 231.018 31.2946 231.018 28.6052V28.0316H230.122C227.505 28.0316 222.771 28.2108 222.771 31.4736C222.771 32.9439 223.919 34.3782 226.178 34.3782Z" fill="#002F87"/>
<path d="M239.251 18.6013H242.621V21.7566C242.621 22.5098 242.55 23.1193 242.55 23.1193H242.621C243.446 20.4659 245.562 18.3863 248.358 18.3863C248.824 18.3863 249.255 18.458 249.255 18.458V21.9C249.255 21.9 248.789 21.7927 248.251 21.7927C246.028 21.7927 243.984 23.3703 243.159 26.0595C242.836 27.0994 242.729 28.2108 242.729 29.3223V36.7447H239.251L239.251 18.6013Z" fill="#002F87"/>
<path d="M251.997 11.4303H255.511V14.98H251.997V11.4303ZM252.033 18.6013H255.511V36.7447H252.033V18.6013Z" fill="#002F87"/>
<path d="M260.405 18.6013H263.776V21.0038C263.776 21.7208 263.704 22.3304 263.704 22.3304H263.776C264.493 20.7528 266.644 18.1711 270.589 18.1711C274.855 18.1711 276.827 20.5017 276.827 25.1272V36.7447H273.349V25.916C273.349 23.3703 272.812 21.3622 269.907 21.3622C267.146 21.3622 264.923 23.1909 264.17 25.8084C263.955 26.5256 263.883 27.3502 263.883 28.2466V36.7447H260.405L260.405 18.6013Z" fill="#002F87"/>
<path d="M289.517 18.1711C294.644 18.1711 297.369 21.9718 297.369 26.669C297.369 27.1351 297.261 28.1749 297.261 28.1749H284.03C284.21 32.1551 287.042 34.1628 290.27 34.1628C293.389 34.1628 295.648 32.0474 295.648 32.0474L297.082 34.5933C297.082 34.5933 294.393 37.1747 290.054 37.1747C284.353 37.1747 280.445 33.0514 280.445 27.673C280.445 21.9 284.353 18.1711 289.517 18.1711ZM293.819 25.5574C293.712 22.4379 291.775 20.932 289.445 20.932C286.791 20.932 284.64 22.5815 284.138 25.5574H293.819Z" fill="#002F87"/>
<path d="M168.383 9.13098H166.933V39.0477H168.383V9.13098Z" fill="#002F87"/>
<path d="M39.6776 9.13098H63.6353V17.7079H50.6173V20.8309H58.8175L58.7952 28.5953H50.6173V39.0981H39.6776V9.13098Z" fill="#002F87"/>
<path d="M78.0992 9.14923V31.9693H89.9311V39.0566H67.5032V9.14923H78.0992Z" fill="#002F87"/>
<path d="M105.372 9.14923H94.7778V39.0566H105.372V9.14923Z" fill="#002F87"/>
<path d="M135.057 26.0383C135.911 25.7183 136.706 25.2846 137.441 24.7441C138.433 24.0031 139.22 23.0626 139.796 21.9295C140.374 20.7951 140.661 19.6156 140.661 18.392C140.661 17.2868 140.415 16.2094 139.927 15.1553C139.438 14.1012 138.745 13.1648 137.847 12.3396C136.631 11.2159 135.17 10.404 133.465 9.90065C131.757 9.39863 129.649 9.1492 127.136 9.1492H110.618V39.0565H121.213V27.6275L131.407 39.0565H144.618L131.778 26.8514C133.11 26.6319 134.203 26.3601 135.057 26.0383ZM121.213 15.1169H123.205C125.458 15.1169 127.076 15.456 128.063 16.1326C128.545 16.4523 128.934 16.8667 129.225 17.3753C129.514 17.8821 129.663 18.3652 129.663 18.8229C129.663 19.3006 129.512 19.7941 129.21 20.3028C128.909 20.8117 128.526 21.2259 128.063 21.544C127.076 22.2202 125.458 22.5596 123.205 22.5596L121.213 22.5489L121.213 15.1169Z" fill="#002F87"/>
<path d="M8.12436 24.9995L16.8757 16.249L25.6253 24.9995L16.8757 33.7497L8.12436 24.9995ZM0 16.8765L8.12436 24.9995L0 33.1245L16.8757 50L33.7503 33.1245L25.6253 24.9995L33.7503 16.8742L16.8757 0L0 16.8765Z" fill="#002F87"/>
<path d="M142.504 11.3992H143.082C143.359 11.3992 143.486 11.1933 143.486 10.9472C143.486 10.7479 143.384 10.5242 143.082 10.5242H142.504V11.3992ZM142.504 13.0026H142.051V10.2141H143.159C143.693 10.2141 143.939 10.5608 143.939 10.9097C143.939 11.2383 143.687 11.488 143.332 11.5526V11.567C143.679 11.6045 143.802 11.7142 143.822 12.276C143.829 12.3975 143.866 12.8294 143.932 13.0025H143.486C143.378 12.8108 143.403 12.4473 143.373 12.0757C143.34 11.7787 143.082 11.7595 142.953 11.7595H142.504V13.0026ZM140.89 11.6045C140.89 12.7503 141.814 13.6675 142.958 13.6675C144.105 13.6675 145.015 12.7503 145.015 11.6045C145.015 10.4635 144.105 9.54512 142.958 9.54512C141.814 9.54512 140.89 10.4635 140.89 11.6045ZM145.375 11.598C145.375 12.9507 144.294 14.0268 142.958 14.0268C141.619 14.0268 140.53 12.9507 140.53 11.598C140.53 10.2594 141.619 9.18201 142.958 9.18201C144.294 9.18201 145.375 10.2594 145.375 11.598Z" fill="#002F87"/>
</g>
<defs>
<clipPath id="clip0_12241_489">
<rect width="297.369" height="50" fill="white"/>
</clipPath>
</defs>
</svg>
