<?xml version="1.0" encoding="UTF-8" standalone="no"?>
<!-- Created with Inkscape (http://www.inkscape.org/) -->

<svg
   width="323.8172mm"
   height="85.052887mm"
   viewBox="0 0 323.8172 85.052887"
   version="1.1"
   id="svg874"
   inkscape:version="1.2.2 (b0a8486541, 2022-12-01)"
   sodipodi:docname="jotron.svg"
   xmlns:inkscape="http://www.inkscape.org/namespaces/inkscape"
   xmlns:sodipodi="http://sodipodi.sourceforge.net/DTD/sodipodi-0.dtd"
   xmlns="http://www.w3.org/2000/svg"
   xmlns:svg="http://www.w3.org/2000/svg">
  <sodipodi:namedview
     id="namedview876"
     pagecolor="#505050"
     bordercolor="#eeeeee"
     borderopacity="1"
     inkscape:showpageshadow="0"
     inkscape:pageopacity="0"
     inkscape:pagecheckerboard="0"
     inkscape:deskcolor="#505050"
     inkscape:document-units="mm"
     showgrid="false"
     inkscape:zoom="0.77593294"
     inkscape:cx="824.81355"
     inkscape:cy="-135.32097"
     inkscape:window-width="1876"
     inkscape:window-height="1052"
     inkscape:window-x="0"
     inkscape:window-y="0"
     inkscape:window-maximized="1"
     inkscape:current-layer="layer1" />
  <defs
     id="defs871">
    <linearGradient
       x1="0"
       y1="0"
       x2="1"
       y2="0"
       gradientUnits="userSpaceOnUse"
       gradientTransform="matrix(-27.306405,-45.522086,47.296082,-26.282189,-92.67377,91.82241)"
       spreadMethod="pad"
       id="linearGradient608">
      <stop
         style="stop-opacity:1;stop-color:#0a2345"
         offset="0"
         id="stop594" />
      <stop
         style="stop-opacity:1;stop-color:#0a2345"
         offset="0.16989956"
         id="stop596" />
      <stop
         style="stop-opacity:1;stop-color:#254aa5"
         offset="0.35"
         id="stop598" />
      <stop
         style="stop-opacity:1;stop-color:#254aa5"
         offset="0.40500289"
         id="stop600" />
      <stop
         style="stop-opacity:1;stop-color:#008dc6"
         offset="0.75"
         id="stop602" />
      <stop
         style="stop-opacity:1;stop-color:#67bbd7"
         offset="0.96562319"
         id="stop604" />
      <stop
         style="stop-opacity:1;stop-color:#67bbd7"
         offset="1"
         id="stop606" />
    </linearGradient>
  </defs>
  <g
     inkscape:label="Lag 1"
     inkscape:groupmode="layer"
     id="layer1"
     transform="translate(139.40342,-32.831753)">
    <path
       d="m 178.071,117.41278 c -0.53878,0 -1.02479,-0.0247 -1.4865,-0.0762 l -0.16871,-0.0197 c -2.30473,-0.30138 -3.58572,-1.36792 -4.91288,-2.99179 -0.0687,-0.0842 -0.134,-0.16573 -0.19891,-0.24726 l -0.86371,-1.0936 c -0.21489,-0.27499 -0.42387,-0.54062 -0.63425,-0.80358 l -3.1063,-3.94006 C 162.41,102.7455 156.89135,95.746157 155.2167,93.644817 V 117.27879 H 143.93327 V 75.587126 l 0.66028,-0.003 c 2.20996,-0.01236 5.86337,-0.02406 6.03486,-0.02406 2.87545,0 4.42443,0.651886 6.13762,2.584491 0.41242,0.501528 0.82691,1.01141 1.25321,1.540002 l 0.23989,0.30339 c 0.21419,0.274988 0.42352,0.540955 0.63389,0.804584 l 3.59648,4.560866 c 3.03861,3.915997 6.10395,7.963307 8.34203,10.918682 0.89356,1.180145 1.68715,2.227641 2.26689,2.986783 V 75.559393 h 11.31537 v 41.827997 l -0.64605,0.003 c -2.11658,0.0117 -5.53427,0.0224 -5.69674,0.0224"
       style="fill:#0a2345;fill-opacity:1;fill-rule:nonzero;stroke:none;stroke-width:0.340578"
       id="path580"
       inkscape:label="N" />
    <path
       d="m 115.63291,85.751414 c -6.12165,0 -11.10187,4.793755 -11.10187,10.685459 0,5.892037 4.98022,10.685797 11.10187,10.685797 6.122,0 11.10222,-4.79376 11.10222,-10.685797 0,-5.891704 -4.98022,-10.685459 -11.10222,-10.685459 m 0,32.133226 c -12.28704,0 -22.283585,-9.62126 -22.283585,-21.447767 0,-11.826177 9.996545,-21.447768 22.283585,-21.447768 12.28739,0 22.28359,9.621591 22.28359,21.447768 0,11.826507 -9.9962,21.447767 -22.28359,21.447767"
       style="fill:#0a2345;fill-opacity:1;fill-rule:nonzero;stroke:none;stroke-width:0.340578"
       id="path568"
       inkscape:label="O2" />
    <path
       d="m 61.66151,96.426915 c 0.952234,0.0037 5.616894,0 8.707227,0 3.089986,0 5.550935,-2.369646 5.550935,-5.336381 0,-2.966735 -2.534545,-5.306644 -5.551629,-5.306644 -2.799421,0 -5.639459,-0.001 -5.639459,-0.001 h -2.653271 c -0.170103,0 -0.373186,0.04644 -0.373186,0.268306 v 0.786875 c -0.05034,2.831078 -0.04652,4.688838 -0.04235,7.64154 z m 21.048424,20.986005 c -3.061519,0 -4.65737,-0.75046 -6.568086,-3.08803 -0.06978,-0.0855 -4.68653,-5.93046 -4.967722,-6.28698 -0.32771,-0.41565 -1.366037,-1.27002 -3.016737,-1.36759 -1.77255,-0.10458 -2.765053,-0.0515 -4.437971,-0.0478 -0.346456,0.001 -1.678125,0.002 -2.0711,0.002 v 10.65505 H 50.360028 V 75.559864 l 19.547693,0.005 c 0.284663,0.0037 0.569327,0.0077 0.843923,0.01002 6.512542,0.05847 11.35772,2.460863 14.400493,7.14068 4.225168,6.498149 2.574815,15.030812 -3.838442,19.847956 -0.207596,0.1557 -0.417622,0.30806 -0.643269,0.46945 0.219746,0.28267 3.530519,4.41117 5.14824,6.46139 1.785395,2.26306 3.631888,4.60297 5.566904,7.02741 l 0.112824,0.14101 v 0.17809 c 0,0.52024 -1.341389,0.52458 -1.736099,0.52792 l -2.751514,0.0227 c -2.052006,0.011 -4.143588,0.0214 -4.300847,0.0214"
       style="fill:#0a2345;fill-opacity:1;fill-rule:nonzero;stroke:none;stroke-width:0.340578"
       id="path574"
       inkscape:label="R" />
    <path
       d="m 4.1682879,75.582985 c 3.457271,2.708119 6.2303081,6.195094 8.0285481,10.180924 h 9.321336 l 0.001,31.514751 H 32.803685 V 85.763909 H 44.211742 V 75.582985 Z"
       style="fill:#0a2345;fill-opacity:1;fill-rule:nonzero;stroke:none;stroke-width:0.340578"
       id="path556"
       inkscape:label="T" />
    <path
       d="m -13.957096,85.751414 c -6.121651,0 -11.10187,4.793755 -11.10187,10.685459 0,5.892037 4.980219,10.685797 11.10187,10.685797 6.1219977,0 11.1022176,-4.79376 11.1022176,-10.685797 0,-5.891704 -4.9802199,-10.685459 -11.1022176,-10.685459 m 0,32.133226 c -12.287042,0 -22.283585,-9.62126 -22.283585,-21.447767 0,-11.826177 9.996543,-21.447768 22.283585,-21.447768 12.2873891,0 22.2835855,9.621591 22.2835855,21.447768 0,11.826507 -9.9961964,21.447767 -22.2835855,21.447767"
       style="fill:#0a2345;fill-opacity:1;fill-rule:nonzero;stroke:none;stroke-width:0.340578"
       id="path562"
       inkscape:label="O1" />
    <path
       d="m -42.939747,76.054142 c -0.304451,-0.292697 -0.710617,-0.460096 -1.158094,-0.471457 h -9.632383 l -0.008,20.85402 c 0,5.865645 -4.956267,10.658395 -11.045979,10.684455 -0.05763,0 -0.115254,-0.002 -0.172534,-0.004 l -0.08783,-0.003 c -0.115601,-0.002 -0.230161,-0.007 -0.33986,-0.012 -3.296193,-0.18444 -6.187956,-1.7602 -8.089299,-4.10746 h -0.0069 c -0.1767,-0.2242 -0.331529,-0.42 -0.458933,-0.58105 -0.353052,-0.43871 -0.89669,-0.72673 -1.517742,-0.72673 -0.644658,0 -1.207736,0.3084 -1.559052,0.77485 l -5.435335,6.89108 c 4.066521,5.17166 10.507549,8.52231 17.748413,8.53033 0.228425,0 0.455461,-0.008 0.682498,-0.015 0.124279,-0.003 0.249254,-0.004 0.372839,-0.009 0.331182,-0.015 0.659933,-0.0378 0.986949,-0.0665 0.02048,-0.002 0.04131,-0.003 0.06179,-0.005 0.338818,-0.0304 0.675554,-0.0692 1.00986,-0.11393 0.01076,-0.001 0.02118,-0.003 0.03159,-0.004 0.333611,-0.0454 0.664793,-0.0982 0.993544,-0.15771 0.01319,-0.003 0.02604,-0.005 0.03888,-0.007 0.322156,-0.0588 0.641534,-0.12463 0.958482,-0.1968 0.02222,-0.005 0.04478,-0.01 0.067,-0.0147 0.307228,-0.0708 0.612026,-0.14835 0.914394,-0.23122 0.03333,-0.009 0.067,-0.0177 0.100326,-0.0274 0.290912,-0.0808 0.5787,-0.16773 0.864405,-0.25961 0.04721,-0.015 0.09373,-0.0304 0.140596,-0.0458 0.271818,-0.0892 0.541554,-0.18377 0.80886,-0.28267 0.06179,-0.0231 0.123239,-0.0471 0.185031,-0.0705 0.251684,-0.0959 0.501286,-0.19547 0.748804,-0.30005 0.07741,-0.0324 0.154135,-0.0672 0.231549,-0.10091 0.230508,-0.10024 0.459974,-0.20315 0.686664,-0.31107 0.09304,-0.0444 0.184684,-0.0912 0.276679,-0.13633 0.210026,-0.10358 0.419357,-0.20783 0.625217,-0.31776 0.107617,-0.0571 0.212456,-0.11761 0.319032,-0.17675 0.189197,-0.10425 0.378394,-0.20883 0.564119,-0.31876 0.119767,-0.0708 0.236757,-0.14601 0.354788,-0.21885 0.170451,-0.10559 0.34229,-0.20884 0.509617,-0.31843 0.119072,-0.0785 0.23502,-0.16138 0.352704,-0.24191 0.671737,-0.45843 1.317783,-0.94993 1.931545,-1.47652 0.03333,-0.0287 0.06804,-0.0558 0.101715,-0.0849 0.232938,-0.20214 0.460669,-0.40964 0.684581,-0.62114 0.01354,-0.013 0.02777,-0.0251 0.04131,-0.0384 3.557598,-3.37972 5.940785,-7.92388 6.488936,-13.059781 0.02499,-0.23222 0.04166,-0.466445 0.05797,-0.700001 l 0.01458,-0.183437 c 0.0056,-0.06215 0.01111,-0.12463 0.01423,-0.187113 0.0184,-0.326778 0.02638,-0.655896 0.02985,-1.018092 l 0.0031,-19.342084 c 0.0073,-0.442722 -0.166286,-0.858045 -0.490524,-1.17079"
       style="fill:#0a2345;fill-opacity:1;fill-rule:nonzero;stroke:none;stroke-width:0.340578"
       id="path550"
       inkscape:label="J" />
    <path
       d="m -93.014236,32.833873 c -0.04657,0.0046 -0.09172,0.02328 -0.132645,0.05503 v 0 c -0.140052,0.110772 -0.09737,0.294217 0.01905,0.459317 v 0 c 0.280459,0.396169 2.394303,2.721327 1.675695,4.402313 v 0 c -0.05927,0.148873 -0.14217,0.28822 -0.249061,0.415925 v 0 c -0.006,0.0081 -0.01058,0.01552 -0.01658,0.02293 v 0 c -0.0021,0.0028 -0.0056,0.0039 -0.0074,0.0067 v 0 c -0.754592,0.865716 -2.578806,1.201914 -5.025672,0.767997 v 0 c -1.438628,-0.256117 -2.885722,-0.744361 -4.190291,-1.36772 v 0 c -0.0663,-0.03104 -0.11571,-0.05397 -0.11571,-0.05397 v 0 c -0.34855,-0.174625 -1.3261,-0.701323 -1.69757,-0.701323 v 0 c -0.49848,0 -1.0093,0.574323 -1.3462,1.000831 v 0 c -0.0138,0.01764 -0.0307,0.03634 -0.0469,0.05468 v 0 c -0.1076,0.136173 -0.21731,0.275167 -0.32456,0.410986 v 0 c -0.85019,1.077737 -2.14629,2.701925 -3.25754,4.093281 v 0 c 3.52248,2.046464 7.779449,3.677708 11.995496,4.426302 v 0 c 8.664575,1.539875 13.864872,-1.22308 11.612033,-6.174669 v 0 c -0.623005,-1.368777 -1.749425,-2.75978 -3.23603,-4.090105 v 0 c -1.597378,-1.325033 -3.319992,-2.513894 -5.146322,-3.550003 v 0 c -0.157339,-0.0896 -0.33267,-0.180622 -0.476603,-0.180622 v 0 c -0.01129,0 -0.02222,7.06e-4 -0.03316,0.0021 M -123.8304,52.721346 c 6.94513,5.295547 16.93016,9.7663 26.785002,11.51643 v 0 c 13.483872,2.398183 22.223941,-1.093611 21.447477,-7.919861 v 0 c -0.191205,-1.023055 -0.432153,-2.030236 -0.716844,-3.02013 v 0 c -0.03528,-0.122414 -0.06985,-0.2413 -0.103011,-0.354894 v 0 c -0.497064,-1.658056 -1.122892,-3.264959 -1.864431,-4.810125 v 0 c -0.08643,-0.170039 -0.174272,-0.340078 -0.262819,-0.507295 v 0 c -0.02575,-0.05009 -0.04833,-0.0956 -0.07197,-0.142522 v 0 c -0.04798,-0.09525 -0.15875,-0.280105 -0.273756,-0.231422 v 0 c -0.04445,0.01834 -0.1016,0.07408 -0.07267,0.182033 v 0 c 0.0049,0.01835 0.01411,0.05715 0.02505,0.108656 v 0 c 1.510948,6.01345 -5.600346,9.199386 -16.897701,7.193138 v 0 c -8.127297,-1.44533 -16.366777,-5.214055 -21.907857,-9.629069 v 0 z m -15.57302,9.78535 c 7.26157,8.446205 22.32836,16.384057 37.13197,19.014015 v 0 c 11.891788,2.112786 20.595874,0.265642 23.653751,-4.234744 v 0 c 1.495425,-2.941108 2.560461,-6.119988 3.121378,-9.458677 v 0 c 0.02117,-0.172156 -0.0021,-0.230011 -0.09278,-0.259997 v 0 c -0.05997,-0.01976 -0.142875,0.02187 -0.193323,0.113947 v 0 c -0.01905,0.03457 -0.03739,0.06879 -0.05644,0.102658 v 0 c -0.04516,0.08678 -0.0949,0.171803 -0.144639,0.257175 v 0 c -0.02858,0.05115 -0.06103,0.10795 -0.09843,0.17392 v 0 c -0.02258,0.03951 -0.05009,0.08008 -0.07867,0.121708 v 0 c -2.882195,4.411133 -11.301942,6.234994 -22.846947,4.185003 v 0 c -13.57139,-2.411216 -27.37205,-9.451602 -34.70242,-17.137924 v 0 z m 0.11218,19.379846 c 4.77238,6.580363 11.90237,11.464219 20.20182,13.507155 v 0 c 0.0762,0.0187 0.1524,0.03598 0.22895,0.05362 v 0 c 0.2025,0.04868 0.4064,0.09454 0.61066,0.140053 v 0 c 0.21484,0.04657 0.43039,0.09278 0.64629,0.135819 v 0 c 0.0374,0.0078 0.0741,0.01446 0.11112,0.02152 v 0 c 2.28494,0.447675 4.6482,0.68333 7.06826,0.68333 v 0 c 8.61977,0 16.526578,-2.984147 22.671261,-7.931502 v 0 c 0.05891,-0.05856 0.106539,-0.131586 0.06456,-0.204259 v 0 c -0.02046,-0.03598 -0.0702,-0.06138 -0.12947,-0.05609 v 0 c -0.02469,0.0018 -0.06809,0.01482 -0.124883,0.03422 v 0 c -2.39395,0.881239 -5.361869,1.338792 -8.755591,1.338792 v 0 c -2.572103,3.53e-4 -5.384447,-0.259645 -8.368947,-0.790928 v 0 c -0.10336,-0.01834 -0.20638,-0.04092 -0.30974,-0.05997 v 0 c -0.21837,-0.03669 -0.43533,-0.07091 -0.65511,-0.110067 v 0 c -10.25243,-1.820686 -20.95711,-6.485466 -28.67977,-12.490096 v 0 z"
       style="fill:url(#linearGradient608);stroke:none;stroke-width:0.352778"
       id="path610"
       inkscape:label="globe" />
  </g>
</svg>
