<?xml version="1.0"?>
<svg xmlns="http://www.w3.org/2000/svg" fill="none" viewBox="0 0 599 140">
    <path d="M144.52 82.2c0-4.21-3.94-6.32-11.81-6.32H96.13c-2 0-3.02-.94-3.02-2.82 0-2.07 1.01-3.1 3.02-3.1h36.74c12.59 0 18.88 4.07 18.88 12.23v24.2c0 8.67-6.35 13-19.04 13H95.49c-1.58 0-2.38-.83-2.38-2.5V86.16c0-2.25 1.23-3.37 3.67-3.37 2.48 0 3.72 1.12 3.72 3.37v27.3h32.04c7.99 0 11.98-2.35 11.98-7.07V82.2zM210.76 70.83c.32-.33.66-.57 1.02-.71a3.42 3.42 0 012.65.1c.46.19.88.46 1.24.82.36.33.63.71.8 1.15.22.4.33.81.33 1.25 0 .54-.25 1.07-.76 1.57L199.22 92.1c-.65.65-1.43.98-2.32.98-.94 0-1.78-.33-2.54-.98a3.05 3.05 0 01-1.08-2.34c0-.8.33-1.52.97-2.17l16.5-16.75zM189.83 93.4c.8.8 1.47 1.72 2.05 2.77.61 1.01.92 2 .92 2.94l-.06 17.56c-.18 2.03-1.36 3.05-3.56 3.05-2.44 0-3.67-1.03-3.67-3.1V98.5L162.27 75c-.65-.65-.98-1.32-.98-2 0-.84.38-1.57 1.14-2.18a3.78 3.78 0 013.77-.77c.44.11.83.35 1.2.71l22.43 22.63zM226.56 83.23c0-9.07 8.04-13.6 24.12-13.6h11c15.21 0 22.82 4.53 22.82 13.6v33.06c0 2.03-1.2 3.05-3.62 3.05-2.48 0-3.72-1.02-3.72-3.05V83.82c0-5.5-4.8-8.26-14.4-8.26h-13.27c-10.47 0-15.7 2.73-15.7 8.21v32.52c0 2.03-1.24 3.05-3.72 3.05-2.34 0-3.5-1.02-3.5-3.05V83.23zM328.08 77.4l-26.92 40.8c-.32.54-.72.92-1.18 1.14a4.21 4.21 0 01-4.15-.54 2.9 2.9 0 01-1.2-2.4c0-.25.04-.54.11-.87.08-.33.24-.65.49-.98l-.05.06 28.15-42.48a5.85 5.85 0 012.05-1.96 5.16 5.16 0 015.07-.05c.87.43 1.6 1.1 2.22 2.01l28.2 42.37h-.05c.5.72.76 1.38.76 1.95 0 .95-.4 1.7-1.19 2.29a3.98 3.98 0 01-4.15.49 2.95 2.95 0 01-1.3-1.2v.06L328.08 77.4zM408.24 81.43c0-2.07 1.2-3.1 3.6-3.1 2.46 0 3.68 1.03 3.68 3.1v34.54c0 2.42-1.22 3.64-3.67 3.64-2.41 0-3.62-1.22-3.62-3.64V81.43zm-12.9-5.87c-10.46 0-15.7 2.73-15.7 8.21v32.52c0 2.03-1.23 3.05-3.71 3.05-2.34 0-3.51-1.02-3.51-3.05V83.23c0-9.07 8.04-13.6 24.11-13.6h30.64c15.21 0 22.82 4.53 22.82 13.6v33.06c0 2.03-1.2 3.05-3.62 3.05-2.48 0-3.72-1.02-3.72-3.05V83.82c0-5.5-4.8-8.26-14.4-8.26h-32.9zM472.15 116.62c0 2-1.24 2.99-3.72 2.99-2.44 0-3.67-1-3.67-3V72.68c0-2.03 1.28-3.04 3.84-3.04 2.37 0 3.55 1.01 3.55 3.05v43.94zM505.38 75.88c-8.16 0-12.24 1.9-12.24 5.71v25.24c0 4.42 4.48 6.63 13.43 6.63h26.92c1.8 0 2.7.98 2.7 2.94 0 2-.9 3-2.7 3h-27.9c-13.12 0-19.68-4.14-19.68-12.4V81.6c0-7.76 6.44-11.64 19.31-11.64h10.2c1.8 0 2.7.97 2.7 2.93 0 2-.9 3-2.7 3h-10.04zM598.6 109.6c0 6.53-5.24 9.8-15.7 9.8h-32.48c-1.83 0-2.75-1.02-2.75-3.05 0-1.92.92-2.89 2.75-2.89h33.4c4.95 0 7.44-1.95 7.44-5.87v-5.71c0-3.26-3.13-4.9-9.39-4.9h-19.96c-11 0-16.5-2.93-16.5-8.8v-8.16c0-6.71 4.73-10.06 14.18-10.06h1.24c1.84 0 2.75 1.01 2.75 3.04 0 1.92-.91 2.88-2.75 2.88h-2.37c-3.85 0-5.77 1.54-5.77 4.63v6.96c0 2.46 2.66 3.7 7.98 3.7h20.28c11.76 0 17.64 3.33 17.64 10v8.43zM128.92 11.98c0-2.07 1.2-3.1 3.61-3.1 2.45 0 3.67 1.03 3.67 3.1v34.57c0 2.43-1.22 3.65-3.67 3.65-2.4 0-3.61-1.22-3.61-3.65V11.98zM116.03 6.1c-10.46 0-15.69 2.74-15.69 8.22v32.56c0 2.03-1.24 3.05-3.72 3.05-2.34 0-3.5-1.02-3.5-3.05v-33.1c0-9.08 8.03-13.62 24.1-13.62h30.63c15.2 0 22.8 4.54 22.8 13.61v33.1c0 2.04-1.2 3.06-3.6 3.06-2.49 0-3.73-1.02-3.73-3.05v-32.5c0-5.52-4.8-8.28-14.4-8.28h-32.89zM214.87 7.95l-26.9 40.83c-.33.55-.72.93-1.2 1.15a4.2 4.2 0 01-4.15-.54 2.9 2.9 0 01-1.18-2.4c0-.26.04-.55.1-.88.08-.32.24-.65.5-.98l-.06.06 28.15-42.52A5.85 5.85 0 01212.18.7a5.15 5.15 0 015.06-.06c.87.44 1.6 1.11 2.22 2.02l28.2 42.41h-.06c.5.73.76 1.38.76 1.96 0 .94-.4 1.7-1.19 2.29a3.98 3.98 0 01-4.15.49 2.95 2.95 0 01-1.3-1.2v.05L214.88 7.95zM302.39 12.8c0-4.25-3.97-6.38-11.92-6.38h-35.8c-2.05 0-3.07-.94-3.07-2.83 0-2.07 1.02-3.1 3.07-3.1h34.67c13.52 0 20.28 4.25 20.28 12.74v5.34c0 7.84-6.22 11.76-18.66 11.76H272.3L304 44.05c.58.25 1 .61 1.25 1.08.25.48.38.97.38 1.47 0 .88-.31 1.71-.92 2.5a2.65 2.65 0 01-3.45.83l-40.5-18.84a2.86 2.86 0 01-1.4-1.2 3.36 3.36 0 01-.49-1.74c0-.91.35-1.74 1.03-2.5.68-.77 1.65-1.15 2.91-1.15h28.85c7.15 0 10.73-1.76 10.73-5.28v-6.43zM329.78 47.2c0 2-1.24 3-3.72 3-2.44 0-3.66-1-3.66-3V3.21c0-2.03 1.27-3.05 3.82-3.05 2.38 0 3.56 1.02 3.56 3.05v44zM343.43 13.77c0-9.07 8.03-13.6 24.1-13.6h11c15.2 0 22.8 4.53 22.8 13.6v33.1c0 2.04-1.2 3.06-3.6 3.06-2.48 0-3.72-1.02-3.72-3.05v-32.5c0-5.52-4.8-8.28-14.4-8.28h-13.27c-10.46 0-15.69 2.74-15.69 8.22v32.56c0 2.03-1.24 3.05-3.72 3.05-2.34 0-3.5-1.02-3.5-3.05v-33.1zM465.88 22.54c1.7 0 2.54 1 2.54 3 0 1.92-.85 2.88-2.54 2.88h-37.04c-2.16 0-3.23-.96-3.23-2.89 0-2 1.07-2.99 3.23-2.99h37.05zm-43.02 15.19c0 4.21 3.97 6.32 11.91 6.32h31.12c1.76 0 2.64 1 2.64 2.99 0 1.96-.88 2.94-2.64 2.94H434.5c-12.69 0-19.03-3.97-19.03-11.92V12.74c0-8.17 6.56-12.25 19.68-12.25h8.57c1.7 0 2.54 1.02 2.54 3.05 0 1.92-.85 2.88-2.54 2.88h-5.82c-10.03 0-15.04 2.11-15.04 6.32v24.99z" fill="#EDF2F7"/>
    <path fill-rule="evenodd" clip-rule="evenodd" d="M287.71 137.67l39.98-60.2 26.9 40.48v-.05c.33.54.76.93 1.3 1.19a3.9 3.9 0 004.16-.49 2.69 2.69 0 001.19-2.27c0-.58-.26-1.23-.76-1.95h.05l-28.25-42.16a5.84 5.84 0 00-4.7-2.65c-.9 0-1.76.24-2.6.7a5.86 5.86 0 00-2.04 1.95l-40.24 60.4H3.26a3.26 3.26 0 100 6.52h281.55c.12 0 .25 0 .38-.02.5-.03.94-.13 1.33-.32.47-.21.87-.6 1.2-1.13z" fill="#00BEFF"/>
</svg>
