<?xml version="1.0" encoding="UTF-8" standalone="no"?>
<!-- Created with Inkscape (http://www.inkscape.org/) -->

<svg
   version="1.1"
   id="svg2"
   width="264"
   height="94.666664"
   viewBox="0 0 264 94.666664"
   sodipodi:docname="olex.svg"
   inkscape:version="1.2.2 (b0a8486541, 2022-12-01)"
   xmlns:inkscape="http://www.inkscape.org/namespaces/inkscape"
   xmlns:sodipodi="http://sodipodi.sourceforge.net/DTD/sodipodi-0.dtd"
   xmlns="http://www.w3.org/2000/svg"
   xmlns:svg="http://www.w3.org/2000/svg">
  <defs
     id="defs6" />
  <sodipodi:namedview
     id="namedview4"
     pagecolor="#505050"
     bordercolor="#eeeeee"
     borderopacity="1"
     inkscape:showpageshadow="0"
     inkscape:pageopacity="0"
     inkscape:pagecheckerboard="0"
     inkscape:deskcolor="#505050"
     showgrid="false"
     inkscape:zoom="5.219697"
     inkscape:cx="113.41655"
     inkscape:cy="47.416546"
     inkscape:window-width="1876"
     inkscape:window-height="1052"
     inkscape:window-x="0"
     inkscape:window-y="0"
     inkscape:window-maximized="1"
     inkscape:current-layer="g10">
    <inkscape:page
       x="0"
       y="0"
       id="page8"
       width="264"
       height="94.666667" />
  </sodipodi:namedview>
  <g
     id="g10"
     inkscape:groupmode="layer"
     inkscape:label="Page 1"
     transform="matrix(1.3333333,0,0,-1.3333333,0,94.666667)">
    <g
       id="g12"
       transform="scale(0.1)">
      <path
         d="m 300.531,435.414 c 0,-78.969 10.426,-137.328 31.282,-175.195 20.851,-37.989 52.847,-56.922 96.226,-56.922 42.781,0 74.774,19.172 95.988,57.523 21.211,38.469 31.758,96.582 31.758,174.594 0,78.852 -10.426,137.336 -31.398,175.32 -20.973,37.993 -53.09,57.047 -96.348,57.047 -43.141,0 -75.137,-19.179 -96.113,-57.406 -20.969,-38.227 -31.395,-96.582 -31.395,-174.961 z m -143.562,0 v 0 c 0,38.59 6.23,74.305 18.574,107.258 12.465,32.836 30.68,61.832 54.762,86.879 25.289,26.363 54.285,46.137 86.883,59.082 32.714,13.058 69.625,19.531 110.851,19.531 42.539,0 79.93,-6.473 112.285,-19.531 32.36,-12.945 61.477,-33.074 87.364,-60.52 23.488,-24.566 41.339,-53.207 53.566,-86.043 12.344,-32.715 18.453,-68.304 18.453,-106.656 0,-39.785 -5.633,-74.656 -16.894,-104.496 -11.149,-29.832 -29.122,-57.52 -53.688,-83.039 -26.605,-27.809 -56.926,-48.895 -90.719,-63.039 -33.797,-14.141 -70.582,-21.211 -110.367,-21.211 -40.504,0 -76.937,6.715 -109.41,20.133 -32.356,13.543 -62.078,34.394 -89.043,62.676 -25.281,25.765 -43.617,53.804 -55.246,84.003 -11.621,30.2 -17.371,65.188 -17.371,104.973 z M 797.734,636.98 v 0 c 0,11.145 -2.398,18.692 -7.195,22.411 -4.789,3.714 -15.215,5.632 -31.035,5.632 -1.918,0 -5.391,-0.121 -10.547,-0.359 -5.152,-0.238 -9.348,-0.363 -12.344,-0.363 v 35.113 l 173.766,8.75 V 239.25 c 0,-10.07 1.676,-17.02 5.031,-20.613 3.477,-3.594 9.945,-5.629 19.535,-6.114 l 28.762,-0.718 v -35.828 h -222.18 v 35.828 l 31.637,0.718 c 9.824,0.723 16.418,2.872 19.656,6.473 3.231,3.594 4.914,10.305 4.914,20.254 z M 1337.71,294.613 v 0 l 31.63,-15.101 c -11.25,-37.625 -30.91,-66.266 -59.19,-85.801 -28.17,-19.535 -64,-29.359 -107.61,-29.359 -59.68,0 -107.86,16.773 -144.41,50.211 -36.67,33.433 -55,77.289 -55,131.695 0,54.285 18.21,98.265 54.64,132.18 36.32,33.792 83.89,50.691 142.73,50.691 53.57,0 95.27,-15.461 124.99,-46.496 29.72,-31.039 44.58,-74.539 44.58,-130.5 v -9.469 h -241.6 v -4.914 c 0,-41.582 8.39,-72.973 25.17,-94.187 16.66,-21.211 41.59,-31.758 74.54,-31.758 24.08,0 45.3,6.949 63.63,20.851 18.22,13.903 33.56,34.633 45.9,61.957 z m -209.24,85.563 v 0 h 110.62 c 7.54,0 12.82,1.672 15.81,4.91 3,3.23 4.56,9.227 4.56,17.977 0,30.917 -4.67,53.441 -13.91,67.464 -9.22,14.02 -23.84,21.09 -43.74,21.09 -22.88,0 -40.38,-9.222 -52.49,-27.558 -11.98,-18.457 -18.93,-46.375 -20.85,-83.883 z m 484.51,138.047 v 0 -35.828 c -10.79,-0.485 -18.58,-1.918 -23.49,-4.434 -4.91,-2.398 -7.43,-6.113 -7.43,-11.031 0,-3.231 2.88,-8.266 8.51,-15.098 0.84,-1.195 1.56,-1.91 2.04,-2.394 l 39.66,-45.657 42.54,39.66 c 2.28,2.161 4.2,4.797 5.64,8.036 1.31,3.355 2.03,6.589 2.03,9.824 0,7.312 -3,12.582 -9.11,15.816 -6.11,3.238 -15.93,4.914 -29.47,4.914 h -5.28 v 36.192 H 1814.9 V 482.75 h -2.16 c -13.78,0 -26.72,-2.754 -38.82,-8.383 -11.99,-5.64 -25.41,-15.465 -40.15,-29.484 l -75.5,-71.301 120.08,-141.406 c 5.4,-6.594 11.15,-11.383 17.38,-14.383 6.23,-2.992 13.3,-4.547 21.21,-4.547 h 5.27 v -37.269 h -225.77 v 37.269 c 14.74,1.434 24.45,3.113 29,5.027 4.55,2.04 6.83,5.161 6.83,9.348 0,2.16 -0.48,4.192 -1.32,6.352 -0.96,2.039 -2.87,5.035 -5.63,8.746 l -45.3,54.773 -46.37,-46.742 c -2.4,-2.277 -4.2,-5.152 -5.64,-8.387 -1.44,-3.234 -2.04,-6.468 -2.04,-9.468 0,-6.594 3.72,-11.504 11.15,-14.739 7.55,-3.238 18.7,-4.91 33.43,-4.91 v -37.269 h -171.36 v 37.269 c 11.26,1.434 21.69,4.672 31.28,9.703 9.58,4.91 22.17,14.504 37.86,28.524 l 85.68,76.812 -110.96,130.258 c -7.91,8.867 -15.1,14.859 -21.57,18.098 -6.47,3.117 -13.9,4.672 -22.29,4.672 v 36.91 h 213.79"
         style="fill:#231f20;fill-opacity:1;fill-rule:evenodd;stroke:none"
         id="path14" />
      <path
         d="M 2.63281,93.3164 H 1977.8 V 8.95313 H 2.63281 V 93.3164"
         style="fill:#1f57ad;fill-opacity:1;fill-rule:evenodd;stroke:none"
         id="path16" />
    </g>
  </g>
</svg>
