<svg width="234" height="42" viewBox="0 0 234 42" fill="none" xmlns="http://www.w3.org/2000/svg">
<g clip-path="url(#clip0_3437_537)">
<path d="M162.687 16.5685H169.636C169.866 13.5943 169.447 11.7963 168.176 10.4444C166.905 9.09247 164.931 8.34892 161.714 8.34892H149.344L147.181 31.5205H154.13L155.725 14.4325H160.281C162.309 14.4325 162.836 14.9056 162.687 16.5685Z" fill="white"/>
<path d="M21.603 15.7176C23.6443 15.7176 24.3068 15.2309 24.4149 13.541L24.6447 11.1076C24.7934 9.40418 24.2797 8.93102 22.2384 8.93102H10.3687L9.73328 15.6905L21.603 15.7176ZM23.9823 2.53653C27.1998 2.53653 29.0925 3.14488 30.4309 4.63197C31.7692 6.11906 32.1613 7.97117 31.8639 11.2292L31.6611 13.4058C31.1339 18.9756 29.2142 21.3685 24.7258 22.058L30.8364 31.5213H22.725L17.2093 22.058H9.1114L8.23267 31.5213H1L3.7038 2.53653H23.9823Z" fill="white"/>
<path d="M119.075 10.4616C117.723 8.97449 115.83 8.36614 112.572 8.36614H107.8C106.781 8.25536 105.749 8.37792 104.785 8.72457C103.82 9.07121 102.946 9.63284 102.23 10.367C100.986 8.75819 99.6751 8.36614 95.2814 8.36614H77.1525L69.4872 21.9798L64.377 8.36614H56.8469L65.2557 29.6721L63.0521 33.6602C62.5249 34.62 61.7002 35.0121 60.1456 35.0121H54.738L54.1702 41.0956H60.0374C64.6879 41.0956 66.486 40.0141 69.0275 35.5799L83.4658 10.4616L81.5056 31.5377H88.4543L90.0496 14.4497H95.8357C97.8771 14.4497 98.4043 14.9364 98.2421 16.6263L96.8902 31.4972H103.744L105.096 16.6263C105.258 14.9364 105.867 14.4497 108.003 14.4497H111.004C113.127 14.4497 113.708 14.9364 113.492 16.6263L112.14 31.4972H119.088L120.44 17.0183C120.751 13.7602 120.359 11.8946 119.088 10.421" fill="white"/>
<path d="M172.029 8.36923H178.991L176.828 31.5408H169.865L172.029 8.36923Z" fill="white"/>
<path d="M197.026 16.5725C197.189 14.8826 196.661 14.3959 194.62 14.3959H187.969L186.373 31.4839H179.452L181.615 8.31235H196.094C199.311 8.31235 201.204 8.9207 202.542 10.4078C203.881 11.8949 204.273 13.747 203.975 17.0051L202.623 31.4839H195.674L197.026 16.5725Z" fill="white"/>
<path d="M223.361 16.1967C223.523 14.4528 223.05 13.9796 220.968 13.9796H215.75C213.708 13.9796 213.046 14.4528 212.938 16.1967L212.803 17.6297H223.226L223.361 16.1967ZM229.215 24.7137C228.241 29.54 225.538 31.5408 219.927 31.5408H213.546C210.329 31.5408 208.423 30.9324 207.084 29.4589C205.746 27.9853 205.354 26.1467 205.665 22.8075L206.205 17.0619C206.503 13.7633 207.246 11.8977 208.909 10.4647C210.572 9.03166 212.546 8.36923 215.763 8.36923H222.144C225.362 8.36923 227.268 8.97759 228.606 10.4106C229.945 11.8436 230.35 13.6281 230.026 17.0619L229.472 22.2397H212.37L212.235 23.6727C212.073 25.4167 212.586 25.8898 214.628 25.8898H219.887C221.563 25.8898 222.266 25.633 222.59 24.7407L229.215 24.7137Z" fill="white"/>
<path d="M48.9526 25.8628C48.9526 25.8628 48.3983 25.8628 46.357 25.8628H41.1386C39.0432 25.8628 38.516 25.3897 38.7323 23.6457C38.7893 23.2559 38.9818 22.8986 39.2759 22.6365C39.5701 22.3745 39.9472 22.2244 40.341 22.2127H49.3041L48.9526 25.8628ZM55.0767 10.5188C53.7248 9.04518 51.8457 8.36923 48.6282 8.36923H42.815C37.2046 8.36923 34.5008 10.4376 33.5274 15.2639L40.2058 15.2234C40.4897 14.3311 41.1792 13.9661 42.9096 13.9661H47.5872C49.6286 13.9661 50.1017 14.4798 49.9125 16.3049L49.7773 17.6568H38.8539C32.4054 17.7785 32.0944 22.9292 32.0944 22.9292C31.77 26.363 32.1755 28.1475 33.5139 29.5805C34.8523 31.0136 36.7585 31.5543 39.976 31.5543H55.0767C55.0767 31.5543 55.5499 26.2278 55.8608 22.9157L56.4286 17.1701C56.7531 13.8309 56.4286 11.9518 55.0767 10.5188Z" fill="white"/>
<path d="M138.651 25.8628C138.651 25.8628 138.097 25.8628 136.056 25.8628H130.783C128.688 25.8628 128.161 25.3897 128.377 23.6457C128.431 23.2548 128.623 22.896 128.918 22.6334C129.212 22.3709 129.591 22.2218 129.986 22.2127H138.949L138.651 25.8628ZM144.708 10.5188C143.356 9.04518 141.477 8.36923 138.259 8.36923H132.446C126.836 8.36923 124.132 10.4376 123.159 15.2639H129.837C130.121 14.3717 130.81 14.0067 132.541 14.0067H137.218C139.26 14.0067 139.719 14.5204 139.544 16.3454L139.408 17.6973H128.593C122.145 17.819 121.834 22.9698 121.834 22.9698C121.509 26.4036 121.915 28.1881 123.186 29.6211C124.456 31.0541 126.43 31.5949 129.648 31.5949H144.762C144.762 31.5949 145.235 26.2684 145.546 22.9562L146.073 17.2242C146.384 13.885 146.073 12.0058 144.721 10.5728" fill="white"/>
<path d="M172.692 0.5H183.061C183.061 0.5 180.438 6.6917 172.151 6.27261L172.692 0.5Z" fill="white"/>
<path d="M231.837 8.21837C231.727 8.19033 231.61 8.19033 231.499 8.21837H231.27V8.78616H231.513C231.602 8.80475 231.694 8.80475 231.783 8.78616C231.834 8.77074 231.879 8.73803 231.908 8.69363C231.938 8.64923 231.951 8.59591 231.946 8.54282C231.949 8.49843 231.941 8.4539 231.922 8.41361C231.903 8.37332 231.874 8.33865 231.837 8.313V8.21837ZM231.54 8.06966C231.683 8.04352 231.83 8.04352 231.973 8.06966C232.052 8.10155 232.118 8.15841 232.162 8.23161C232.206 8.30482 232.225 8.39035 232.216 8.47523C232.219 8.53494 232.205 8.59431 232.177 8.64679C232.148 8.69927 232.106 8.74283 232.054 8.77264C231.99 8.81766 231.915 8.84558 231.837 8.85376C231.889 8.85737 231.939 8.87264 231.983 8.89841C232.028 8.92418 232.066 8.95977 232.094 9.00247C232.155 9.06914 232.188 9.1558 232.189 9.24581V9.47563C232.187 9.50262 232.187 9.52976 232.189 9.55675H231.919V9.35396C231.927 9.28745 231.918 9.21986 231.892 9.1581C231.866 9.09634 231.824 9.04263 231.77 9.00247C231.668 8.97553 231.561 8.97553 231.459 9.00247H231.243V9.62434H230.972V7.97502L231.54 8.06966ZM230.702 7.98854C230.476 8.22281 230.35 8.53534 230.35 8.86052C230.35 9.1857 230.476 9.49823 230.702 9.73249C230.813 9.8495 230.948 9.9423 231.096 10.0051C231.245 10.0679 231.405 10.0994 231.567 10.0975C231.729 10.101 231.89 10.0703 232.039 10.0074C232.188 9.94451 232.322 9.85083 232.432 9.73249C232.547 9.61818 232.638 9.4823 232.7 9.33266C232.763 9.18302 232.795 9.02257 232.795 8.86052C232.795 8.69847 232.763 8.53802 232.7 8.38838C232.638 8.23874 232.547 8.10286 232.432 7.98854C232.322 7.87021 232.188 7.77652 232.039 7.71362C231.89 7.65072 231.729 7.62002 231.567 7.62353C231.405 7.62168 231.245 7.65314 231.096 7.71594C230.948 7.77874 230.813 7.87154 230.702 7.98854ZM232.581 9.81361C232.451 9.95045 232.293 10.0584 232.118 10.1306C231.944 10.2028 231.756 10.2376 231.567 10.2327C231.38 10.2357 231.195 10.2 231.023 10.1279C230.851 10.0558 230.695 9.94875 230.567 9.81361C230.43 9.68328 230.322 9.52571 230.25 9.35107C230.177 9.17643 230.143 8.98859 230.148 8.79968C230.151 8.4243 230.302 8.06529 230.567 7.79984C230.833 7.5344 231.192 7.38371 231.567 7.38019C231.945 7.38017 232.307 7.52929 232.576 7.79512C232.844 8.06094 232.996 8.42197 233 8.79968C233 8.98793 232.963 9.17437 232.891 9.34834C232.819 9.52231 232.714 9.68041 232.581 9.81361Z" fill="white"/>
</g>
<defs>
<clipPath id="clip0_3437_537">
<rect width="234" height="41" fill="white" transform="translate(0 0.5)"/>
</clipPath>
</defs>
</svg>
