<?xml version="1.0" encoding="UTF-8" standalone="no"?>
<svg
   width="710.47101mm"
   height="135.435mm"
   viewBox="0 0 710.47101 135.435"
   version="1.1"
   id="svg5"
   inkscape:version="1.2.2 (b0a8486541, 2022-12-01)"
   sodipodi:docname="scanmar.svg"
   xmlns:inkscape="http://www.inkscape.org/namespaces/inkscape"
   xmlns:sodipodi="http://sodipodi.sourceforge.net/DTD/sodipodi-0.dtd"
   xmlns="http://www.w3.org/2000/svg"
   xmlns:svg="http://www.w3.org/2000/svg">
  <sodipodi:namedview
     id="namedview7"
     pagecolor="#505050"
     bordercolor="#eeeeee"
     borderopacity="1"
     inkscape:showpageshadow="0"
     inkscape:pageopacity="0"
     inkscape:pagecheckerboard="0"
     inkscape:deskcolor="#505050"
     inkscape:document-units="mm"
     showgrid="false"
     inkscape:zoom="0.77593294"
     inkscape:cx="699.80274"
     inkscape:cy="76.681884"
     inkscape:window-width="1876"
     inkscape:window-height="1052"
     inkscape:window-x="0"
     inkscape:window-y="0"
     inkscape:window-maximized="1"
     inkscape:current-layer="svg5" />
  <defs
     id="defs2" />
  <g
     id="g442"
     transform="translate(-5.038,-5.156)" />
  <path
     d="m 220.544,84.922 c 0,-2.626 -0.93,-4.674 -2.789,-6.143 -1.86,-1.466 -5.127,-2.985 -9.803,-4.555 -4.677,-1.569 -8.498,-3.087 -11.466,-4.556 C 186.826,64.925 182,58.408 182,50.113 c 0,-4.127 1.201,-7.77 3.608,-10.929 2.405,-3.156 5.81,-5.613 10.212,-7.372 4.402,-1.756 9.35,-2.636 14.845,-2.636 5.357,0 10.161,0.957 14.41,2.868 4.248,1.91 7.55,4.632 9.905,8.164 2.355,3.533 3.534,7.567 3.534,12.106 h -17.918 c 0,-3.037 -0.93,-5.392 -2.79,-7.065 -1.859,-1.67 -4.377,-2.507 -7.549,-2.507 -3.21,0 -5.743,0.71 -7.603,2.123 -1.86,1.42 -2.789,3.22 -2.789,5.403 0,1.91 1.022,3.642 3.07,5.196 2.05,1.551 5.65,3.155 10.801,4.81 5.154,1.656 9.386,3.44 12.696,5.35 8.054,4.641 12.082,11.04 12.082,19.196 0,6.518 -2.458,11.64 -7.372,15.358 -4.914,3.72 -11.656,5.58 -20.22,5.58 -6.04,0 -11.51,-1.083 -16.407,-3.252 -4.898,-2.165 -8.584,-5.136 -11.057,-8.907 -2.474,-3.769 -3.71,-8.114 -3.71,-13.028 h 18.016 c 0,3.994 1.033,6.937 3.098,8.831 2.065,1.894 5.417,2.841 10.06,2.841 2.968,0 5.315,-0.64 7.038,-1.92 1.723,-1.279 2.584,-3.079 2.584,-5.4"
     fill="#ffffff"
     data-color="1"
     id="path444" />
  <path
     d="m 311.174,79.088 c -0.24,5.187 -1.639,9.77 -4.199,13.744 -2.559,3.977 -6.15,7.056 -10.775,9.24 -4.625,2.184 -9.906,3.277 -15.842,3.277 -9.795,0 -17.509,-3.192 -23.139,-9.572 -5.63,-6.383 -8.447,-15.392 -8.447,-27.03 v -3.686 c 0,-7.303 1.272,-13.692 3.815,-19.169 2.54,-5.478 6.201,-9.71 10.98,-12.697 4.776,-2.985 10.306,-4.478 16.584,-4.478 9.044,0 16.314,2.38 21.808,7.14 5.494,4.762 8.616,11.322 9.367,19.684 h -17.914 c -0.138,-4.539 -1.28,-7.799 -3.43,-9.779 -2.15,-1.977 -5.427,-2.968 -9.83,-2.968 -4.47,0 -7.747,1.673 -9.828,5.017 -2.082,3.345 -3.173,8.685 -3.275,16.021 v 5.273 c 0,7.953 0.997,13.635 2.993,17.048 1.998,3.412 5.436,5.118 10.317,5.118 4.128,0 7.286,-0.972 9.47,-2.918 2.183,-1.946 3.343,-5.033 3.481,-9.265 h 17.865 z"
     fill="#ffffff"
     data-color="1"
     id="path446" />
  <path
     d="m 364.104,89.582 h -24.622 l -4.299,13.923 h -19.198 l 27.337,-74.534 h 16.891 l 27.542,74.534 h -19.299 l -4.35,-13.923 z M 343.782,75.709 h 16.021 l -8.036,-25.852 z"
     fill="#ffffff"
     data-color="1"
     id="path448" />
  <path
     fill="#ffffff"
     d="M 459.578,103.505 H 441.713 L 415.3,57.126 v 46.379 H 397.332 V 28.971 H 415.3 L 441.663,75.35 V 28.971 h 17.915 z"
     data-color="1"
     id="path450" />
  <path
     fill="#ffffff"
     d="m 501.238,28.971 16.637,51.857 16.586,-51.856 h 23.65 v 74.534 H 540.092 V 86.1 l 1.74,-35.627 -18.02,53.033 h -11.875 l -18.071,-53.086 1.74,35.68 v 17.406 H 477.642 V 28.971 h 23.597 z"
     data-color="1"
     id="path452" />
  <path
     d="m 616.055,89.582 h -24.623 l -4.3,13.923 h -19.197 l 27.337,-74.534 h 16.89 l 27.543,74.534 H 620.407 Z M 595.732,75.709 h 16.02 l -8.035,-25.852 z"
     fill="#ffffff"
     data-color="1"
     id="path454" />
  <path
     d="m 678.067,77.142 h -9.726 v 26.363 H 650.374 V 28.971 h 29.331 c 8.837,0 15.748,1.961 20.731,5.88 4.983,3.922 7.476,9.462 7.476,16.62 0,5.184 -1.052,9.478 -3.15,12.887 -2.098,3.408 -5.384,6.172 -9.854,8.285 l 15.563,30.092 v 0.77 h -19.248 z m -9.726,-13.82 h 11.364 c 3.412,0 5.98,-0.9 7.705,-2.696 1.723,-1.796 2.584,-4.3 2.584,-7.517 0,-3.217 -0.87,-5.74 -2.61,-7.57 -1.74,-1.829 -4.3,-2.747 -7.679,-2.747 h -11.363 v 20.53 z"
     fill="#ffffff"
     data-color="1"
     id="path456" />
  <path
     d="m 129.305,93.827 c -8.832,3.397 -18.806,5.2 -28.835,5.2 -10.141,0 -20.115,-1.803 -28.96,-5.206 a 265.56,265.56 0 0 1 -6.945,-2.769 c -8.267,-3.548 -17.682,-5.407 -27.294,-5.407 -9.754,0 -19.17,1.86 -27.37,5.377 a 294.56,294.56 0 0 1 -4.98,2.005 c 10.066,24.842 34.327,42.408 62.78,42.408 28.318,0 52.53,-17.377 62.685,-42.03 -0.366,0.141 -0.701,0.277 -1.081,0.422"
     fill="#ffffff"
     data-color="1"
     id="path458" />
  <path
     d="m 128.742,97.68 a 11.02,11.02 0 0 1 -0.14,0.02"
     fill="#ffffff"
     data-color="1"
     id="path460" />
  <path
     d="m 86.321,67.706 c 0,-10.281 -8.335,-18.616 -18.616,-18.616 -10.281,0 -18.615,8.335 -18.615,18.616 0,3.09 0.765,5.997 2.097,8.562 6.127,1.03 12.015,2.712 17.452,5.047 2.146,0.882 4.22,1.72 6.632,2.64 0.299,0.117 0.623,0.193 0.926,0.303 6.007,-3.087 10.124,-9.333 10.124,-16.552"
     fill="#ffffff"
     data-color="1"
     id="path462" />
  <path
     d="M 13.719,78.441 A 55.065,55.065 0 0 1 12.651,67.704 c 0,-30.356 24.697,-55.053 55.054,-55.053 30.357,0 55.054,24.697 55.054,55.053 0,6.38 -1.147,12.483 -3.151,18.186 a 60.803,60.803 0 0 0 5.912,-1.928 265.97,265.97 0 0 0 6.717,-2.678 c 0.635,-0.273 1.293,-0.515 1.942,-0.77 a 67.78,67.78 0 0 0 1.231,-12.81 C 135.41,30.372 105.038,0 67.705,0 30.372,0 0,30.372 0,67.704 0,72.938 0.617,78.028 1.746,82.923 a 277.008,277.008 0 0 0 4.057,-1.64 72.895,72.895 0 0 1 7.916,-2.842"
     fill="#ffffff"
     data-color="1"
     id="path464" />
  <path
     d="m 38.58,75.114 c -0.605,-2.375 -0.961,-4.849 -0.961,-7.41 0,-16.587 13.496,-30.083 30.086,-30.083 16.59,0 30.087,13.496 30.087,30.083 0,7.646 -2.891,14.613 -7.605,19.926 a 76.929,76.929 0 0 0 15.796,0.511 43.124,43.124 0 0 0 5.133,-20.437 c 0,-23.934 -19.474,-43.408 -43.411,-43.408 -23.937,0 -43.41,19.474 -43.41,43.408 0,2.82 0.292,5.57 0.807,8.24 a 84.32,84.32 0 0 1 12.015,-0.865 c 0.489,0 0.974,0.027 1.463,0.035"
     fill="#ffffff"
     data-color="1"
     id="path466" />
</svg>
