<?xml version="1.0" encoding="UTF-8" standalone="no"?>
<!-- Created with Inkscape (http://www.inkscape.org/) -->

<svg
   version="1.1"
   id="svg2"
   width="504"
   height="504"
   viewBox="0 0 504 504"
   sodipodi:docname="Nkom-ekomnettautorisasjon.svg"
   inkscape:version="1.2.2 (b0a8486541, 2022-12-01)"
   xmlns:inkscape="http://www.inkscape.org/namespaces/inkscape"
   xmlns:sodipodi="http://sodipodi.sourceforge.net/DTD/sodipodi-0.dtd"
   xmlns="http://www.w3.org/2000/svg"
   xmlns:svg="http://www.w3.org/2000/svg">
  <defs
     id="defs6">
    <clipPath
       clipPathUnits="userSpaceOnUse"
       id="clipPath18">
      <path
         d="M 0,378 H 378 V 0 H 0 Z"
         id="path16" />
    </clipPath>
    <clipPath
       clipPathUnits="userSpaceOnUse"
       id="clipPath34">
      <path
         d="M 0,378 H 378 V 0 H 0 Z"
         id="path32" />
    </clipPath>
  </defs>
  <sodipodi:namedview
     id="namedview4"
     pagecolor="#505050"
     bordercolor="#eeeeee"
     borderopacity="1"
     inkscape:showpageshadow="0"
     inkscape:pageopacity="0"
     inkscape:pagecheckerboard="0"
     inkscape:deskcolor="#505050"
     showgrid="false"
     inkscape:zoom="0.90123896"
     inkscape:cx="208.60172"
     inkscape:cy="110.40357"
     inkscape:window-width="1876"
     inkscape:window-height="1052"
     inkscape:window-x="0"
     inkscape:window-y="0"
     inkscape:window-maximized="1"
     inkscape:current-layer="layer1">
    <inkscape:page
       x="0"
       y="0"
       id="page8"
       width="504"
       height="504" />
  </sodipodi:namedview>
  <g
     id="g10"
     inkscape:groupmode="layer"
     inkscape:label="Page 1"
     transform="matrix(1.3333333,0,0,-1.3333333,0,504)">
    <g
       id="g12">
      <g
         id="g14"
         clip-path="url(#clipPath18)">
        <g
           id="g20"
           transform="translate(359.9995,19.9199)">
          <path
             d="m 0,0 h -283.4 c -31.304,0 -56.681,25.377 -56.681,56.678 V 340.08 H 0 Z"
             style="fill:none;stroke:#1e2853;stroke-width:3;stroke-linecap:butt;stroke-linejoin:round;stroke-miterlimit:10;stroke-dasharray:none;stroke-opacity:1"
             id="path22" />
        </g>
      </g>
    </g>
    <text
       xml:space="preserve"
       transform="matrix(1,0,0,-1,277.4692,276.3184)"
       style="font-variant:normal;font-weight:bold;font-stretch:normal;font-size:40.08px;font-family:Calibri;-inkscape-font-specification:Calibri-Bold;writing-mode:lr-tb;fill:#1f355c;fill-opacity:1;fill-rule:nonzero;stroke:none"
       id="text26"><tspan
         x="0"
         y="0"
         id="tspan24">-</tspan></text>
    <g
       id="g28">
      <g
         id="g30"
         clip-path="url(#clipPath34)">
        <g
           id="g36"
           transform="translate(107.3174,278.3345)">
          <path
             d="M 0,0 C 0,-0.378 -0.017,-0.695 -0.049,-0.949 -0.082,-1.204 -0.131,-1.409 -0.196,-1.565 -0.261,-1.722 -0.343,-1.836 -0.44,-1.908 -0.539,-1.98 -0.646,-2.016 -0.763,-2.016 h -12.721 c -0.431,0 -0.793,0.128 -1.086,0.382 -0.294,0.255 -0.441,0.669 -0.441,1.243 v 22.075 c 0,0.574 0.147,0.988 0.441,1.243 0.293,0.254 0.655,0.382 1.086,0.382 h 12.642 c 0.118,0 0.222,-0.033 0.313,-0.099 0.092,-0.065 0.17,-0.179 0.235,-0.342 0.065,-0.163 0.114,-0.372 0.147,-0.626 0.032,-0.255 0.049,-0.577 0.049,-0.969 0,-0.365 -0.017,-0.675 -0.049,-0.93 C -0.18,20.089 -0.229,19.884 -0.294,19.727 -0.359,19.57 -0.437,19.456 -0.529,19.384 -0.62,19.312 -0.724,19.277 -0.842,19.277 h -9.041 v -6.184 h 7.652 c 0.117,0 0.225,-0.036 0.323,-0.108 0.097,-0.072 0.179,-0.183 0.244,-0.333 0.065,-0.15 0.114,-0.352 0.147,-0.607 0.033,-0.254 0.049,-0.564 0.049,-0.929 0,-0.379 -0.016,-0.692 -0.049,-0.939 C -1.55,9.929 -1.599,9.729 -1.664,9.58 -1.729,9.43 -1.811,9.322 -1.908,9.257 -2.006,9.191 -2.114,9.159 -2.231,9.159 H -9.883 V 2.016 h 9.12 c 0.117,0 0.224,-0.036 0.323,-0.108 C -0.343,1.836 -0.261,1.722 -0.196,1.566 -0.131,1.409 -0.082,1.204 -0.049,0.949 -0.017,0.695 0,0.378 0,0"
             style="fill:#1e2853;fill-opacity:1;fill-rule:nonzero;stroke:none"
             id="path38" />
        </g>
        <g
           id="g40"
           transform="translate(130.2715,277.082)">
          <path
             d="m 0,0 c 0,-0.144 -0.036,-0.271 -0.108,-0.381 -0.072,-0.112 -0.208,-0.203 -0.411,-0.275 -0.202,-0.072 -0.479,-0.127 -0.832,-0.166 -0.352,-0.039 -0.795,-0.058 -1.33,-0.058 -0.848,0 -1.458,0.032 -1.83,0.097 -0.372,0.065 -0.639,0.163 -0.802,0.294 -0.164,0.13 -0.291,0.287 -0.382,0.469 l -7.652,12.017 V -0.02 c 0,-0.143 -0.039,-0.267 -0.117,-0.371 -0.078,-0.105 -0.216,-0.193 -0.411,-0.265 -0.196,-0.072 -0.457,-0.127 -0.783,-0.166 -0.326,-0.039 -0.744,-0.058 -1.253,-0.058 -0.496,0 -0.91,0.019 -1.242,0.058 -0.333,0.039 -0.597,0.094 -0.793,0.166 -0.196,0.072 -0.336,0.16 -0.421,0.265 -0.085,0.104 -0.127,0.228 -0.127,0.371 v 23.857 c 0,0.143 0.042,0.267 0.127,0.371 0.085,0.105 0.225,0.189 0.421,0.255 0.196,0.065 0.46,0.118 0.793,0.157 0.332,0.039 0.746,0.058 1.242,0.058 0.509,0 0.927,-0.019 1.253,-0.058 0.326,-0.039 0.587,-0.092 0.783,-0.157 0.195,-0.066 0.333,-0.15 0.411,-0.255 0.078,-0.104 0.117,-0.228 0.117,-0.371 V 13.053 l 7.417,10.764 c 0.091,0.169 0.202,0.31 0.333,0.421 0.13,0.111 0.3,0.199 0.509,0.264 0.208,0.065 0.476,0.111 0.802,0.137 0.326,0.026 0.744,0.039 1.252,0.039 0.522,0 0.953,-0.019 1.292,-0.058 0.339,-0.039 0.61,-0.095 0.812,-0.167 0.202,-0.072 0.343,-0.16 0.421,-0.264 0.078,-0.105 0.117,-0.222 0.117,-0.352 0,-0.222 -0.058,-0.45 -0.175,-0.685 -0.118,-0.235 -0.34,-0.607 -0.666,-1.116 l -6.948,-9.1 7.574,-11.449 C -0.32,0.952 -0.147,0.597 -0.088,0.421 -0.029,0.245 0,0.104 0,0"
             style="fill:#1e2853;fill-opacity:1;fill-rule:nonzero;stroke:none"
             id="path42" />
        </g>
        <g
           id="g44"
           transform="translate(149.3511,289.0005)">
          <path
             d="m 0,0 c 0,1.331 -0.104,2.541 -0.313,3.63 -0.209,1.089 -0.564,2.022 -1.066,2.799 -0.503,0.776 -1.172,1.376 -2.007,1.8 -0.835,0.424 -1.878,0.636 -3.131,0.636 -1.265,0 -2.322,-0.238 -3.17,-0.714 -0.848,-0.477 -1.533,-1.112 -2.055,-1.908 -0.522,-0.796 -0.89,-1.726 -1.106,-2.789 -0.215,-1.063 -0.323,-2.189 -0.323,-3.376 0,-1.383 0.105,-2.625 0.314,-3.728 0.208,-1.102 0.56,-2.045 1.056,-2.828 0.496,-0.783 1.161,-1.379 1.996,-1.791 0.835,-0.411 1.886,-0.616 3.151,-0.616 1.266,0 2.322,0.235 3.171,0.704 0.848,0.47 1.532,1.109 2.054,1.918 0.522,0.809 0.891,1.752 1.106,2.828 C -0.107,-2.358 0,-1.213 0,0 m 5.401,0.274 c 0,-2.101 -0.26,-3.98 -0.782,-5.636 C 4.097,-7.02 3.32,-8.425 2.29,-9.58 c -1.031,-1.154 -2.307,-2.035 -3.826,-2.642 -1.52,-0.607 -3.278,-0.91 -5.275,-0.91 -1.969,0 -3.689,0.258 -5.156,0.773 -1.468,0.516 -2.691,1.302 -3.67,2.359 -0.978,1.056 -1.712,2.4 -2.201,4.031 -0.49,1.631 -0.734,3.562 -0.734,5.793 0,2.048 0.261,3.891 0.783,5.529 0.521,1.637 1.298,3.029 2.329,4.178 1.03,1.148 2.306,2.028 3.826,2.642 1.519,0.613 3.284,0.919 5.293,0.919 1.918,0 3.611,-0.254 5.079,-0.763 C 0.206,11.82 1.432,11.038 2.417,9.981 3.402,8.924 4.146,7.59 4.648,5.979 5.15,4.367 5.401,2.466 5.401,0.274"
             style="fill:#1e2853;fill-opacity:1;fill-rule:nonzero;stroke:none"
             id="path46" />
        </g>
        <g
           id="g48"
           transform="translate(188.5894,277.0234)">
          <path
             d="m 0,0 c 0,-0.131 -0.036,-0.248 -0.108,-0.353 -0.072,-0.104 -0.202,-0.189 -0.391,-0.254 -0.189,-0.065 -0.44,-0.117 -0.753,-0.156 -0.313,-0.039 -0.712,-0.059 -1.194,-0.059 -0.47,0 -0.862,0.02 -1.175,0.059 -0.313,0.039 -0.561,0.091 -0.743,0.156 -0.183,0.065 -0.313,0.15 -0.392,0.254 C -4.834,-0.248 -4.873,-0.131 -4.873,0 V 20.607 H -4.912 L -12.251,0.02 c -0.052,-0.17 -0.137,-0.311 -0.254,-0.421 -0.118,-0.111 -0.278,-0.199 -0.48,-0.265 -0.203,-0.064 -0.46,-0.107 -0.773,-0.126 -0.313,-0.02 -0.692,-0.03 -1.135,-0.03 -0.444,0 -0.822,0.016 -1.135,0.049 -0.313,0.033 -0.571,0.085 -0.773,0.156 -0.202,0.072 -0.362,0.16 -0.48,0.264 -0.117,0.105 -0.196,0.229 -0.235,0.373 L -24.6,20.607 h -0.039 V 0 c 0,-0.131 -0.036,-0.248 -0.108,-0.353 -0.071,-0.104 -0.205,-0.189 -0.401,-0.254 -0.196,-0.065 -0.447,-0.117 -0.753,-0.156 -0.307,-0.039 -0.702,-0.059 -1.184,-0.059 -0.47,0 -0.861,0.02 -1.175,0.059 -0.313,0.039 -0.564,0.091 -0.753,0.156 -0.189,0.065 -0.32,0.15 -0.391,0.254 -0.072,0.105 -0.108,0.222 -0.108,0.353 v 22.564 c 0,0.666 0.176,1.175 0.528,1.527 0.353,0.352 0.822,0.529 1.409,0.529 h 3.367 c 0.6,0 1.115,-0.05 1.545,-0.147 0.431,-0.098 0.803,-0.262 1.116,-0.49 0.313,-0.228 0.574,-0.528 0.783,-0.9 0.208,-0.372 0.391,-0.832 0.548,-1.379 l 5.48,-15.089 h 0.078 l 5.675,15.049 c 0.17,0.548 0.356,1.011 0.558,1.39 0.202,0.378 0.437,0.685 0.704,0.92 0.268,0.234 0.584,0.401 0.95,0.499 0.365,0.097 0.789,0.147 1.271,0.147 h 3.465 c 0.352,0 0.655,-0.046 0.91,-0.138 0.254,-0.091 0.462,-0.225 0.626,-0.401 0.163,-0.176 0.287,-0.391 0.372,-0.645 C -0.042,23.181 0,22.891 0,22.564 Z"
             style="fill:#1e2853;fill-opacity:1;fill-rule:nonzero;stroke:none"
             id="path50" />
        </g>
        <g
           id="g52"
           transform="translate(214.9902,278.1191)">
          <path
             d="M 0,0 C 0,-0.3 -0.052,-0.567 -0.157,-0.802 -0.261,-1.037 -0.401,-1.233 -0.578,-1.389 -0.753,-1.546 -0.962,-1.66 -1.204,-1.732 -1.445,-1.803 -1.69,-1.839 -1.937,-1.839 h -2.192 c -0.457,0 -0.852,0.045 -1.184,0.136 -0.333,0.092 -0.64,0.258 -0.92,0.499 -0.281,0.242 -0.552,0.568 -0.812,0.979 C -7.307,0.186 -7.6,0.718 -7.926,1.37 l -6.302,11.84 c -0.365,0.705 -0.737,1.464 -1.115,2.28 -0.379,0.815 -0.718,1.608 -1.018,2.378 H -16.4 c 0.052,-0.939 0.091,-1.876 0.117,-2.808 0.026,-0.934 0.039,-1.896 0.039,-2.887 V -1.076 c 0,-0.131 -0.036,-0.248 -0.107,-0.352 -0.072,-0.105 -0.196,-0.193 -0.372,-0.265 -0.176,-0.072 -0.414,-0.127 -0.714,-0.166 -0.301,-0.039 -0.685,-0.058 -1.155,-0.058 -0.457,0 -0.835,0.019 -1.135,0.058 -0.3,0.039 -0.535,0.094 -0.705,0.166 -0.169,0.072 -0.287,0.16 -0.352,0.265 -0.065,0.104 -0.098,0.221 -0.098,0.352 v 22.76 c 0,0.613 0.179,1.073 0.538,1.38 0.359,0.306 0.8,0.46 1.322,0.46 h 2.759 c 0.495,0 0.913,-0.043 1.252,-0.128 0.34,-0.084 0.643,-0.225 0.91,-0.42 0.268,-0.196 0.519,-0.467 0.754,-0.812 0.235,-0.346 0.476,-0.773 0.724,-1.282 l 4.932,-9.257 c 0.287,-0.561 0.57,-1.112 0.851,-1.654 0.28,-0.541 0.551,-1.083 0.812,-1.624 0.261,-0.542 0.515,-1.074 0.763,-1.595 0.248,-0.522 0.49,-1.044 0.724,-1.565 h 0.02 C -4.56,6.1 -4.589,7.052 -4.609,8.043 -4.628,9.035 -4.638,9.981 -4.638,10.881 V 22.76 c 0,0.131 0.039,0.248 0.117,0.353 0.078,0.104 0.209,0.196 0.392,0.274 0.182,0.078 0.423,0.134 0.724,0.166 0.3,0.032 0.685,0.049 1.154,0.049 0.444,0 0.815,-0.017 1.116,-0.049 0.3,-0.032 0.531,-0.088 0.695,-0.166 0.163,-0.078 0.276,-0.17 0.342,-0.274 C -0.033,23.008 0,22.891 0,22.76 Z"
             style="fill:#1e2853;fill-opacity:1;fill-rule:nonzero;stroke:none"
             id="path54" />
        </g>
        <g
           id="g56"
           transform="translate(235.5195,278.3345)">
          <path
             d="M 0,0 C 0,-0.378 -0.017,-0.695 -0.049,-0.949 -0.082,-1.204 -0.131,-1.409 -0.196,-1.565 -0.261,-1.722 -0.343,-1.836 -0.44,-1.908 -0.539,-1.98 -0.646,-2.016 -0.763,-2.016 h -12.721 c -0.431,0 -0.793,0.128 -1.086,0.382 -0.294,0.255 -0.441,0.669 -0.441,1.243 v 22.075 c 0,0.574 0.147,0.988 0.441,1.243 0.293,0.254 0.655,0.382 1.086,0.382 h 12.642 c 0.118,0 0.222,-0.033 0.313,-0.099 0.092,-0.065 0.17,-0.179 0.235,-0.342 0.065,-0.163 0.114,-0.372 0.147,-0.626 0.032,-0.255 0.049,-0.577 0.049,-0.969 0,-0.365 -0.017,-0.675 -0.049,-0.93 C -0.18,20.089 -0.229,19.884 -0.294,19.727 -0.359,19.57 -0.437,19.456 -0.529,19.384 -0.62,19.312 -0.724,19.277 -0.842,19.277 h -9.041 v -6.184 h 7.652 c 0.117,0 0.225,-0.036 0.323,-0.108 0.097,-0.072 0.179,-0.183 0.244,-0.333 0.065,-0.15 0.114,-0.352 0.147,-0.607 0.033,-0.254 0.049,-0.564 0.049,-0.929 0,-0.379 -0.016,-0.692 -0.049,-0.939 C -1.55,9.929 -1.599,9.729 -1.664,9.58 -1.729,9.43 -1.811,9.322 -1.908,9.257 -2.006,9.191 -2.114,9.159 -2.231,9.159 H -9.883 V 2.016 h 9.12 c 0.117,0 0.224,-0.036 0.323,-0.108 C -0.343,1.836 -0.261,1.722 -0.196,1.566 -0.131,1.409 -0.082,1.204 -0.049,0.949 -0.017,0.695 0,0.378 0,0"
             style="fill:#1e2853;fill-opacity:1;fill-rule:nonzero;stroke:none"
             id="path58" />
        </g>
        <g
           id="g60"
           transform="translate(256.8291,299.5293)">
          <path
             d="M 0,0 C 0,-0.378 -0.017,-0.702 -0.049,-0.969 -0.082,-1.236 -0.13,-1.452 -0.196,-1.615 -0.261,-1.778 -0.342,-1.898 -0.44,-1.977 -0.538,-2.055 -0.646,-2.094 -0.763,-2.094 h -6.341 v -20.412 c 0,-0.131 -0.042,-0.248 -0.127,-0.352 -0.085,-0.105 -0.225,-0.189 -0.421,-0.255 -0.196,-0.065 -0.46,-0.117 -0.792,-0.156 -0.333,-0.039 -0.747,-0.059 -1.243,-0.059 -0.496,0 -0.91,0.02 -1.243,0.059 -0.333,0.039 -0.597,0.091 -0.793,0.156 -0.195,0.066 -0.336,0.15 -0.42,0.255 -0.086,0.104 -0.128,0.221 -0.128,0.352 v 20.412 h -6.34 c -0.131,0 -0.242,0.039 -0.333,0.117 -0.092,0.079 -0.17,0.199 -0.235,0.362 -0.065,0.163 -0.114,0.379 -0.147,0.646 -0.032,0.267 -0.049,0.591 -0.049,0.969 0,0.391 0.017,0.724 0.049,0.998 0.033,0.274 0.082,0.492 0.147,0.656 0.065,0.162 0.143,0.28 0.235,0.352 0.091,0.072 0.202,0.108 0.333,0.108 h 17.848 c 0.117,0 0.225,-0.036 0.323,-0.108 0.098,-0.072 0.179,-0.19 0.244,-0.352 C -0.13,1.49 -0.082,1.272 -0.049,0.998 -0.017,0.724 0,0.391 0,0"
             style="fill:#1e2853;fill-opacity:1;fill-rule:nonzero;stroke:none"
             id="path62" />
        </g>
        <g
           id="g64"
           transform="translate(277.1948,299.5293)">
          <path
             d="M 0,0 C 0,-0.378 -0.017,-0.702 -0.049,-0.969 -0.082,-1.236 -0.13,-1.452 -0.196,-1.615 -0.261,-1.778 -0.342,-1.898 -0.44,-1.977 -0.538,-2.055 -0.646,-2.094 -0.763,-2.094 h -6.341 v -20.412 c 0,-0.131 -0.042,-0.248 -0.127,-0.352 -0.085,-0.105 -0.225,-0.189 -0.421,-0.255 -0.196,-0.065 -0.46,-0.117 -0.792,-0.156 -0.333,-0.039 -0.747,-0.059 -1.243,-0.059 -0.496,0 -0.91,0.02 -1.243,0.059 -0.333,0.039 -0.597,0.091 -0.793,0.156 -0.195,0.066 -0.336,0.15 -0.42,0.255 -0.086,0.104 -0.128,0.221 -0.128,0.352 v 20.412 h -6.34 c -0.131,0 -0.242,0.039 -0.333,0.117 -0.092,0.079 -0.17,0.199 -0.235,0.362 -0.065,0.163 -0.114,0.379 -0.147,0.646 -0.032,0.267 -0.049,0.591 -0.049,0.969 0,0.391 0.017,0.724 0.049,0.998 0.033,0.274 0.082,0.492 0.147,0.656 0.065,0.162 0.143,0.28 0.235,0.352 0.091,0.072 0.202,0.108 0.333,0.108 h 17.848 c 0.117,0 0.225,-0.036 0.323,-0.108 0.098,-0.072 0.179,-0.19 0.244,-0.352 C -0.13,1.49 -0.082,1.272 -0.049,0.998 -0.017,0.724 0,0.391 0,0"
             style="fill:#1e2853;fill-opacity:1;fill-rule:nonzero;stroke:none"
             id="path66" />
        </g>
        <g
           id="g68"
           transform="translate(72.8799,248.7935)">
          <path
             d="m 0,0 h -0.02 l -3.581,-10.764 h 7.182 z m 11.625,-18.572 c 0.156,-0.47 0.254,-0.842 0.293,-1.116 0.039,-0.274 -0.013,-0.479 -0.156,-0.616 -0.144,-0.137 -0.399,-0.222 -0.763,-0.255 -0.366,-0.032 -0.869,-0.048 -1.508,-0.048 -0.665,0 -1.183,0.009 -1.555,0.029 -0.373,0.019 -0.656,0.058 -0.852,0.117 -0.195,0.059 -0.333,0.14 -0.411,0.245 -0.078,0.104 -0.143,0.241 -0.195,0.411 l -1.703,5.088 h -9.511 l -1.605,-4.951 c -0.052,-0.183 -0.121,-0.336 -0.205,-0.46 -0.085,-0.124 -0.223,-0.222 -0.412,-0.294 -0.189,-0.071 -0.456,-0.12 -0.802,-0.146 -0.345,-0.027 -0.799,-0.039 -1.36,-0.039 -0.6,0 -1.07,0.019 -1.409,0.058 -0.34,0.039 -0.575,0.133 -0.704,0.284 -0.131,0.15 -0.177,0.362 -0.138,0.636 0.039,0.274 0.138,0.639 0.294,1.096 l 7.808,22.467 c 0.079,0.221 0.17,0.4 0.274,0.538 0.105,0.137 0.271,0.241 0.499,0.313 0.229,0.071 0.545,0.117 0.95,0.137 0.404,0.019 0.939,0.029 1.605,0.029 0.769,0 1.382,-0.01 1.839,-0.029 C 2.354,4.902 2.71,4.856 2.965,4.785 3.219,4.713 3.402,4.605 3.513,4.462 3.624,4.318 3.718,4.123 3.796,3.875 Z"
             style="fill:#1e2853;fill-opacity:1;fill-rule:nonzero;stroke:none"
             id="path70" />
        </g>
        <g
           id="g72"
           transform="translate(107.9517,237.7363)">
          <path
             d="m 0,0 c 0,-1.553 -0.229,-2.942 -0.685,-4.168 -0.457,-1.227 -1.129,-2.265 -2.016,-3.112 -0.887,-0.848 -1.983,-1.494 -3.288,-1.938 -1.304,-0.443 -2.805,-0.665 -4.501,-0.665 -1.592,0 -3.02,0.199 -4.286,0.597 -1.266,0.397 -2.335,1.001 -3.209,1.81 -0.874,0.809 -1.543,1.817 -2.006,3.023 -0.464,1.207 -0.695,2.62 -0.695,4.238 v 15.402 c 0,0.129 0.039,0.247 0.118,0.352 0.078,0.104 0.218,0.189 0.42,0.254 0.202,0.065 0.466,0.118 0.793,0.157 0.326,0.039 0.744,0.058 1.252,0.058 0.496,0 0.907,-0.019 1.233,-0.058 0.326,-0.039 0.587,-0.092 0.783,-0.157 0.196,-0.065 0.336,-0.15 0.421,-0.254 0.084,-0.105 0.127,-0.223 0.127,-0.352 V 0.235 c 0,-1.005 0.124,-1.876 0.372,-2.613 0.248,-0.737 0.603,-1.347 1.066,-1.83 0.463,-0.482 1.018,-0.845 1.664,-1.086 0.646,-0.242 1.367,-0.362 2.163,-0.362 0.808,0 1.532,0.124 2.172,0.372 0.639,0.247 1.181,0.61 1.624,1.086 0.443,0.476 0.786,1.063 1.027,1.761 0.242,0.698 0.363,1.491 0.363,2.378 v 15.246 c 0,0.129 0.039,0.247 0.117,0.352 0.078,0.104 0.215,0.189 0.411,0.254 0.196,0.065 0.46,0.118 0.792,0.157 0.333,0.039 0.747,0.058 1.243,0.058 0.496,0 0.903,-0.019 1.223,-0.058 0.32,-0.039 0.578,-0.092 0.774,-0.157 0.195,-0.065 0.332,-0.15 0.41,-0.254 C -0.039,15.434 0,15.316 0,15.187 Z"
             style="fill:#1e2853;fill-opacity:1;fill-rule:nonzero;stroke:none"
             id="path74" />
        </g>
        <g
           id="g76"
           transform="translate(130.3008,251.5137)">
          <path
             d="M 0,0 C 0,-0.378 -0.017,-0.702 -0.049,-0.969 -0.082,-1.236 -0.13,-1.452 -0.196,-1.615 -0.261,-1.778 -0.342,-1.898 -0.44,-1.977 -0.538,-2.055 -0.646,-2.094 -0.763,-2.094 h -6.341 v -20.412 c 0,-0.131 -0.042,-0.248 -0.127,-0.352 -0.085,-0.105 -0.225,-0.189 -0.421,-0.255 -0.196,-0.065 -0.46,-0.117 -0.792,-0.156 -0.333,-0.039 -0.747,-0.059 -1.243,-0.059 -0.496,0 -0.91,0.02 -1.243,0.059 -0.333,0.039 -0.597,0.091 -0.793,0.156 -0.195,0.066 -0.336,0.15 -0.42,0.255 -0.086,0.104 -0.128,0.221 -0.128,0.352 v 20.412 h -6.34 c -0.131,0 -0.242,0.039 -0.333,0.117 -0.092,0.079 -0.17,0.199 -0.235,0.362 -0.065,0.163 -0.114,0.379 -0.147,0.646 -0.032,0.267 -0.049,0.591 -0.049,0.969 0,0.391 0.017,0.724 0.049,0.998 0.033,0.274 0.082,0.492 0.147,0.656 0.065,0.162 0.143,0.28 0.235,0.352 0.091,0.072 0.202,0.108 0.333,0.108 h 17.848 c 0.117,0 0.225,-0.036 0.323,-0.108 0.098,-0.072 0.179,-0.19 0.244,-0.352 C -0.13,1.49 -0.082,1.272 -0.049,0.998 -0.017,0.724 0,0.391 0,0"
             style="fill:#1e2853;fill-opacity:1;fill-rule:nonzero;stroke:none"
             id="path78" />
        </g>
        <g
           id="g80"
           transform="translate(149.7915,240.9849)">
          <path
             d="m 0,0 c 0,1.331 -0.104,2.541 -0.313,3.63 -0.209,1.089 -0.564,2.022 -1.066,2.799 -0.503,0.776 -1.172,1.376 -2.007,1.8 -0.835,0.424 -1.878,0.636 -3.131,0.636 -1.265,0 -2.322,-0.238 -3.17,-0.714 -0.848,-0.477 -1.533,-1.112 -2.055,-1.908 -0.522,-0.796 -0.89,-1.726 -1.106,-2.789 -0.215,-1.063 -0.323,-2.189 -0.323,-3.376 0,-1.383 0.105,-2.625 0.314,-3.728 0.208,-1.102 0.56,-2.045 1.056,-2.828 0.496,-0.783 1.161,-1.379 1.996,-1.791 0.835,-0.411 1.886,-0.616 3.151,-0.616 1.266,0 2.322,0.235 3.171,0.704 0.848,0.47 1.532,1.109 2.054,1.918 0.522,0.809 0.891,1.752 1.106,2.828 C -0.107,-2.358 0,-1.213 0,0 m 5.401,0.274 c 0,-2.101 -0.26,-3.98 -0.782,-5.636 C 4.097,-7.02 3.32,-8.425 2.29,-9.58 c -1.031,-1.154 -2.307,-2.035 -3.826,-2.642 -1.52,-0.607 -3.278,-0.91 -5.275,-0.91 -1.969,0 -3.689,0.258 -5.156,0.773 -1.468,0.516 -2.691,1.302 -3.67,2.359 -0.978,1.056 -1.712,2.4 -2.201,4.031 -0.49,1.631 -0.734,3.562 -0.734,5.793 0,2.048 0.261,3.891 0.783,5.529 0.521,1.637 1.298,3.029 2.329,4.178 1.03,1.148 2.306,2.028 3.826,2.642 1.519,0.613 3.284,0.919 5.293,0.919 1.918,0 3.611,-0.254 5.079,-0.763 C 0.206,11.82 1.432,11.038 2.417,9.981 3.402,8.924 4.146,7.59 4.648,5.979 5.15,4.367 5.401,2.466 5.401,0.274"
             style="fill:#1e2853;fill-opacity:1;fill-rule:nonzero;stroke:none"
             id="path82" />
        </g>
        <g
           id="g84"
           transform="translate(171.6714,246.1514)">
          <path
             d="m 0,0 c 0,0.835 -0.189,1.54 -0.567,2.114 -0.379,0.574 -0.998,0.978 -1.86,1.213 -0.261,0.065 -0.557,0.117 -0.89,0.156 -0.333,0.039 -0.793,0.059 -1.38,0.059 H -7.006 V -3.64 h 2.622 c 0.731,0 1.37,0.088 1.918,0.264 0.548,0.176 1.005,0.424 1.37,0.744 0.365,0.319 0.639,0.701 0.822,1.145 C -0.091,-1.044 0,-0.548 0,0 m 6.634,-17.183 c 0,-0.144 -0.026,-0.264 -0.078,-0.362 -0.052,-0.098 -0.176,-0.179 -0.372,-0.245 -0.196,-0.064 -0.483,-0.11 -0.861,-0.136 -0.379,-0.027 -0.894,-0.039 -1.546,-0.039 -0.548,0 -0.985,0.012 -1.311,0.039 -0.326,0.026 -0.584,0.075 -0.773,0.146 -0.19,0.072 -0.323,0.163 -0.401,0.274 -0.079,0.111 -0.144,0.245 -0.196,0.402 l -2.27,5.655 c -0.274,0.639 -0.542,1.207 -0.803,1.703 -0.261,0.496 -0.551,0.91 -0.871,1.243 -0.319,0.333 -0.688,0.584 -1.105,0.753 -0.418,0.169 -0.901,0.254 -1.448,0.254 h -1.605 v -9.648 c 0,-0.13 -0.043,-0.248 -0.127,-0.352 -0.085,-0.105 -0.225,-0.189 -0.421,-0.254 -0.196,-0.066 -0.457,-0.118 -0.783,-0.157 -0.326,-0.039 -0.744,-0.058 -1.252,-0.058 -0.496,0 -0.911,0.019 -1.243,0.058 -0.333,0.039 -0.597,0.091 -0.793,0.157 -0.195,0.065 -0.333,0.149 -0.411,0.254 -0.078,0.104 -0.117,0.222 -0.117,0.352 V 5.852 c 0,0.573 0.147,0.988 0.44,1.242 0.294,0.255 0.656,0.382 1.087,0.382 h 6.555 c 0.666,0 1.214,-0.013 1.644,-0.039 C -1.996,7.411 -1.605,7.378 -1.252,7.339 -0.235,7.195 0.682,6.947 1.497,6.595 2.313,6.243 3.004,5.783 3.572,5.215 4.139,4.648 4.573,3.976 4.873,3.2 5.173,2.423 5.323,1.533 5.323,0.528 5.323,-0.32 5.215,-1.093 5,-1.791 4.785,-2.489 4.468,-3.112 4.051,-3.66 3.633,-4.208 3.118,-4.684 2.505,-5.088 1.892,-5.493 1.194,-5.819 0.411,-6.067 0.789,-6.25 1.145,-6.471 1.478,-6.732 1.81,-6.993 2.124,-7.31 2.417,-7.681 2.71,-8.053 2.987,-8.478 3.249,-8.954 3.509,-9.43 3.764,-9.968 4.012,-10.568 l 2.133,-4.991 c 0.196,-0.495 0.326,-0.858 0.392,-1.086 0.065,-0.228 0.097,-0.407 0.097,-0.538"
             style="fill:#1e2853;fill-opacity:1;fill-rule:nonzero;stroke:none"
             id="path86" />
        </g>
        <g
           id="g88"
           transform="translate(187.249,229.0078)">
          <path
             d="m 0,0 c 0,-0.131 -0.042,-0.248 -0.127,-0.353 -0.085,-0.104 -0.225,-0.189 -0.421,-0.254 -0.196,-0.065 -0.456,-0.117 -0.783,-0.156 -0.326,-0.039 -0.743,-0.059 -1.252,-0.059 -0.496,0 -0.91,0.02 -1.243,0.059 -0.333,0.039 -0.597,0.091 -0.792,0.156 -0.196,0.065 -0.337,0.15 -0.421,0.254 -0.085,0.105 -0.128,0.222 -0.128,0.353 v 23.915 c 0,0.13 0.043,0.248 0.128,0.352 0.084,0.105 0.228,0.189 0.431,0.254 0.202,0.066 0.466,0.118 0.792,0.157 0.326,0.039 0.737,0.059 1.233,0.059 0.509,0 0.926,-0.02 1.252,-0.059 0.327,-0.039 0.587,-0.091 0.783,-0.157 0.196,-0.065 0.336,-0.149 0.421,-0.254 C -0.042,24.163 0,24.045 0,23.915 Z"
             style="fill:#1e2853;fill-opacity:1;fill-rule:nonzero;stroke:none"
             id="path90" />
        </g>
        <g
           id="g92"
           transform="translate(207.8589,235.8965)">
          <path
             d="M 0,0 C 0,-1.331 -0.248,-2.499 -0.744,-3.503 -1.24,-4.508 -1.912,-5.346 -2.76,-6.018 -3.608,-6.69 -4.599,-7.195 -5.734,-7.535 c -1.135,-0.339 -2.349,-0.508 -3.641,-0.508 -0.874,0 -1.686,0.071 -2.436,0.215 -0.75,0.143 -1.412,0.316 -1.986,0.518 -0.575,0.203 -1.054,0.414 -1.439,0.637 -0.385,0.221 -0.662,0.417 -0.831,0.587 -0.17,0.169 -0.291,0.414 -0.363,0.733 -0.071,0.32 -0.107,0.78 -0.107,1.38 0,0.405 0.013,0.744 0.039,1.018 0.026,0.274 0.068,0.496 0.127,0.665 0.059,0.17 0.137,0.29 0.235,0.362 0.098,0.072 0.212,0.108 0.343,0.108 0.182,0 0.44,-0.108 0.772,-0.323 0.333,-0.215 0.76,-0.453 1.282,-0.714 0.522,-0.261 1.145,-0.499 1.869,-0.715 0.724,-0.215 1.563,-0.323 2.515,-0.323 0.626,0 1.188,0.076 1.683,0.226 0.496,0.149 0.917,0.362 1.262,0.636 0.346,0.274 0.61,0.613 0.793,1.017 0.183,0.405 0.274,0.855 0.274,1.35 0,0.575 -0.157,1.067 -0.469,1.478 -0.313,0.411 -0.722,0.776 -1.224,1.096 -0.502,0.32 -1.073,0.62 -1.712,0.901 -0.64,0.28 -1.298,0.577 -1.977,0.89 -0.678,0.313 -1.337,0.668 -1.976,1.067 -0.64,0.397 -1.211,0.873 -1.713,1.428 -0.502,0.555 -0.91,1.21 -1.223,1.967 -0.313,0.756 -0.469,1.663 -0.469,2.72 0,1.213 0.225,2.28 0.675,3.2 0.45,0.919 1.056,1.683 1.82,2.29 0.763,0.606 1.663,1.06 2.7,1.36 1.037,0.3 2.137,0.45 3.298,0.45 0.6,0 1.2,-0.046 1.801,-0.137 0.6,-0.091 1.161,-0.215 1.683,-0.372 0.521,-0.156 0.984,-0.333 1.389,-0.528 0.404,-0.196 0.672,-0.359 0.803,-0.49 0.13,-0.13 0.218,-0.241 0.264,-0.332 0.045,-0.092 0.084,-0.213 0.117,-0.363 0.033,-0.149 0.056,-0.339 0.069,-0.567 0.012,-0.228 0.019,-0.512 0.019,-0.851 0,-0.379 -0.01,-0.698 -0.029,-0.959 -0.02,-0.261 -0.053,-0.477 -0.098,-0.646 -0.046,-0.17 -0.111,-0.293 -0.196,-0.372 -0.085,-0.078 -0.199,-0.117 -0.342,-0.117 -0.144,0 -0.372,0.091 -0.685,0.274 -0.313,0.182 -0.699,0.382 -1.155,0.596 -0.457,0.216 -0.985,0.412 -1.585,0.588 -0.6,0.176 -1.259,0.264 -1.977,0.264 -0.561,0 -1.05,-0.068 -1.467,-0.206 -0.418,-0.136 -0.767,-0.326 -1.047,-0.567 -0.281,-0.242 -0.49,-0.532 -0.627,-0.871 -0.137,-0.339 -0.205,-0.698 -0.205,-1.076 0,-0.561 0.153,-1.047 0.46,-1.458 0.306,-0.411 0.717,-0.777 1.233,-1.096 0.515,-0.32 1.099,-0.62 1.751,-0.9 C -6.785,7.714 -6.119,7.417 -5.441,7.104 -4.763,6.791 -4.097,6.435 -3.444,6.038 -2.792,5.639 -2.211,5.163 -1.703,4.609 -1.194,4.054 -0.783,3.402 -0.47,2.652 -0.157,1.901 0,1.018 0,0"
             style="fill:#1e2853;fill-opacity:1;fill-rule:nonzero;stroke:none"
             id="path94" />
        </g>
        <g
           id="g96"
           transform="translate(220.4712,248.7935)">
          <path
             d="m 0,0 h -0.02 l -3.581,-10.764 h 7.182 z m 11.625,-18.572 c 0.156,-0.47 0.254,-0.842 0.293,-1.116 0.039,-0.274 -0.013,-0.479 -0.156,-0.616 -0.144,-0.137 -0.399,-0.222 -0.763,-0.255 -0.366,-0.032 -0.869,-0.048 -1.508,-0.048 -0.665,0 -1.183,0.009 -1.555,0.029 -0.373,0.019 -0.656,0.058 -0.852,0.117 -0.195,0.059 -0.333,0.14 -0.411,0.245 -0.078,0.104 -0.143,0.241 -0.195,0.411 l -1.703,5.088 h -9.511 l -1.605,-4.951 c -0.052,-0.183 -0.121,-0.336 -0.205,-0.46 -0.085,-0.124 -0.223,-0.222 -0.412,-0.294 -0.189,-0.071 -0.456,-0.12 -0.802,-0.146 -0.345,-0.027 -0.799,-0.039 -1.36,-0.039 -0.6,0 -1.07,0.019 -1.409,0.058 -0.34,0.039 -0.575,0.133 -0.704,0.284 -0.131,0.15 -0.177,0.362 -0.138,0.636 0.039,0.274 0.138,0.639 0.294,1.096 l 7.808,22.467 c 0.079,0.221 0.17,0.4 0.274,0.538 0.105,0.137 0.271,0.241 0.499,0.313 0.229,0.071 0.545,0.117 0.95,0.137 0.404,0.019 0.939,0.029 1.605,0.029 0.769,0 1.382,-0.01 1.839,-0.029 C 2.354,4.902 2.71,4.856 2.965,4.785 3.219,4.713 3.402,4.605 3.513,4.462 3.624,4.318 3.718,4.123 3.796,3.875 Z"
             style="fill:#1e2853;fill-opacity:1;fill-rule:nonzero;stroke:none"
             id="path98" />
        </g>
        <g
           id="g100"
           transform="translate(250.6084,235.8965)">
          <path
             d="M 0,0 C 0,-1.331 -0.248,-2.499 -0.744,-3.503 -1.24,-4.508 -1.912,-5.346 -2.76,-6.018 -3.608,-6.69 -4.599,-7.195 -5.734,-7.535 c -1.135,-0.339 -2.349,-0.508 -3.641,-0.508 -0.874,0 -1.686,0.071 -2.436,0.215 -0.75,0.143 -1.412,0.316 -1.986,0.518 -0.575,0.203 -1.054,0.414 -1.439,0.637 -0.385,0.221 -0.662,0.417 -0.831,0.587 -0.17,0.169 -0.291,0.414 -0.363,0.733 -0.071,0.32 -0.107,0.78 -0.107,1.38 0,0.405 0.013,0.744 0.039,1.018 0.026,0.274 0.068,0.496 0.127,0.665 0.059,0.17 0.137,0.29 0.235,0.362 0.098,0.072 0.212,0.108 0.343,0.108 0.182,0 0.44,-0.108 0.772,-0.323 0.333,-0.215 0.76,-0.453 1.282,-0.714 0.522,-0.261 1.145,-0.499 1.869,-0.715 0.724,-0.215 1.563,-0.323 2.515,-0.323 0.626,0 1.188,0.076 1.683,0.226 0.496,0.149 0.917,0.362 1.262,0.636 0.346,0.274 0.61,0.613 0.793,1.017 0.183,0.405 0.274,0.855 0.274,1.35 0,0.575 -0.157,1.067 -0.469,1.478 -0.313,0.411 -0.722,0.776 -1.224,1.096 -0.502,0.32 -1.073,0.62 -1.712,0.901 -0.64,0.28 -1.298,0.577 -1.977,0.89 -0.678,0.313 -1.337,0.668 -1.976,1.067 -0.64,0.397 -1.211,0.873 -1.713,1.428 -0.502,0.555 -0.91,1.21 -1.223,1.967 -0.313,0.756 -0.469,1.663 -0.469,2.72 0,1.213 0.225,2.28 0.675,3.2 0.45,0.919 1.056,1.683 1.82,2.29 0.763,0.606 1.663,1.06 2.7,1.36 1.037,0.3 2.137,0.45 3.298,0.45 0.6,0 1.2,-0.046 1.801,-0.137 0.6,-0.091 1.161,-0.215 1.683,-0.372 0.521,-0.156 0.984,-0.333 1.389,-0.528 0.404,-0.196 0.672,-0.359 0.803,-0.49 0.13,-0.13 0.218,-0.241 0.264,-0.332 0.045,-0.092 0.084,-0.213 0.117,-0.363 0.033,-0.149 0.056,-0.339 0.069,-0.567 0.012,-0.228 0.019,-0.512 0.019,-0.851 0,-0.379 -0.01,-0.698 -0.029,-0.959 -0.02,-0.261 -0.053,-0.477 -0.098,-0.646 -0.046,-0.17 -0.111,-0.293 -0.196,-0.372 -0.085,-0.078 -0.199,-0.117 -0.342,-0.117 -0.144,0 -0.372,0.091 -0.685,0.274 -0.313,0.182 -0.699,0.382 -1.155,0.596 -0.457,0.216 -0.985,0.412 -1.585,0.588 -0.6,0.176 -1.259,0.264 -1.977,0.264 -0.561,0 -1.05,-0.068 -1.467,-0.206 -0.418,-0.136 -0.767,-0.326 -1.047,-0.567 -0.281,-0.242 -0.49,-0.532 -0.627,-0.871 -0.137,-0.339 -0.205,-0.698 -0.205,-1.076 0,-0.561 0.153,-1.047 0.46,-1.458 0.306,-0.411 0.717,-0.777 1.233,-1.096 0.515,-0.32 1.099,-0.62 1.751,-0.9 C -6.785,7.714 -6.119,7.417 -5.441,7.104 -4.763,6.791 -4.097,6.435 -3.444,6.038 -2.792,5.639 -2.211,5.163 -1.703,4.609 -1.194,4.054 -0.783,3.402 -0.47,2.652 -0.157,1.901 0,1.018 0,0"
             style="fill:#1e2853;fill-opacity:1;fill-rule:nonzero;stroke:none"
             id="path102" />
        </g>
        <g
           id="g104"
           transform="translate(262.1304,235.3486)">
          <path
             d="m 0,0 c 0,-1.148 -0.107,-2.182 -0.323,-3.102 -0.215,-0.92 -0.58,-1.703 -1.096,-2.348 -0.516,-0.646 -1.19,-1.139 -2.025,-1.478 -0.835,-0.339 -1.866,-0.509 -3.093,-0.509 -0.391,0 -0.779,0.03 -1.164,0.088 -0.385,0.059 -0.737,0.134 -1.057,0.225 -0.32,0.091 -0.596,0.189 -0.831,0.294 -0.235,0.104 -0.392,0.199 -0.47,0.284 -0.078,0.085 -0.144,0.172 -0.196,0.264 -0.052,0.091 -0.098,0.212 -0.137,0.362 -0.039,0.149 -0.065,0.336 -0.078,0.558 -0.013,0.221 -0.02,0.502 -0.02,0.841 0,0.443 0.01,0.819 0.03,1.125 0.019,0.307 0.052,0.548 0.098,0.725 0.045,0.176 0.11,0.299 0.195,0.371 0.085,0.072 0.192,0.108 0.323,0.108 0.117,0 0.255,-0.042 0.411,-0.127 0.157,-0.085 0.333,-0.173 0.529,-0.264 0.196,-0.092 0.424,-0.18 0.685,-0.265 0.261,-0.085 0.567,-0.127 0.919,-0.127 0.353,0 0.662,0.049 0.93,0.147 0.267,0.098 0.489,0.267 0.665,0.509 0.177,0.241 0.31,0.564 0.401,0.968 0.092,0.405 0.137,0.927 0.137,1.566 v 17.398 c 0,0.131 0.042,0.245 0.128,0.343 0.084,0.098 0.222,0.179 0.411,0.244 0.189,0.066 0.453,0.114 0.792,0.147 0.339,0.032 0.757,0.049 1.253,0.049 0.496,0 0.906,-0.017 1.233,-0.049 0.326,-0.033 0.59,-0.081 0.792,-0.147 0.203,-0.065 0.346,-0.146 0.431,-0.244 C -0.042,17.858 0,17.744 0,17.613 Z"
             style="fill:#1e2853;fill-opacity:1;fill-rule:nonzero;stroke:none"
             id="path106" />
        </g>
        <g
           id="g108"
           transform="translate(284.9487,240.9849)">
          <path
             d="m 0,0 c 0,1.331 -0.104,2.541 -0.313,3.63 -0.209,1.089 -0.564,2.022 -1.066,2.799 -0.503,0.776 -1.172,1.376 -2.007,1.8 -0.835,0.424 -1.878,0.636 -3.131,0.636 -1.265,0 -2.322,-0.238 -3.17,-0.714 -0.848,-0.477 -1.533,-1.112 -2.055,-1.908 -0.522,-0.796 -0.89,-1.726 -1.106,-2.789 -0.215,-1.063 -0.323,-2.189 -0.323,-3.376 0,-1.383 0.105,-2.625 0.314,-3.728 0.208,-1.102 0.56,-2.045 1.056,-2.828 0.496,-0.783 1.161,-1.379 1.996,-1.791 0.835,-0.411 1.886,-0.616 3.151,-0.616 1.266,0 2.322,0.235 3.171,0.704 0.848,0.47 1.532,1.109 2.054,1.918 0.522,0.809 0.891,1.752 1.106,2.828 C -0.107,-2.358 0,-1.213 0,0 m 5.401,0.274 c 0,-2.101 -0.26,-3.98 -0.782,-5.636 C 4.097,-7.02 3.32,-8.425 2.29,-9.58 c -1.031,-1.154 -2.307,-2.035 -3.826,-2.642 -1.52,-0.607 -3.278,-0.91 -5.275,-0.91 -1.969,0 -3.689,0.258 -5.156,0.773 -1.468,0.516 -2.691,1.302 -3.67,2.359 -0.978,1.056 -1.712,2.4 -2.201,4.031 -0.49,1.631 -0.734,3.562 -0.734,5.793 0,2.048 0.261,3.891 0.783,5.529 0.521,1.637 1.298,3.029 2.329,4.178 1.03,1.148 2.306,2.028 3.826,2.642 1.519,0.613 3.284,0.919 5.293,0.919 1.918,0 3.611,-0.254 5.079,-0.763 C 0.206,11.82 1.432,11.038 2.417,9.981 3.402,8.924 4.146,7.59 4.648,5.979 5.15,4.367 5.401,2.466 5.401,0.274"
             style="fill:#1e2853;fill-opacity:1;fill-rule:nonzero;stroke:none"
             id="path110" />
        </g>
        <g
           id="g112"
           transform="translate(315.5566,230.1035)">
          <path
             d="M 0,0 C 0,-0.3 -0.052,-0.567 -0.157,-0.802 -0.261,-1.037 -0.401,-1.233 -0.578,-1.389 -0.753,-1.546 -0.962,-1.66 -1.204,-1.732 -1.445,-1.803 -1.69,-1.839 -1.937,-1.839 h -2.192 c -0.457,0 -0.852,0.045 -1.184,0.136 -0.333,0.092 -0.64,0.258 -0.92,0.499 -0.281,0.242 -0.552,0.568 -0.812,0.979 C -7.307,0.186 -7.6,0.718 -7.926,1.37 l -6.302,11.84 c -0.365,0.705 -0.737,1.464 -1.115,2.28 -0.379,0.815 -0.718,1.608 -1.018,2.378 H -16.4 c 0.052,-0.939 0.091,-1.876 0.117,-2.808 0.026,-0.934 0.039,-1.896 0.039,-2.887 V -1.076 c 0,-0.131 -0.036,-0.248 -0.107,-0.352 -0.072,-0.105 -0.196,-0.193 -0.372,-0.265 -0.176,-0.072 -0.414,-0.127 -0.714,-0.166 -0.301,-0.039 -0.685,-0.058 -1.155,-0.058 -0.457,0 -0.835,0.019 -1.135,0.058 -0.3,0.039 -0.535,0.094 -0.705,0.166 -0.169,0.072 -0.287,0.16 -0.352,0.265 -0.065,0.104 -0.098,0.221 -0.098,0.352 v 22.76 c 0,0.613 0.179,1.073 0.538,1.38 0.359,0.306 0.8,0.46 1.322,0.46 h 2.759 c 0.495,0 0.913,-0.043 1.252,-0.128 0.34,-0.084 0.643,-0.225 0.91,-0.42 0.268,-0.196 0.519,-0.467 0.754,-0.812 0.235,-0.346 0.476,-0.773 0.724,-1.282 l 4.932,-9.257 c 0.287,-0.561 0.57,-1.112 0.851,-1.654 0.28,-0.541 0.551,-1.083 0.812,-1.624 0.261,-0.542 0.515,-1.074 0.763,-1.595 0.248,-0.522 0.49,-1.044 0.724,-1.565 h 0.02 C -4.56,6.1 -4.589,7.052 -4.609,8.043 -4.628,9.035 -4.638,9.981 -4.638,10.881 V 22.76 c 0,0.131 0.039,0.248 0.117,0.353 0.078,0.104 0.209,0.196 0.392,0.274 0.182,0.078 0.423,0.134 0.724,0.166 0.3,0.032 0.685,0.049 1.154,0.049 0.444,0 0.815,-0.017 1.116,-0.049 0.3,-0.032 0.531,-0.088 0.695,-0.166 0.163,-0.078 0.276,-0.17 0.342,-0.274 C -0.033,23.008 0,22.891 0,22.76 Z"
             style="fill:#1e2853;fill-opacity:1;fill-rule:nonzero;stroke:none"
             id="path114" />
        </g>
        <g
           id="g116"
           transform="translate(139.3525,191.231)">
          <path
             d="m 0,0 c 0,-0.369 -0.12,-0.672 -0.36,-0.912 -0.24,-0.24 -0.544,-0.36 -0.912,-0.36 -0.353,0 -0.648,0.12 -0.888,0.36 -0.24,0.24 -0.36,0.543 -0.36,0.912 0,0.352 0.12,0.648 0.36,0.888 0.24,0.24 0.535,0.36 0.888,0.36 0.368,0 0.672,-0.12 0.912,-0.36 C -0.12,0.648 0,0.352 0,0 m -3.888,-15.24 v 0.888 h 1.824 v 8.64 h -2.088 v 0.648 l 3.456,0.936 h 0.432 V -14.352 H 1.56 v -0.888 z"
             style="fill:#110f0d;fill-opacity:1;fill-rule:nonzero;stroke:none"
             id="path118" />
        </g>
        <g
           id="g120"
           transform="translate(149.4805,175.9907)">
          <path
             d="M 0,0 V 0.888 H 1.8 V 7.92 C 1.8,8.56 1.648,9.064 1.344,9.432 1.04,9.8 0.624,9.984 0.096,9.984 -0.16,9.984 -0.4,9.948 -0.624,9.876 -0.848,9.804 -1.096,9.664 -1.368,9.456 -1.64,9.248 -1.952,8.956 -2.304,8.58 -2.656,8.204 -3.096,7.72 -3.624,7.128 V 0.888 H -1.8 V 0 h -5.448 v 0.888 h 1.824 v 8.64 h -2.088 v 0.648 l 3.456,0.936 h 0.432 V 8.424 c 0.448,0.528 0.856,0.964 1.224,1.308 0.368,0.344 0.72,0.624 1.056,0.84 0.336,0.216 0.672,0.368 1.008,0.456 0.336,0.088 0.696,0.132 1.08,0.132 0.896,0 1.6,-0.268 2.112,-0.804 C 3.368,9.82 3.624,9.088 3.624,8.16 V 0.888 h 1.8 V 0 Z"
             style="fill:#110f0d;fill-opacity:1;fill-rule:nonzero;stroke:none"
             id="path122" />
        </g>
        <g
           id="g124"
           transform="translate(163.52,175.9907)">
          <path
             d="M 0,0 V 0.888 H 1.8 V 7.92 C 1.8,8.56 1.648,9.064 1.344,9.432 1.04,9.8 0.624,9.984 0.096,9.984 -0.16,9.984 -0.4,9.948 -0.624,9.876 -0.848,9.804 -1.096,9.664 -1.368,9.456 -1.64,9.248 -1.952,8.956 -2.304,8.58 -2.656,8.204 -3.096,7.72 -3.624,7.128 V 0.888 H -1.8 V 0 h -5.448 v 0.888 h 1.824 v 8.64 h -2.088 v 0.648 l 3.456,0.936 h 0.432 V 8.424 c 0.448,0.528 0.856,0.964 1.224,1.308 0.368,0.344 0.72,0.624 1.056,0.84 0.336,0.216 0.672,0.368 1.008,0.456 0.336,0.088 0.696,0.132 1.08,0.132 0.896,0 1.6,-0.268 2.112,-0.804 C 3.368,9.82 3.624,9.088 3.624,8.16 V 0.888 h 1.8 V 0 Z"
             style="fill:#110f0d;fill-opacity:1;fill-rule:nonzero;stroke:none"
             id="path126" />
        </g>
        <g
           id="g128"
           transform="translate(178.6641,185.9746)">
          <path
             d="m 0,0 -3.912,-10.296 h -0.48 L -8.592,0 H -9.6 v 0.888 h 4.656 V 0 h -1.68 L -3.768,-7.08 -1.08,0 H -2.688 V 0.888 H 1.008 L 1.008,0 Z"
             style="fill:#110f0d;fill-opacity:1;fill-rule:nonzero;stroke:none"
             id="path130" />
        </g>
        <g
           id="g132"
           transform="translate(184.3276,191.231)">
          <path
             d="m 0,0 c 0,-0.369 -0.12,-0.672 -0.36,-0.912 -0.24,-0.24 -0.544,-0.36 -0.912,-0.36 -0.353,0 -0.648,0.12 -0.888,0.36 -0.24,0.24 -0.36,0.543 -0.36,0.912 0,0.352 0.12,0.648 0.36,0.888 0.24,0.24 0.535,0.36 0.888,0.36 0.368,0 0.672,-0.12 0.912,-0.36 C -0.12,0.648 0,0.352 0,0 m -3.888,-15.24 v 0.888 h 1.824 v 8.64 h -2.088 v 0.648 l 3.456,0.936 h 0.432 V -14.352 H 1.56 v -0.888 z"
             style="fill:#110f0d;fill-opacity:1;fill-rule:nonzero;stroke:none"
             id="path134" />
        </g>
        <g
           id="g136"
           transform="translate(186.8955,175.9907)">
          <path
             d="m 0,0 v 0.888 h 1.824 v 15.216 h -2.112 v 0.648 l 3.456,0.936 h 0.456 v -16.8 h 1.8 V 0 Z"
             style="fill:#110f0d;fill-opacity:1;fill-rule:nonzero;stroke:none"
             id="path138" />
        </g>
        <g
           id="g140"
           transform="translate(201.2959,183.0708)">
          <path
             d="M 0,0 C 0,0.976 -0.236,1.748 -0.708,2.316 -1.18,2.884 -1.816,3.168 -2.616,3.168 -3.432,3.168 -4.072,2.884 -4.536,2.316 -5,1.748 -5.232,0.976 -5.232,0 c 0,-0.976 0.232,-1.752 0.696,-2.328 0.464,-0.576 1.104,-0.864 1.92,-0.864 0.8,0 1.436,0.288 1.908,0.864 C -0.236,-1.752 0,-0.976 0,0 m 1.44,-9.096 c 0,0.384 -0.084,0.688 -0.252,0.912 C 1.02,-7.96 0.8,-7.848 0.528,-7.848 H -4.92 c -0.32,-0.448 -0.532,-0.812 -0.636,-1.092 -0.105,-0.28 -0.156,-0.58 -0.156,-0.9 0,-0.72 0.304,-1.304 0.912,-1.752 0.608,-0.448 1.392,-0.672 2.352,-0.672 0.528,0 1.028,0.084 1.5,0.252 0.471,0.168 0.884,0.396 1.236,0.684 0.352,0.288 0.632,0.624 0.84,1.008 0.207,0.384 0.312,0.792 0.312,1.224 M 1.128,2.256 C 1.416,1.92 1.616,1.588 1.728,1.26 1.839,0.932 1.896,0.52 1.896,0.024 c 0,-1.28 -0.408,-2.292 -1.224,-3.036 -0.816,-0.744 -1.936,-1.116 -3.36,-1.116 -0.176,0 -0.333,0.003 -0.468,0.012 -0.136,0.008 -0.264,0.024 -0.384,0.048 -0.12,0.024 -0.249,0.052 -0.384,0.084 -0.136,0.032 -0.292,0.08 -0.468,0.144 -0.368,-0.368 -0.629,-0.676 -0.78,-0.924 -0.152,-0.248 -0.228,-0.484 -0.228,-0.708 0,-0.416 0.232,-0.624 0.696,-0.624 h 6 c 0.576,0 1.024,-0.192 1.344,-0.576 0.319,-0.384 0.48,-0.928 0.48,-1.632 0,-0.672 -0.161,-1.308 -0.48,-1.908 -0.32,-0.6 -0.756,-1.124 -1.308,-1.572 -0.552,-0.448 -1.2,-0.8 -1.944,-1.056 -0.744,-0.256 -1.54,-0.384 -2.388,-0.384 -0.512,0 -0.984,0.044 -1.416,0.132 -0.432,0.088 -0.833,0.228 -1.2,0.42 -0.368,0.192 -0.72,0.444 -1.056,0.756 -0.336,0.312 -0.672,0.684 -1.008,1.116 0.128,0.32 0.243,0.592 0.348,0.816 0.103,0.224 0.22,0.444 0.348,0.66 0.128,0.216 0.284,0.444 0.468,0.684 0.183,0.24 0.42,0.544 0.708,0.912 -0.352,0.064 -0.648,0.176 -0.888,0.336 -0.24,0.16 -0.544,0.448 -0.912,0.864 0.208,0.352 0.392,0.656 0.552,0.912 0.16,0.256 0.327,0.492 0.504,0.708 0.176,0.216 0.38,0.428 0.612,0.636 0.232,0.208 0.516,0.456 0.852,0.744 -1.376,0.8 -2.064,1.936 -2.064,3.408 0,1.296 0.408,2.32 1.224,3.072 0.816,0.752 1.911,1.128 3.288,1.128 0.24,0 0.452,-0.008 0.636,-0.024 C -1.82,4.04 -1.636,4.008 -1.452,3.96 -1.269,3.912 -1.064,3.84 -0.84,3.744 -0.616,3.648 -0.344,3.52 -0.024,3.36 H 1.512 L 3.216,3.768 V 2.256 Z"
             style="fill:#110f0d;fill-opacity:1;fill-rule:nonzero;stroke:none"
             id="path142" />
        </g>
        <g
           id="g144"
           transform="translate(213.1035,183.6709)">
          <path
             d="M 0,0 C 0,0.72 -0.22,1.312 -0.66,1.776 -1.1,2.24 -1.672,2.472 -2.376,2.472 -3.256,2.472 -3.98,2.2 -4.548,1.656 -5.116,1.112 -5.457,0.368 -5.568,-0.576 H 0 Z M -5.592,-1.536 V -1.8 c 0,-0.752 0.096,-1.44 0.288,-2.064 0.192,-0.624 0.456,-1.16 0.792,-1.608 0.336,-0.448 0.74,-0.796 1.212,-1.044 0.472,-0.249 0.996,-0.372 1.572,-0.372 0.48,0 0.924,0.076 1.332,0.228 0.408,0.152 0.948,0.444 1.62,0.876 L 1.68,-6.672 C 1.232,-6.928 0.836,-7.14 0.492,-7.308 0.147,-7.476 -0.176,-7.612 -0.48,-7.716 c -0.304,-0.104 -0.604,-0.176 -0.9,-0.216 -0.296,-0.04 -0.62,-0.06 -0.972,-0.06 -0.768,0 -1.468,0.14 -2.1,0.42 -0.632,0.28 -1.18,0.672 -1.644,1.176 -0.464,0.504 -0.824,1.1 -1.08,1.788 -0.256,0.688 -0.384,1.448 -0.384,2.28 0,0.831 0.128,1.604 0.384,2.316 0.256,0.712 0.616,1.328 1.08,1.848 0.464,0.519 1.008,0.924 1.632,1.212 0.624,0.288 1.312,0.432 2.064,0.432 0.64,0 1.228,-0.108 1.764,-0.324 C -0.1,2.94 0.36,2.64 0.744,2.256 1.128,1.872 1.428,1.412 1.644,0.876 1.86,0.339 1.968,-0.249 1.968,-0.888 v -0.648 z"
             style="fill:#110f0d;fill-opacity:1;fill-rule:nonzero;stroke:none"
             id="path146" />
        </g>
        <g
           id="g148"
           transform="translate(222.8232,176.9985)">
          <path
             d="m 0,0 c -0.32,-0.256 -0.596,-0.464 -0.828,-0.624 -0.232,-0.16 -0.444,-0.284 -0.636,-0.372 -0.192,-0.087 -0.38,-0.148 -0.564,-0.18 -0.184,-0.032 -0.388,-0.048 -0.612,-0.048 -0.704,0 -1.252,0.204 -1.644,0.612 -0.392,0.408 -0.588,0.98 -0.588,1.716 V 8.52 H -6.96 v 0.648 l 2.088,0.528 v 3.312 h 1.728 V 9.624 h 2.976 V 8.52 h -2.976 v -7.2 c 0,-0.464 0.084,-0.788 0.252,-0.972 0.168,-0.184 0.452,-0.276 0.852,-0.276 0.256,0 0.488,0.036 0.696,0.108 0.208,0.072 0.52,0.228 0.936,0.468 z"
             style="fill:#110f0d;fill-opacity:1;fill-rule:nonzero;stroke:none"
             id="path150" />
        </g>
        <g
           id="g152"
           transform="translate(235.3989,180.9106)">
          <path
             d="m 0,0 -4.104,-0.96 v -1.2 c 0,-0.512 0.148,-0.916 0.444,-1.212 0.296,-0.296 0.7,-0.444 1.212,-0.444 0.384,0 0.756,0.096 1.116,0.288 0.36,0.192 0.804,0.52 1.332,0.984 z M 2.04,-4.968 C 1.88,-5.016 1.724,-5.056 1.572,-5.088 1.42,-5.12 1.296,-5.136 1.2,-5.136 c -0.368,0 -0.656,0.124 -0.864,0.372 -0.208,0.248 -0.312,0.596 -0.312,1.044 v 0.24 c -0.512,-0.624 -1.012,-1.072 -1.5,-1.344 -0.488,-0.272 -1.052,-0.408 -1.692,-0.408 -0.832,0 -1.52,0.256 -2.064,0.768 -0.544,0.512 -0.816,1.176 -0.816,1.992 0,0.608 0.18,1.144 0.54,1.608 0.36,0.464 0.828,0.76 1.404,0.888 L 0,0.96 V 3.672 C 0,4.152 -0.16,4.548 -0.48,4.86 -0.8,5.172 -1.2,5.328 -1.68,5.328 -1.92,5.328 -2.14,5.304 -2.34,5.256 -2.54,5.208 -2.816,5.096 -3.168,4.92 V 3.768 L -5.304,3.144 c -0.08,0.144 -0.132,0.26 -0.156,0.348 -0.024,0.088 -0.036,0.196 -0.036,0.324 0,0.352 0.096,0.676 0.288,0.972 0.192,0.296 0.456,0.552 0.792,0.768 0.336,0.216 0.736,0.384 1.2,0.504 0.464,0.12 0.968,0.18 1.512,0.18 C -0.648,6.24 0.2,6 0.84,5.52 1.48,5.04 1.8,4.4 1.8,3.6 v -7.392 h 1.848 v -0.672 z"
             style="fill:#110f0d;fill-opacity:1;fill-rule:nonzero;stroke:none"
             id="path154" />
        </g>
        <g
           id="g156"
           transform="translate(248.6709,185.9746)">
          <path
             d="m 0,0 -3.912,-10.296 h -0.48 L -8.592,0 H -9.6 v 0.888 h 4.656 V 0 h -1.68 L -3.768,-7.08 -1.08,0 H -2.688 V 0.888 H 1.008 L 1.008,0 Z"
             style="fill:#110f0d;fill-opacity:1;fill-rule:nonzero;stroke:none"
             id="path158" />
        </g>
        <g
           id="g160"
           transform="translate(159.4302,142.9585)">
          <path
             d="M 0,0 V -15.216 H -0.744 L -9.96,-2.544 v -11.52 h 1.824 v -0.888 h -4.848 v 0.888 h 1.824 V -0.912 L -11.808,0 h -1.656 v 0.888 h 3.48 L -1.2,-11.16 V 0 H -3.024 V 0.888 H 1.8 L 1.8,0 Z"
             style="fill:#110f0d;fill-opacity:1;fill-rule:nonzero;stroke:none"
             id="path162" />
        </g>
        <g
           id="g164"
           transform="translate(169.3901,132.9263)">
          <path
             d="m 0,0 -4.104,-0.96 v -1.2 c 0,-0.512 0.148,-0.916 0.444,-1.212 0.296,-0.296 0.7,-0.444 1.212,-0.444 0.384,0 0.756,0.096 1.116,0.288 0.36,0.192 0.804,0.52 1.332,0.984 z M 2.04,-4.968 C 1.88,-5.016 1.724,-5.056 1.572,-5.088 1.42,-5.12 1.296,-5.136 1.2,-5.136 c -0.368,0 -0.656,0.124 -0.864,0.372 -0.208,0.248 -0.312,0.596 -0.312,1.044 v 0.24 c -0.512,-0.624 -1.012,-1.072 -1.5,-1.344 -0.488,-0.272 -1.052,-0.408 -1.692,-0.408 -0.832,0 -1.52,0.256 -2.064,0.768 -0.544,0.512 -0.816,1.176 -0.816,1.992 0,0.608 0.18,1.144 0.54,1.608 0.36,0.464 0.828,0.76 1.404,0.888 L 0,0.96 V 3.672 C 0,4.152 -0.16,4.548 -0.48,4.86 -0.8,5.172 -1.2,5.328 -1.68,5.328 -1.92,5.328 -2.14,5.304 -2.34,5.256 -2.54,5.208 -2.816,5.096 -3.168,4.92 V 3.768 L -5.304,3.144 c -0.08,0.144 -0.132,0.26 -0.156,0.348 -0.024,0.088 -0.036,0.196 -0.036,0.324 0,0.352 0.096,0.676 0.288,0.972 0.192,0.296 0.456,0.552 0.792,0.768 0.336,0.216 0.736,0.384 1.2,0.504 0.464,0.12 0.968,0.18 1.512,0.18 C -0.648,6.24 0.2,6 0.84,5.52 1.48,5.04 1.8,4.4 1.8,3.6 v -7.392 h 1.848 v -0.672 z"
             style="fill:#110f0d;fill-opacity:1;fill-rule:nonzero;stroke:none"
             id="path166" />
        </g>
        <g
           id="g168"
           transform="translate(182.4214,130.9585)">
          <path
             d="m 0,0 c 0,-0.48 -0.088,-0.92 -0.264,-1.32 -0.176,-0.4 -0.424,-0.744 -0.744,-1.032 -0.32,-0.288 -0.704,-0.512 -1.152,-0.672 -0.448,-0.16 -0.936,-0.24 -1.464,-0.24 -1.344,0 -2.36,0.32 -3.048,0.96 v -0.864 h -0.96 V 0.24 h 1.104 v -0.648 c 0,-0.256 0.076,-0.5 0.228,-0.732 0.152,-0.232 0.36,-0.441 0.624,-0.624 0.264,-0.184 0.568,-0.328 0.912,-0.432 0.344,-0.104 0.7,-0.156 1.068,-0.156 0.672,0 1.224,0.156 1.656,0.468 0.432,0.312 0.648,0.708 0.648,1.188 0,0.24 -0.048,0.456 -0.144,0.648 -0.096,0.192 -0.264,0.384 -0.504,0.576 -0.24,0.192 -0.568,0.388 -0.984,0.588 -0.416,0.2 -0.936,0.42 -1.56,0.66 -1.152,0.448 -1.96,0.92 -2.424,1.416 -0.464,0.496 -0.696,1.12 -0.696,1.872 0,0.464 0.092,0.888 0.276,1.272 0.184,0.384 0.436,0.716 0.756,0.996 0.32,0.28 0.708,0.496 1.164,0.648 0.456,0.152 0.964,0.228 1.524,0.228 1.04,0 1.888,-0.272 2.544,-0.816 l 0.144,0.864 h 1.032 L -0.84,4.8 h -1.032 c 0.048,0.128 0.084,0.264 0.108,0.408 0.024,0.144 0.036,0.271 0.036,0.384 0,0.24 -0.064,0.46 -0.192,0.66 -0.128,0.2 -0.3,0.38 -0.516,0.54 -0.216,0.16 -0.468,0.284 -0.756,0.372 -0.288,0.087 -0.592,0.132 -0.912,0.132 -0.624,0 -1.124,-0.156 -1.5,-0.468 -0.376,-0.312 -0.564,-0.724 -0.564,-1.236 0,-0.256 0.024,-0.468 0.072,-0.636 0.048,-0.168 0.172,-0.328 0.372,-0.48 0.2,-0.152 0.508,-0.32 0.924,-0.504 0.416,-0.184 0.984,-0.42 1.704,-0.708 C -2.504,3.024 -2.012,2.792 -1.62,2.568 -1.228,2.344 -0.912,2.108 -0.672,1.86 -0.432,1.612 -0.26,1.335 -0.156,1.032 -0.052,0.728 0,0.384 0,0"
             style="fill:#110f0d;fill-opacity:1;fill-rule:nonzero;stroke:none"
             id="path170" />
        </g>
        <g
           id="g172"
           transform="translate(188.2056,143.2466)">
          <path
             d="m 0,0 c 0,-0.369 -0.124,-0.672 -0.372,-0.912 -0.248,-0.24 -0.548,-0.36 -0.9,-0.36 -0.352,0 -0.652,0.12 -0.9,0.36 -0.248,0.24 -0.372,0.543 -0.372,0.912 0,0.352 0.124,0.648 0.372,0.888 0.248,0.24 0.548,0.36 0.9,0.36 0.352,0 0.652,-0.12 0.9,-0.36 C -0.124,0.648 0,0.352 0,0 m -0.264,-16.992 c -0.224,-0.528 -0.42,-0.972 -0.588,-1.332 -0.168,-0.36 -0.352,-0.696 -0.552,-1.008 -0.2,-0.312 -0.424,-0.624 -0.672,-0.936 -0.248,-0.312 -0.564,-0.684 -0.948,-1.116 l -0.576,0.456 c 0.336,0.576 0.608,1.06 0.816,1.452 0.208,0.392 0.368,0.76 0.48,1.104 0.112,0.344 0.184,0.692 0.216,1.044 0.032,0.352 0.048,0.784 0.048,1.296 v 10.32 h -2.136 v 0.648 l 3.456,0.936 h 0.456 z"
             style="fill:#110f0d;fill-opacity:1;fill-rule:nonzero;stroke:none"
             id="path174" />
        </g>
        <g
           id="g176"
           transform="translate(199.4375,133.4302)">
          <path
             d="m 0,0 c 0,0.672 -0.084,1.296 -0.252,1.872 -0.168,0.576 -0.396,1.076 -0.684,1.5 -0.288,0.424 -0.628,0.756 -1.02,0.996 -0.393,0.24 -0.813,0.36 -1.26,0.36 -0.448,0 -0.868,-0.12 -1.26,-0.36 -0.393,-0.24 -0.732,-0.572 -1.02,-0.996 -0.288,-0.424 -0.512,-0.924 -0.672,-1.5 -0.16,-0.576 -0.24,-1.2 -0.24,-1.872 0,-0.656 0.08,-1.272 0.24,-1.848 0.16,-0.576 0.384,-1.076 0.672,-1.5 0.288,-0.424 0.627,-0.76 1.02,-1.008 0.392,-0.248 0.812,-0.372 1.26,-0.372 0.447,0 0.867,0.12 1.26,0.36 0.392,0.24 0.732,0.572 1.02,0.996 0.288,0.424 0.516,0.924 0.684,1.5 C -0.084,-1.296 0,-0.672 0,0 m 2.04,0 c 0,-0.8 -0.136,-1.548 -0.408,-2.244 -0.273,-0.696 -0.648,-1.3 -1.128,-1.812 -0.48,-0.512 -1.041,-0.92 -1.68,-1.224 -0.64,-0.303 -1.32,-0.456 -2.04,-0.456 -0.72,0 -1.4,0.153 -2.04,0.456 -0.64,0.304 -1.2,0.712 -1.68,1.224 -0.48,0.512 -0.856,1.116 -1.128,1.812 -0.272,0.696 -0.408,1.444 -0.408,2.244 0,0.784 0.136,1.528 0.408,2.232 0.272,0.704 0.648,1.312 1.128,1.824 0.48,0.512 1.04,0.92 1.68,1.224 0.64,0.304 1.32,0.456 2.04,0.456 0.72,0 1.4,-0.152 2.04,-0.456 0.639,-0.304 1.2,-0.712 1.68,-1.224 C 0.984,3.544 1.359,2.936 1.632,2.232 1.904,1.528 2.04,0.784 2.04,0"
             style="fill:#110f0d;fill-opacity:1;fill-rule:nonzero;stroke:none"
             id="path178" />
        </g>
        <g
           id="g180"
           transform="translate(210.3809,128.0063)">
          <path
             d="M 0,0 V 0.888 H 1.8 V 7.92 C 1.8,8.56 1.648,9.064 1.344,9.432 1.04,9.8 0.624,9.984 0.096,9.984 -0.16,9.984 -0.4,9.948 -0.624,9.876 -0.848,9.804 -1.096,9.664 -1.368,9.456 -1.64,9.248 -1.952,8.956 -2.304,8.58 -2.656,8.204 -3.096,7.72 -3.624,7.128 V 0.888 H -1.8 V 0 h -5.448 v 0.888 h 1.824 v 8.64 h -2.088 v 0.648 l 3.456,0.936 h 0.432 V 8.424 c 0.448,0.528 0.856,0.964 1.224,1.308 0.368,0.344 0.72,0.624 1.056,0.84 0.336,0.216 0.672,0.368 1.008,0.456 0.336,0.088 0.696,0.132 1.08,0.132 0.896,0 1.6,-0.268 2.112,-0.804 C 3.368,9.82 3.624,9.088 3.624,8.16 V 0.888 h 1.8 V 0 Z"
             style="fill:#110f0d;fill-opacity:1;fill-rule:nonzero;stroke:none"
             id="path182" />
        </g>
        <g
           id="g184"
           transform="translate(223.2207,132.9263)">
          <path
             d="m 0,0 -4.104,-0.96 v -1.2 c 0,-0.512 0.148,-0.916 0.444,-1.212 0.296,-0.296 0.7,-0.444 1.212,-0.444 0.384,0 0.756,0.096 1.116,0.288 0.36,0.192 0.804,0.52 1.332,0.984 z M 2.04,-4.968 C 1.88,-5.016 1.724,-5.056 1.572,-5.088 1.42,-5.12 1.296,-5.136 1.2,-5.136 c -0.368,0 -0.656,0.124 -0.864,0.372 -0.208,0.248 -0.312,0.596 -0.312,1.044 v 0.24 c -0.512,-0.624 -1.012,-1.072 -1.5,-1.344 -0.488,-0.272 -1.052,-0.408 -1.692,-0.408 -0.832,0 -1.52,0.256 -2.064,0.768 -0.544,0.512 -0.816,1.176 -0.816,1.992 0,0.608 0.18,1.144 0.54,1.608 0.36,0.464 0.828,0.76 1.404,0.888 L 0,0.96 V 3.672 C 0,4.152 -0.16,4.548 -0.48,4.86 -0.8,5.172 -1.2,5.328 -1.68,5.328 -1.92,5.328 -2.14,5.304 -2.34,5.256 -2.54,5.208 -2.816,5.096 -3.168,4.92 V 3.768 L -5.304,3.144 c -0.08,0.144 -0.132,0.26 -0.156,0.348 -0.024,0.088 -0.036,0.196 -0.036,0.324 0,0.352 0.096,0.676 0.288,0.972 0.192,0.296 0.456,0.552 0.792,0.768 0.336,0.216 0.736,0.384 1.2,0.504 0.464,0.12 0.968,0.18 1.512,0.18 C -0.648,6.24 0.2,6 0.84,5.52 1.48,5.04 1.8,4.4 1.8,3.6 v -7.392 h 1.848 v -0.672 z"
             style="fill:#110f0d;fill-opacity:1;fill-rule:nonzero;stroke:none"
             id="path186" />
        </g>
        <g
           id="g188"
           transform="translate(227.8286,128.0063)">
          <path
             d="m 0,0 v 0.888 h 1.824 v 15.216 h -2.112 v 0.648 l 3.456,0.936 h 0.456 v -16.8 h 1.8 V 0 Z"
             style="fill:#110f0d;fill-opacity:1;fill-rule:nonzero;stroke:none"
             id="path190" />
        </g>
        <g
           id="g192"
           transform="translate(113.1851,99.1938)">
          <path
             d="m 0,0 -4.92,5.904 4.296,4.08 h -1.56 v 0.888 H 2.592 V 9.984 H 0.744 L -2.976,6.432 1.608,0.888 H 2.976 V 0 Z m -8.736,0 v 0.888 h 1.824 v 15.216 h -2.112 v 0.648 l 3.456,0.936 h 0.456 v -16.8 h 1.8 V 0 Z"
             style="fill:#110f0d;fill-opacity:1;fill-rule:nonzero;stroke:none"
             id="path194" />
        </g>
        <g
           id="g196"
           transform="translate(124.6094,104.6177)">
          <path
             d="m 0,0 c 0,0.672 -0.084,1.296 -0.252,1.872 -0.168,0.576 -0.396,1.076 -0.684,1.5 -0.288,0.424 -0.628,0.756 -1.02,0.996 -0.393,0.24 -0.813,0.361 -1.26,0.361 -0.448,0 -0.868,-0.121 -1.26,-0.361 -0.393,-0.24 -0.732,-0.572 -1.02,-0.996 -0.288,-0.424 -0.512,-0.924 -0.672,-1.5 -0.16,-0.576 -0.24,-1.2 -0.24,-1.872 0,-0.656 0.08,-1.271 0.24,-1.848 0.16,-0.576 0.384,-1.076 0.672,-1.5 0.288,-0.423 0.627,-0.76 1.02,-1.007 0.392,-0.249 0.812,-0.373 1.26,-0.373 0.447,0 0.867,0.121 1.26,0.36 0.392,0.24 0.732,0.572 1.02,0.996 0.288,0.424 0.516,0.924 0.684,1.5 C -0.084,-1.296 0,-0.672 0,0 m 2.04,0 c 0,-0.8 -0.136,-1.548 -0.408,-2.244 -0.273,-0.695 -0.648,-1.3 -1.128,-1.812 -0.48,-0.512 -1.041,-0.921 -1.68,-1.224 -0.64,-0.304 -1.32,-0.455 -2.04,-0.455 -0.72,0 -1.4,0.151 -2.04,0.455 -0.64,0.303 -1.2,0.712 -1.68,1.224 -0.48,0.512 -0.856,1.117 -1.128,1.812 -0.272,0.696 -0.408,1.444 -0.408,2.244 0,0.784 0.136,1.528 0.408,2.232 0.272,0.705 0.648,1.312 1.128,1.825 0.48,0.511 1.04,0.92 1.68,1.223 0.64,0.304 1.32,0.456 2.04,0.456 0.72,0 1.4,-0.152 2.04,-0.456 0.639,-0.303 1.2,-0.712 1.68,-1.223 C 0.984,3.544 1.359,2.937 1.632,2.232 1.904,1.528 2.04,0.784 2.04,0"
             style="fill:#110f0d;fill-opacity:1;fill-rule:nonzero;stroke:none"
             id="path198" />
        </g>
        <g
           id="g200"
           transform="translate(142.7769,99.1938)">
          <path
             d="M 0,0 V 0.888 H 1.824 V 7.92 C 1.824,8.576 1.671,9.08 1.368,9.432 1.063,9.784 0.648,9.96 0.12,9.96 -0.28,9.96 -0.66,9.855 -1.02,9.648 -1.38,9.439 -1.816,9.056 -2.328,8.496 L -3.6,7.128 v -6.24 h 1.8 V 0 h -5.424 v 0.888 h 1.8 V 7.92 c 0,0.64 -0.152,1.143 -0.456,1.512 C -6.184,9.8 -6.6,9.984 -7.128,9.984 -7.384,9.984 -7.625,9.948 -7.848,9.876 -8.072,9.804 -8.32,9.664 -8.592,9.456 -8.864,9.248 -9.176,8.956 -9.528,8.58 -9.88,8.204 -10.32,7.72 -10.848,7.128 v -6.24 h 1.824 V 0 h -5.448 v 0.888 h 1.824 v 8.64 h -2.088 v 0.648 l 3.456,0.936 h 0.432 V 8.424 c 0.448,0.528 0.856,0.964 1.224,1.308 0.368,0.344 0.72,0.623 1.056,0.84 0.336,0.216 0.672,0.368 1.008,0.456 0.336,0.088 0.696,0.132 1.08,0.132 1.68,0 2.64,-0.912 2.88,-2.736 0.448,0.528 0.855,0.964 1.224,1.308 0.368,0.344 0.72,0.623 1.056,0.84 0.336,0.216 0.668,0.368 0.996,0.456 0.327,0.088 0.684,0.132 1.068,0.132 0.896,0 1.6,-0.268 2.112,-0.805 C 3.368,9.819 3.624,9.096 3.624,8.184 V 0.888 h 1.8 V 0 Z"
             style="fill:#110f0d;fill-opacity:1;fill-rule:nonzero;stroke:none"
             id="path202" />
        </g>
        <g
           id="g204"
           transform="translate(163.9932,99.1938)">
          <path
             d="M 0,0 V 0.888 H 1.824 V 7.92 C 1.824,8.576 1.671,9.08 1.368,9.432 1.063,9.784 0.648,9.96 0.12,9.96 -0.28,9.96 -0.66,9.855 -1.02,9.648 -1.38,9.439 -1.816,9.056 -2.328,8.496 L -3.6,7.128 v -6.24 h 1.8 V 0 h -5.424 v 0.888 h 1.8 V 7.92 c 0,0.64 -0.152,1.143 -0.456,1.512 C -6.184,9.8 -6.6,9.984 -7.128,9.984 -7.384,9.984 -7.625,9.948 -7.848,9.876 -8.072,9.804 -8.32,9.664 -8.592,9.456 -8.864,9.248 -9.176,8.956 -9.528,8.58 -9.88,8.204 -10.32,7.72 -10.848,7.128 v -6.24 h 1.824 V 0 h -5.448 v 0.888 h 1.824 v 8.64 h -2.088 v 0.648 l 3.456,0.936 h 0.432 V 8.424 c 0.448,0.528 0.856,0.964 1.224,1.308 0.368,0.344 0.72,0.623 1.056,0.84 0.336,0.216 0.672,0.368 1.008,0.456 0.336,0.088 0.696,0.132 1.08,0.132 1.68,0 2.64,-0.912 2.88,-2.736 0.448,0.528 0.855,0.964 1.224,1.308 0.368,0.344 0.72,0.623 1.056,0.84 0.336,0.216 0.668,0.368 0.996,0.456 0.327,0.088 0.684,0.132 1.068,0.132 0.896,0 1.6,-0.268 2.112,-0.805 C 3.368,9.819 3.624,9.096 3.624,8.184 V 0.888 h 1.8 V 0 Z"
             style="fill:#110f0d;fill-opacity:1;fill-rule:nonzero;stroke:none"
             id="path206" />
        </g>
        <g
           id="g208"
           transform="translate(179.9287,99.0015)">
          <path
             d="M 0,0 H -0.432 V 2.712 C -0.864,2.185 -1.264,1.74 -1.632,1.381 -2,1.021 -2.356,0.729 -2.7,0.504 -3.044,0.28 -3.384,0.12 -3.72,0.024 -4.056,-0.071 -4.408,-0.119 -4.776,-0.119 -5.688,-0.119 -6.4,0.156 -6.912,0.708 -7.424,1.261 -7.68,2.017 -7.68,2.977 v 6.744 h -2.088 v 0.647 l 3.456,0.936 h 0.456 V 3.265 c 0,-1.456 0.584,-2.185 1.752,-2.185 0.448,0 0.832,0.105 1.152,0.313 0.32,0.208 0.728,0.584 1.224,1.128 l 1.296,1.439 v 5.761 h -1.824 v 0.743 l 3.168,0.84 H 1.368 V 1.536 H 3.456 V 0.864 Z"
             style="fill:#110f0d;fill-opacity:1;fill-rule:nonzero;stroke:none"
             id="path210" />
        </g>
        <g
           id="g212"
           transform="translate(191.7607,99.1938)">
          <path
             d="M 0,0 V 0.888 H 1.8 V 7.92 C 1.8,8.56 1.648,9.063 1.344,9.432 1.04,9.8 0.624,9.984 0.096,9.984 -0.16,9.984 -0.4,9.948 -0.624,9.876 -0.848,9.804 -1.096,9.664 -1.368,9.456 -1.64,9.248 -1.952,8.956 -2.304,8.58 -2.656,8.204 -3.096,7.72 -3.624,7.128 V 0.888 H -1.8 V 0 h -5.448 v 0.888 h 1.824 v 8.64 h -2.088 v 0.648 l 3.456,0.936 h 0.432 V 8.424 c 0.448,0.528 0.856,0.964 1.224,1.308 0.368,0.344 0.72,0.623 1.056,0.84 0.336,0.216 0.672,0.368 1.008,0.456 0.336,0.088 0.696,0.132 1.08,0.132 0.896,0 1.6,-0.268 2.112,-0.805 C 3.368,9.819 3.624,9.088 3.624,8.16 V 0.888 h 1.8 V 0 Z"
             style="fill:#110f0d;fill-opacity:1;fill-rule:nonzero;stroke:none"
             id="path214" />
        </g>
        <g
           id="g216"
           transform="translate(202.4404,114.4341)">
          <path
             d="m 0,0 c 0,-0.369 -0.12,-0.672 -0.36,-0.912 -0.24,-0.24 -0.544,-0.36 -0.912,-0.36 -0.353,0 -0.648,0.12 -0.888,0.36 -0.24,0.24 -0.36,0.543 -0.36,0.912 0,0.352 0.12,0.648 0.36,0.888 0.24,0.24 0.535,0.36 0.888,0.36 0.368,0 0.672,-0.12 0.912,-0.36 C -0.12,0.648 0,0.352 0,0 m -3.888,-15.24 v 0.887 h 1.824 v 8.641 h -2.088 v 0.648 l 3.456,0.936 h 0.432 V -14.353 H 1.56 v -0.887 z"
             style="fill:#110f0d;fill-opacity:1;fill-rule:nonzero;stroke:none"
             id="path218" />
        </g>
        <g
           id="g220"
           transform="translate(213.7441,99.1938)">
          <path
             d="m 0,0 -4.92,5.904 4.296,4.08 h -1.56 v 0.888 H 2.592 V 9.984 H 0.744 L -2.976,6.432 1.608,0.888 H 2.976 V 0 Z m -8.736,0 v 0.888 h 1.824 v 15.216 h -2.112 v 0.648 l 3.456,0.936 h 0.456 v -16.8 h 1.8 V 0 Z"
             style="fill:#110f0d;fill-opacity:1;fill-rule:nonzero;stroke:none"
             id="path222" />
        </g>
        <g
           id="g224"
           transform="translate(222.9839,104.1138)">
          <path
             d="m 0,0 -4.104,-0.96 v -1.2 c 0,-0.512 0.148,-0.916 0.444,-1.212 0.296,-0.296 0.7,-0.444 1.212,-0.444 0.384,0 0.756,0.096 1.116,0.288 0.36,0.192 0.804,0.52 1.332,0.984 z M 2.04,-4.968 C 1.88,-5.016 1.724,-5.056 1.572,-5.088 1.42,-5.12 1.296,-5.136 1.2,-5.136 c -0.368,0 -0.656,0.124 -0.864,0.372 -0.208,0.248 -0.312,0.596 -0.312,1.044 v 0.241 c -0.512,-0.625 -1.012,-1.073 -1.5,-1.345 -0.488,-0.272 -1.052,-0.407 -1.692,-0.407 -0.832,0 -1.52,0.255 -2.064,0.767 -0.544,0.512 -0.816,1.176 -0.816,1.992 0,0.608 0.18,1.144 0.54,1.608 0.36,0.464 0.828,0.76 1.404,0.888 L 0,0.96 V 3.672 C 0,4.152 -0.16,4.548 -0.48,4.86 -0.8,5.172 -1.2,5.328 -1.68,5.328 -1.92,5.328 -2.14,5.305 -2.34,5.256 -2.54,5.208 -2.816,5.096 -3.168,4.92 V 3.769 L -5.304,3.145 c -0.08,0.143 -0.132,0.259 -0.156,0.347 -0.024,0.088 -0.036,0.196 -0.036,0.324 0,0.352 0.096,0.676 0.288,0.972 0.192,0.296 0.456,0.552 0.792,0.769 0.336,0.215 0.736,0.383 1.2,0.503 0.464,0.12 0.968,0.18 1.512,0.18 C -0.648,6.24 0.2,6 0.84,5.52 1.48,5.04 1.8,4.4 1.8,3.6 v -7.392 h 1.848 v -0.672 z"
             style="fill:#110f0d;fill-opacity:1;fill-rule:nonzero;stroke:none"
             id="path226" />
        </g>
        <g
           id="g228"
           transform="translate(236.0156,102.146)">
          <path
             d="m 0,0 c 0,-0.48 -0.088,-0.92 -0.264,-1.32 -0.176,-0.401 -0.424,-0.744 -0.744,-1.033 -0.32,-0.288 -0.704,-0.511 -1.152,-0.671 -0.448,-0.16 -0.936,-0.24 -1.464,-0.24 -1.344,0 -2.36,0.32 -3.048,0.96 v -0.864 h -0.96 V 0.24 h 1.104 v -0.648 c 0,-0.256 0.076,-0.5 0.228,-0.733 0.152,-0.231 0.36,-0.439 0.624,-0.623 0.264,-0.184 0.568,-0.328 0.912,-0.432 0.344,-0.105 0.7,-0.157 1.068,-0.157 0.672,0 1.224,0.157 1.656,0.469 0.432,0.312 0.648,0.708 0.648,1.188 0,0.24 -0.048,0.456 -0.144,0.648 -0.096,0.192 -0.264,0.384 -0.504,0.576 -0.24,0.192 -0.568,0.388 -0.984,0.588 -0.416,0.199 -0.936,0.42 -1.56,0.659 -1.152,0.449 -1.96,0.92 -2.424,1.416 -0.464,0.497 -0.696,1.121 -0.696,1.872 0,0.464 0.092,0.889 0.276,1.273 0.184,0.384 0.436,0.716 0.756,0.996 0.32,0.28 0.708,0.496 1.164,0.648 0.456,0.152 0.964,0.228 1.524,0.228 1.04,0 1.888,-0.272 2.544,-0.816 l 0.144,0.864 h 1.032 L -0.84,4.8 h -1.032 c 0.048,0.128 0.084,0.263 0.108,0.408 0.024,0.144 0.036,0.271 0.036,0.384 0,0.24 -0.064,0.46 -0.192,0.66 -0.128,0.2 -0.3,0.38 -0.516,0.54 -0.216,0.159 -0.468,0.283 -0.756,0.372 -0.288,0.087 -0.592,0.132 -0.912,0.132 -0.624,0 -1.124,-0.156 -1.5,-0.468 -0.376,-0.312 -0.564,-0.724 -0.564,-1.236 0,-0.256 0.024,-0.468 0.072,-0.636 0.048,-0.168 0.172,-0.328 0.372,-0.48 0.2,-0.153 0.508,-0.321 0.924,-0.504 0.416,-0.184 0.984,-0.42 1.704,-0.708 C -2.504,3.023 -2.012,2.792 -1.62,2.567 -1.228,2.344 -0.912,2.107 -0.672,1.859 -0.432,1.611 -0.26,1.336 -0.156,1.032 -0.052,0.728 0,0.384 0,0"
             style="fill:#110f0d;fill-opacity:1;fill-rule:nonzero;stroke:none"
             id="path230" />
        </g>
        <g
           id="g232"
           transform="translate(241.7993,114.4341)">
          <path
             d="m 0,0 c 0,-0.369 -0.124,-0.672 -0.372,-0.912 -0.248,-0.24 -0.548,-0.36 -0.9,-0.36 -0.352,0 -0.652,0.12 -0.9,0.36 -0.248,0.24 -0.372,0.543 -0.372,0.912 0,0.352 0.124,0.648 0.372,0.888 0.248,0.24 0.548,0.36 0.9,0.36 0.352,0 0.652,-0.12 0.9,-0.36 C -0.124,0.648 0,0.352 0,0 m -0.264,-16.992 c -0.224,-0.529 -0.42,-0.972 -0.588,-1.332 -0.168,-0.361 -0.352,-0.697 -0.552,-1.008 -0.2,-0.313 -0.424,-0.624 -0.672,-0.937 -0.248,-0.311 -0.564,-0.683 -0.948,-1.115 l -0.576,0.455 c 0.336,0.576 0.608,1.061 0.816,1.452 0.208,0.393 0.368,0.761 0.48,1.105 0.112,0.344 0.184,0.692 0.216,1.044 0.032,0.351 0.048,0.784 0.048,1.296 v 10.32 h -2.136 v 0.648 l 3.456,0.936 h 0.456 z"
             style="fill:#110f0d;fill-opacity:1;fill-rule:nonzero;stroke:none"
             id="path234" />
        </g>
        <g
           id="g236"
           transform="translate(253.0312,104.6177)">
          <path
             d="m 0,0 c 0,0.672 -0.084,1.296 -0.252,1.872 -0.168,0.576 -0.396,1.076 -0.684,1.5 -0.288,0.424 -0.628,0.756 -1.02,0.996 -0.393,0.24 -0.813,0.361 -1.26,0.361 -0.448,0 -0.868,-0.121 -1.26,-0.361 -0.393,-0.24 -0.732,-0.572 -1.02,-0.996 -0.288,-0.424 -0.512,-0.924 -0.672,-1.5 -0.16,-0.576 -0.24,-1.2 -0.24,-1.872 0,-0.656 0.08,-1.271 0.24,-1.848 0.16,-0.576 0.384,-1.076 0.672,-1.5 0.288,-0.423 0.627,-0.76 1.02,-1.007 0.392,-0.249 0.812,-0.373 1.26,-0.373 0.447,0 0.867,0.121 1.26,0.36 0.392,0.24 0.732,0.572 1.02,0.996 0.288,0.424 0.516,0.924 0.684,1.5 C -0.084,-1.296 0,-0.672 0,0 m 2.04,0 c 0,-0.8 -0.136,-1.548 -0.408,-2.244 -0.273,-0.695 -0.648,-1.3 -1.128,-1.812 -0.48,-0.512 -1.041,-0.921 -1.68,-1.224 -0.64,-0.304 -1.32,-0.455 -2.04,-0.455 -0.72,0 -1.4,0.151 -2.04,0.455 -0.64,0.303 -1.2,0.712 -1.68,1.224 -0.48,0.512 -0.856,1.117 -1.128,1.812 -0.272,0.696 -0.408,1.444 -0.408,2.244 0,0.784 0.136,1.528 0.408,2.232 0.272,0.705 0.648,1.312 1.128,1.825 0.48,0.511 1.04,0.92 1.68,1.223 0.64,0.304 1.32,0.456 2.04,0.456 0.72,0 1.4,-0.152 2.04,-0.456 0.639,-0.303 1.2,-0.712 1.68,-1.223 C 0.984,3.544 1.359,2.937 1.632,2.232 1.904,1.528 2.04,0.784 2.04,0"
             style="fill:#110f0d;fill-opacity:1;fill-rule:nonzero;stroke:none"
             id="path238" />
        </g>
        <g
           id="g240"
           transform="translate(263.9751,99.1938)">
          <path
             d="M 0,0 V 0.888 H 1.8 V 7.92 C 1.8,8.56 1.648,9.063 1.344,9.432 1.04,9.8 0.624,9.984 0.096,9.984 -0.16,9.984 -0.4,9.948 -0.624,9.876 -0.848,9.804 -1.096,9.664 -1.368,9.456 -1.64,9.248 -1.952,8.956 -2.304,8.58 -2.656,8.204 -3.096,7.72 -3.624,7.128 V 0.888 H -1.8 V 0 h -5.448 v 0.888 h 1.824 v 8.64 h -2.088 v 0.648 l 3.456,0.936 h 0.432 V 8.424 c 0.448,0.528 0.856,0.964 1.224,1.308 0.368,0.344 0.72,0.623 1.056,0.84 0.336,0.216 0.672,0.368 1.008,0.456 0.336,0.088 0.696,0.132 1.08,0.132 0.896,0 1.6,-0.268 2.112,-0.805 C 3.368,9.819 3.624,9.088 3.624,8.16 V 0.888 h 1.8 V 0 Z"
             style="fill:#110f0d;fill-opacity:1;fill-rule:nonzero;stroke:none"
             id="path242" />
        </g>
        <g
           id="g244"
           transform="translate(278.8789,102.146)">
          <path
             d="m 0,0 c 0,-0.48 -0.088,-0.92 -0.264,-1.32 -0.176,-0.401 -0.424,-0.744 -0.744,-1.033 -0.32,-0.288 -0.704,-0.511 -1.152,-0.671 -0.448,-0.16 -0.936,-0.24 -1.464,-0.24 -1.344,0 -2.36,0.32 -3.048,0.96 v -0.864 h -0.96 V 0.24 h 1.104 v -0.648 c 0,-0.256 0.076,-0.5 0.228,-0.733 0.152,-0.231 0.36,-0.439 0.624,-0.623 0.264,-0.184 0.568,-0.328 0.912,-0.432 0.344,-0.105 0.7,-0.157 1.068,-0.157 0.672,0 1.224,0.157 1.656,0.469 0.432,0.312 0.648,0.708 0.648,1.188 0,0.24 -0.048,0.456 -0.144,0.648 -0.096,0.192 -0.264,0.384 -0.504,0.576 -0.24,0.192 -0.568,0.388 -0.984,0.588 -0.416,0.199 -0.936,0.42 -1.56,0.659 -1.152,0.449 -1.96,0.92 -2.424,1.416 -0.464,0.497 -0.696,1.121 -0.696,1.872 0,0.464 0.092,0.889 0.276,1.273 0.184,0.384 0.436,0.716 0.756,0.996 0.32,0.28 0.708,0.496 1.164,0.648 0.456,0.152 0.964,0.228 1.524,0.228 1.04,0 1.888,-0.272 2.544,-0.816 l 0.144,0.864 h 1.032 L -0.84,4.8 h -1.032 c 0.048,0.128 0.084,0.263 0.108,0.408 0.024,0.144 0.036,0.271 0.036,0.384 0,0.24 -0.064,0.46 -0.192,0.66 -0.128,0.2 -0.3,0.38 -0.516,0.54 -0.216,0.159 -0.468,0.283 -0.756,0.372 -0.288,0.087 -0.592,0.132 -0.912,0.132 -0.624,0 -1.124,-0.156 -1.5,-0.468 -0.376,-0.312 -0.564,-0.724 -0.564,-1.236 0,-0.256 0.024,-0.468 0.072,-0.636 0.048,-0.168 0.172,-0.328 0.372,-0.48 0.2,-0.153 0.508,-0.321 0.924,-0.504 0.416,-0.184 0.984,-0.42 1.704,-0.708 C -2.504,3.023 -2.012,2.792 -1.62,2.567 -1.228,2.344 -0.912,2.107 -0.672,1.859 -0.432,1.611 -0.26,1.336 -0.156,1.032 -0.052,0.728 0,0.384 0,0"
             style="fill:#110f0d;fill-opacity:1;fill-rule:nonzero;stroke:none"
             id="path246" />
        </g>
        <path
           d="m 281.086,105.578 h 4.584 v -1.824 h -4.584 z"
           style="fill:#110f0d;fill-opacity:1;fill-rule:nonzero;stroke:none"
           id="path248" />
        <g
           id="g250"
           transform="translate(152.8271,70.3813)">
          <path
             d="M 0,0 V 0.888 H 1.824 V 7.92 C 1.824,8.576 1.671,9.08 1.368,9.432 1.063,9.784 0.648,9.96 0.12,9.96 -0.28,9.96 -0.66,9.855 -1.02,9.648 -1.38,9.439 -1.816,9.056 -2.328,8.496 L -3.6,7.128 v -6.24 h 1.8 V 0 h -5.424 v 0.888 h 1.8 V 7.92 c 0,0.64 -0.152,1.143 -0.456,1.512 C -6.184,9.8 -6.6,9.984 -7.128,9.984 -7.384,9.984 -7.625,9.948 -7.848,9.876 -8.072,9.804 -8.32,9.664 -8.592,9.456 -8.864,9.248 -9.176,8.956 -9.528,8.58 -9.88,8.204 -10.32,7.72 -10.848,7.128 v -6.24 h 1.824 V 0 h -5.448 v 0.888 h 1.824 v 8.64 h -2.088 v 0.648 l 3.456,0.936 h 0.432 V 8.424 c 0.448,0.528 0.856,0.964 1.224,1.308 0.368,0.344 0.72,0.624 1.056,0.84 0.336,0.216 0.672,0.367 1.008,0.456 0.336,0.088 0.696,0.132 1.08,0.132 1.68,0 2.64,-0.912 2.88,-2.736 0.448,0.528 0.855,0.964 1.224,1.308 0.368,0.344 0.72,0.624 1.056,0.84 0.336,0.216 0.668,0.367 0.996,0.456 0.327,0.088 0.684,0.132 1.068,0.132 0.896,0 1.6,-0.268 2.112,-0.804 C 3.368,9.819 3.624,9.096 3.624,8.184 V 0.888 h 1.8 L 5.424,0 Z"
             style="fill:#110f0d;fill-opacity:1;fill-rule:nonzero;stroke:none"
             id="path252" />
        </g>
        <g
           id="g254"
           transform="translate(167.9468,80.3657)">
          <path
             d="m 0,0 -4.056,-10.536 c -0.144,-0.368 -0.308,-0.756 -0.492,-1.164 -0.184,-0.408 -0.38,-0.808 -0.588,-1.2 -0.208,-0.392 -0.412,-0.76 -0.612,-1.104 -0.2,-0.345 -0.38,-0.62 -0.54,-0.828 l -0.96,-1.296 -1.56,1.607 c 0.336,0.193 0.62,0.361 0.852,0.504 0.232,0.145 0.44,0.292 0.624,0.445 0.184,0.152 0.356,0.316 0.516,0.492 0.16,0.176 0.336,0.384 0.528,0.624 0.16,0.224 0.308,0.432 0.444,0.624 0.136,0.191 0.26,0.399 0.372,0.624 0.112,0.224 0.228,0.468 0.348,0.731 0.12,0.265 0.252,0.581 0.396,0.949 L -8.616,0 h -1.008 v 0.888 h 4.656 V 0 H -6.672 L -3.768,-7.08 -1.08,0 H -2.688 V 0.888 H 1.008 L 1.008,0 Z"
             style="fill:#110f0d;fill-opacity:1;fill-rule:nonzero;stroke:none"
             id="path256" />
        </g>
        <g
           id="g258"
           transform="translate(176.9468,70.3813)">
          <path
             d="M 0,0 V 0.888 H 1.8 V 7.92 C 1.8,8.56 1.648,9.063 1.344,9.432 1.04,9.8 0.624,9.984 0.096,9.984 -0.16,9.984 -0.4,9.948 -0.624,9.876 -0.848,9.804 -1.096,9.664 -1.368,9.456 -1.64,9.248 -1.952,8.956 -2.304,8.58 -2.656,8.204 -3.096,7.72 -3.624,7.128 V 0.888 H -1.8 V 0 h -5.448 v 0.888 h 1.824 v 8.64 h -2.088 v 0.648 l 3.456,0.936 h 0.432 V 8.424 c 0.448,0.528 0.856,0.964 1.224,1.308 0.368,0.344 0.72,0.624 1.056,0.84 0.336,0.216 0.672,0.367 1.008,0.456 0.336,0.088 0.696,0.132 1.08,0.132 0.896,0 1.6,-0.268 2.112,-0.804 C 3.368,9.819 3.624,9.088 3.624,8.16 V 0.888 h 1.8 V 0 Z"
             style="fill:#110f0d;fill-opacity:1;fill-rule:nonzero;stroke:none"
             id="path260" />
        </g>
        <g
           id="g262"
           transform="translate(191.5869,78.5415)">
          <path
             d="M 0,0 C 0,0.752 -0.136,1.271 -0.408,1.56 -0.68,1.848 -1.176,1.992 -1.896,1.992 -2.472,1.992 -3,1.88 -3.48,1.656 -3.96,1.432 -4.372,1.119 -4.716,0.72 -5.061,0.319 -5.324,-0.164 -5.508,-0.732 -5.692,-1.3 -5.784,-1.929 -5.784,-2.616 c 0,-1.361 0.276,-2.416 0.828,-3.168 0.552,-0.752 1.324,-1.128 2.316,-1.128 0.368,0 0.68,0.052 0.936,0.156 0.256,0.104 0.592,0.316 1.008,0.636 L 0,-5.568 Z M 0.456,-8.4 H 0 v 1.68 c -0.656,-0.656 -1.232,-1.112 -1.728,-1.368 -0.496,-0.256 -1.048,-0.384 -1.656,-0.384 -0.624,0 -1.208,0.144 -1.752,0.432 -0.544,0.288 -1.016,0.676 -1.416,1.164 -0.4,0.487 -0.717,1.067 -0.948,1.74 -0.232,0.672 -0.348,1.392 -0.348,2.159 0,0.832 0.148,1.609 0.444,2.329 0.296,0.72 0.704,1.352 1.224,1.896 0.52,0.544 1.124,0.972 1.812,1.284 C -3.68,2.844 -2.944,3 -2.16,3 -1.744,3 -1.396,2.96 -1.116,2.88 -0.836,2.8 -0.464,2.64 0,2.399 V 7.943 H -2.088 V 8.592 L 1.368,9.528 H 1.824 V -6.816 h 2.088 v -0.672 z"
             style="fill:#110f0d;fill-opacity:1;fill-rule:nonzero;stroke:none"
             id="path264" />
        </g>
        <g
           id="g266"
           transform="translate(200.4907,85.6216)">
          <path
             d="m 0,0 c 0,-0.368 -0.12,-0.672 -0.36,-0.912 -0.24,-0.24 -0.544,-0.36 -0.912,-0.36 -0.353,0 -0.648,0.12 -0.888,0.36 -0.24,0.24 -0.36,0.544 -0.36,0.912 0,0.352 0.12,0.647 0.36,0.888 0.24,0.24 0.535,0.36 0.888,0.36 0.368,0 0.672,-0.12 0.912,-0.36 C -0.12,0.647 0,0.352 0,0 m -3.888,-15.24 v 0.887 h 1.824 v 8.641 h -2.088 v 0.648 l 3.456,0.936 h 0.432 V -14.353 H 1.56 v -0.887 z"
             style="fill:#110f0d;fill-opacity:1;fill-rule:nonzero;stroke:none"
             id="path268" />
        </g>
        <g
           id="g270"
           transform="translate(211.0508,77.4614)">
          <path
             d="M 0,0 C 0,0.976 -0.236,1.748 -0.708,2.316 -1.18,2.884 -1.816,3.168 -2.616,3.168 -3.432,3.168 -4.072,2.884 -4.536,2.316 -5,1.748 -5.232,0.976 -5.232,0 c 0,-0.977 0.232,-1.752 0.696,-2.328 0.464,-0.576 1.104,-0.864 1.92,-0.864 0.8,0 1.436,0.288 1.908,0.864 C -0.236,-1.752 0,-0.977 0,0 m 1.44,-9.096 c 0,0.384 -0.084,0.688 -0.252,0.912 C 1.02,-7.96 0.8,-7.848 0.528,-7.848 H -4.92 c -0.32,-0.448 -0.532,-0.812 -0.636,-1.092 -0.105,-0.28 -0.156,-0.58 -0.156,-0.9 0,-0.721 0.304,-1.304 0.912,-1.752 0.608,-0.448 1.392,-0.672 2.352,-0.672 0.528,0 1.028,0.084 1.5,0.252 0.471,0.168 0.884,0.396 1.236,0.684 0.352,0.288 0.632,0.624 0.84,1.008 0.207,0.383 0.312,0.792 0.312,1.224 M 1.128,2.256 C 1.416,1.92 1.616,1.588 1.728,1.26 1.839,0.932 1.896,0.52 1.896,0.023 c 0,-1.279 -0.408,-2.292 -1.224,-3.035 -0.816,-0.744 -1.936,-1.116 -3.36,-1.116 -0.176,0 -0.333,0.004 -0.468,0.012 -0.136,0.008 -0.264,0.024 -0.384,0.048 -0.12,0.024 -0.249,0.051 -0.384,0.084 -0.136,0.032 -0.292,0.08 -0.468,0.144 -0.368,-0.368 -0.629,-0.677 -0.78,-0.924 -0.152,-0.249 -0.228,-0.484 -0.228,-0.708 0,-0.417 0.232,-0.624 0.696,-0.624 h 6 c 0.576,0 1.024,-0.192 1.344,-0.576 0.319,-0.384 0.48,-0.928 0.48,-1.632 0,-0.673 -0.161,-1.308 -0.48,-1.908 -0.32,-0.601 -0.756,-1.124 -1.308,-1.572 -0.552,-0.447 -1.2,-0.8 -1.944,-1.056 -0.744,-0.256 -1.54,-0.384 -2.388,-0.384 -0.512,0 -0.984,0.044 -1.416,0.132 -0.432,0.088 -0.833,0.228 -1.2,0.42 -0.368,0.192 -0.72,0.443 -1.056,0.756 -0.336,0.312 -0.672,0.684 -1.008,1.116 0.128,0.321 0.243,0.592 0.348,0.816 0.103,0.224 0.22,0.444 0.348,0.66 0.128,0.216 0.284,0.444 0.468,0.684 0.183,0.24 0.42,0.544 0.708,0.911 -0.352,0.065 -0.648,0.177 -0.888,0.337 -0.24,0.16 -0.544,0.448 -0.912,0.864 0.208,0.351 0.392,0.656 0.552,0.912 0.16,0.256 0.327,0.492 0.504,0.708 0.176,0.216 0.38,0.428 0.612,0.636 0.232,0.208 0.516,0.456 0.852,0.744 -1.376,0.799 -2.064,1.935 -2.064,3.408 0,1.296 0.408,2.319 1.224,3.072 0.816,0.752 1.911,1.128 3.288,1.128 0.24,0 0.452,-0.009 0.636,-0.024 C -1.82,4.04 -1.636,4.008 -1.452,3.96 -1.269,3.912 -1.064,3.84 -0.84,3.744 -0.616,3.647 -0.344,3.52 -0.024,3.36 H 1.512 L 3.216,3.768 V 2.256 Z"
             style="fill:#110f0d;fill-opacity:1;fill-rule:nonzero;stroke:none"
             id="path272" />
        </g>
        <g
           id="g274"
           transform="translate(222.4502,70.3813)">
          <path
             d="M 0,0 V 0.888 H 1.824 V 7.92 C 1.824,8.56 1.672,9.063 1.368,9.432 1.064,9.8 0.648,9.984 0.12,9.984 -0.152,9.984 -0.4,9.948 -0.624,9.876 -0.848,9.804 -1.092,9.664 -1.356,9.456 -1.62,9.248 -1.928,8.956 -2.28,8.58 -2.632,8.204 -3.072,7.72 -3.6,7.128 v -6.24 h 1.8 V 0 H -7.224 V 0.888 H -5.4 v 15.216 h -2.112 v 0.648 l 3.456,0.936 H -3.6 V 8.424 c 0.448,0.528 0.856,0.964 1.224,1.308 0.368,0.344 0.72,0.624 1.056,0.84 0.336,0.216 0.668,0.367 0.996,0.456 0.327,0.088 0.684,0.132 1.068,0.132 0.896,0 1.6,-0.268 2.112,-0.804 C 3.368,9.819 3.624,9.088 3.624,8.16 V 0.888 H 5.448 V 0 Z"
             style="fill:#110f0d;fill-opacity:1;fill-rule:nonzero;stroke:none"
             id="path276" />
        </g>
        <g
           id="g278"
           transform="translate(236.8262,78.061)">
          <path
             d="M 0,0 C 0,0.721 -0.22,1.312 -0.66,1.776 -1.1,2.24 -1.672,2.473 -2.376,2.473 -3.256,2.473 -3.98,2.2 -4.548,1.656 -5.116,1.112 -5.457,0.368 -5.568,-0.576 H 0 Z M -5.592,-1.536 V -1.8 c 0,-0.752 0.096,-1.439 0.288,-2.063 0.192,-0.624 0.456,-1.161 0.792,-1.609 0.336,-0.448 0.74,-0.796 1.212,-1.044 0.472,-0.248 0.996,-0.372 1.572,-0.372 0.48,0 0.924,0.076 1.332,0.228 0.408,0.152 0.948,0.444 1.62,0.877 L 1.68,-6.672 C 1.232,-6.928 0.836,-7.14 0.492,-7.308 0.147,-7.476 -0.176,-7.611 -0.48,-7.716 -0.784,-7.819 -1.084,-7.892 -1.38,-7.932 -1.676,-7.972 -2,-7.991 -2.352,-7.991 c -0.768,0 -1.468,0.139 -2.1,0.42 -0.632,0.279 -1.18,0.672 -1.644,1.175 -0.464,0.504 -0.824,1.1 -1.08,1.789 -0.256,0.687 -0.384,1.447 -0.384,2.279 0,0.832 0.128,1.604 0.384,2.316 0.256,0.712 0.616,1.328 1.08,1.848 0.464,0.52 1.008,0.925 1.632,1.212 0.624,0.288 1.312,0.432 2.064,0.432 0.64,0 1.228,-0.108 1.764,-0.324 C -0.1,2.94 0.36,2.641 0.744,2.256 1.128,1.872 1.428,1.412 1.644,0.876 1.86,0.34 1.968,-0.248 1.968,-0.888 v -0.648 z"
             style="fill:#110f0d;fill-opacity:1;fill-rule:nonzero;stroke:none"
             id="path280" />
        </g>
        <g
           id="g282"
           transform="translate(246.5459,71.3892)">
          <path
             d="m 0,0 c -0.32,-0.256 -0.596,-0.464 -0.828,-0.624 -0.232,-0.16 -0.444,-0.284 -0.636,-0.372 -0.192,-0.088 -0.38,-0.148 -0.564,-0.18 -0.184,-0.032 -0.388,-0.048 -0.612,-0.048 -0.704,0 -1.252,0.204 -1.644,0.613 -0.392,0.407 -0.588,0.979 -0.588,1.715 V 8.521 H -6.96 v 0.647 l 2.088,0.528 v 3.312 h 1.728 V 9.624 h 2.976 V 8.521 H -3.144 V 1.32 c 0,-0.465 0.084,-0.788 0.252,-0.971 0.168,-0.185 0.452,-0.277 0.852,-0.277 0.256,0 0.488,0.036 0.696,0.109 0.208,0.071 0.52,0.227 0.936,0.467 z"
             style="fill:#110f0d;fill-opacity:1;fill-rule:nonzero;stroke:none"
             id="path284" />
        </g>
      </g>
    </g>
    <text
       xml:space="preserve"
       style="font-size:14.1732px;font-family:sans-serif;-inkscape-font-specification:'sans-serif, Normal';opacity:0.68;fill:#000000;stroke:#000000;stroke-width:3.9685"
       x="83.507446"
       y="-38.642624"
       id="text2059"
       transform="scale(1,-1)"
       inkscape:label="text2059"><tspan
         sodipodi:role="line"
         id="tspan2057"
         style="stroke-width:3.9685"
         x="83.507446"
         y="-38.642624" /></text>
  </g>
  <g
     inkscape:groupmode="layer"
     id="layer1"
     inkscape:label="Page 2">
    <text
       xml:space="preserve"
       style="font-size:60.4724px;font-family:sans-serif;-inkscape-font-specification:'sans-serif, Normal';opacity:0.68;fill:#000000;stroke:#000000;stroke-width:5.29134"
       x="105.89383"
       y="467.4158"
       id="text2116"><tspan
         sodipodi:role="line"
         id="tspan2114"
         x="105.89383"
         y="467.4158"
         style="font-size:60.4724px;fill:#000000;fill-opacity:1;stroke:none;stroke-opacity:1">ENA 10841</tspan></text>
  </g>
</svg>
