<?xml version="1.0" encoding="UTF-8" standalone="no"?>
<!-- Created with Inkscape (http://www.inkscape.org/) -->

<svg
   version="1.1"
   id="svg64"
   width="907.08667"
   height="982.67731"
   viewBox="0 0 907.08667 982.67731"
   sodipodi:docname="Pobedit logo med kompassrose uten tekst.svg"
   inkscape:version="1.2.2 (b0a8486541, 2022-12-01)"
   xmlns:inkscape="http://www.inkscape.org/namespaces/inkscape"
   xmlns:sodipodi="http://sodipodi.sourceforge.net/DTD/sodipodi-0.dtd"
   xmlns="http://www.w3.org/2000/svg"
   xmlns:svg="http://www.w3.org/2000/svg">
  <defs
     id="defs68">
    <clipPath
       clipPathUnits="userSpaceOnUse"
       id="clipPath80">
      <path
         d="M 0,737.008 H 680.315 V 0 H 0 Z"
         id="path78" />
    </clipPath>
    <clipPath
       clipPathUnits="userSpaceOnUse"
       id="clipPath172">
      <path
         d="M 0,737.008 H 680.315 V 0 H 0 Z"
         id="path170" />
    </clipPath>
    <clipPath
       clipPathUnits="userSpaceOnUse"
       id="clipPath272">
      <path
         d="M 0,737.008 H 680.315 V 0 H 0 Z"
         id="path270" />
    </clipPath>
    <clipPath
       clipPathUnits="userSpaceOnUse"
       id="clipPath564">
      <path
         d="M 0,737.008 H 680.315 V 0 H 0 Z"
         id="path562" />
    </clipPath>
  </defs>
  <sodipodi:namedview
     id="namedview66"
     pagecolor="#505050"
     bordercolor="#eeeeee"
     borderopacity="1"
     inkscape:showpageshadow="0"
     inkscape:pageopacity="0"
     inkscape:pagecheckerboard="0"
     inkscape:deskcolor="#505050"
     showgrid="false"
     inkscape:zoom="0.88635404"
     inkscape:cx="453.54337"
     inkscape:cy="492.46687"
     inkscape:window-width="1876"
     inkscape:window-height="1052"
     inkscape:window-x="0"
     inkscape:window-y="0"
     inkscape:window-maximized="1"
     inkscape:current-layer="g72">
    <inkscape:page
       x="0"
       y="0"
       id="page70"
       width="907.08667"
       height="982.67731" />
  </sodipodi:namedview>
  <g
     id="g72"
     inkscape:groupmode="layer"
     inkscape:label="Page 1"
     transform="matrix(1.3333333,0,0,-1.3333333,0,982.67733)">
    <g
       id="g74">
      <g
         id="g76"
         clip-path="url(#clipPath80)">
        <g
           id="g82"
           transform="translate(171.7454,332.1358)">
          <path
             d="m 0,0 c 23.741,-72.668 92.17,-125.314 172.665,-125.314 80.503,0 148.939,52.658 172.672,125.34 l 11.573,0.116 c -24.084,-78.9 -97.569,-136.456 -184.245,-136.456 -86.677,0 -160.163,57.556 -184.246,136.456 z m 3.87,123.236 c 26.708,67.084 92.304,114.623 168.795,114.623 76.648,0 142.357,-47.737 168.958,-115.041 l 11.622,0.418 c -27.262,73.28 -97.923,125.623 -180.58,125.623 -82.658,0 -153.32,-52.343 -180.581,-125.623 z"
             style="fill:#231f20;fill-opacity:1;fill-rule:nonzero;stroke:none"
             id="path84" />
        </g>
        <g
           id="g86"
           transform="translate(555.8651,452.5579)">
          <path
             d="m 0,0 c -10.385,34.394 -29.158,65.905 -55.279,92.026 -41.716,41.717 -97.18,64.691 -156.176,64.691 -58.996,0 -114.46,-22.974 -156.177,-64.691 -26.073,-26.072 -44.824,-57.515 -55.221,-91.834 L -439.837,0 c 10.857,38.556 31.668,74.363 60.768,103.463 44.771,44.771 104.298,69.428 167.614,69.428 63.316,0 122.842,-24.657 167.613,-69.428 C -14.623,74.244 6.029,38.74 16.85,0 Z m 2.81,-118.112 c -9.588,-38.356 -29.41,-73.535 -58.089,-102.215 -41.716,-41.716 -97.18,-64.69 -156.176,-64.69 -58.996,0 -114.46,22.974 -156.177,64.69 -28.805,28.806 -48.675,64.167 -58.214,102.719 l -16.633,-10e-4 c 9.839,-42.895 31.523,-82.267 63.41,-114.154 44.771,-44.772 104.298,-69.428 167.614,-69.428 63.316,0 122.842,24.656 167.613,69.428 31.887,31.887 53.571,71.259 63.41,114.154 z"
             style="fill:#231f20;fill-opacity:1;fill-rule:nonzero;stroke:none"
             id="path88" />
        </g>
        <g
           id="g90"
           transform="translate(365.0741,457.6134)">
          <path
             d="M 0,0 144.058,94.832 77.827,0 Z"
             style="fill:#ffffff;fill-opacity:1;fill-rule:nonzero;stroke:none"
             id="path92" />
        </g>
        <g
           id="g94"
           transform="translate(365.0741,457.6134)">
          <path
             d="M 0,0 144.058,94.832 77.827,0 Z"
             style="fill:none;stroke:#1d3f8a;stroke-width:3;stroke-linecap:butt;stroke-linejoin:miter;stroke-miterlimit:10;stroke-dasharray:none;stroke-opacity:1"
             id="path96" />
        </g>
        <g
           id="g98"
           transform="translate(508.8018,551.4525)">
          <path
             d="m 0,0 -105.562,-93.839 h 39.661 z"
             style="fill:#1d3f8a;fill-opacity:1;fill-rule:nonzero;stroke:none"
             id="path100" />
        </g>
        <g
           id="g102"
           transform="translate(379.6369,333.1324)">
          <path
             d="M 0,0 -32.977,-193.917 -67.141,0 Z"
             style="fill:#ffffff;fill-opacity:1;fill-rule:nonzero;stroke:none"
             id="path104" />
        </g>
        <g
           id="g106"
           transform="translate(379.6369,333.1324)">
          <path
             d="M 0,0 -32.977,-193.917 -67.141,0 Z"
             style="fill:none;stroke:#1d3f8a;stroke-width:3;stroke-linecap:butt;stroke-linejoin:miter;stroke-miterlimit:10;stroke-dasharray:none;stroke-opacity:1"
             id="path108" />
        </g>
        <g
           id="g110"
           transform="translate(315.7003,456.4394)">
          <path
             d="M 0,0 28.96,181.161 60.181,0 Z"
             style="fill:#ffffff;fill-opacity:1;fill-rule:nonzero;stroke:none"
             id="path112" />
        </g>
        <g
           id="g114"
           transform="translate(315.7003,456.4394)">
          <path
             d="M 0,0 28.96,181.161 60.181,0 Z"
             style="fill:none;stroke:#1d3f8a;stroke-width:3;stroke-linecap:butt;stroke-linejoin:miter;stroke-miterlimit:10;stroke-dasharray:none;stroke-opacity:1"
             id="path116" />
        </g>
        <g
           id="g118"
           transform="translate(345.3901,456.4394)">
          <path
             d="M 0,0 -0.73,180.16 29.621,0 Z"
             style="fill:#1d3f8a;fill-opacity:1;fill-rule:nonzero;stroke:none"
             id="path120" />
        </g>
        <g
           id="g122"
           transform="translate(346.6598,142.2147)">
          <path
             d="m 0,0 -1.551,190.918 h -32.11 z"
             style="fill:#1d3f8a;fill-opacity:1;fill-rule:nonzero;stroke:none"
             id="path124" />
        </g>
        <g
           id="g126"
           transform="translate(328.6204,332.1618)">
          <path
             d="M 0,0 -148.492,-107.394 -72.065,0 Z"
             style="fill:#ffffff;fill-opacity:1;fill-rule:nonzero;stroke:none"
             id="path128" />
        </g>
        <g
           id="g130"
           transform="translate(328.6204,332.1618)">
          <path
             d="M 0,0 -148.492,-107.394 -72.065,0 Z"
             style="fill:none;stroke:#1d3f8a;stroke-width:3;stroke-linecap:butt;stroke-linejoin:miter;stroke-miterlimit:10;stroke-dasharray:none;stroke-opacity:1"
             id="path132" />
        </g>
        <g
           id="g134"
           transform="translate(434.9446,332.1618)">
          <path
             d="M 0,0 76.176,-107.393 -77.15,0 Z"
             style="fill:#ffffff;fill-opacity:1;fill-rule:nonzero;stroke:none"
             id="path136" />
        </g>
        <g
           id="g138"
           transform="translate(434.9446,332.1618)">
          <path
             d="M 0,0 76.176,-107.393 -77.15,0 Z"
             style="fill:none;stroke:#1d3f8a;stroke-width:3;stroke-linecap:butt;stroke-linejoin:miter;stroke-miterlimit:10;stroke-dasharray:none;stroke-opacity:1"
             id="path140" />
        </g>
        <g
           id="g142"
           transform="translate(249.1189,457.6134)">
          <path
             d="M 0,0 -69.652,96.158 77.889,0 Z"
             style="fill:#ffffff;fill-opacity:1;fill-rule:nonzero;stroke:none"
             id="path144" />
        </g>
        <g
           id="g146"
           transform="translate(249.1189,457.6134)">
          <path
             d="M 0,0 -69.652,96.158 77.889,0 Z"
             style="fill:none;stroke:#1d3f8a;stroke-width:3;stroke-linecap:butt;stroke-linejoin:miter;stroke-miterlimit:10;stroke-dasharray:none;stroke-opacity:1"
             id="path148" />
        </g>
        <g
           id="g150"
           transform="translate(276.4018,457.6134)">
          <path
             d="M 0,0 -96.272,95.494 50.606,0 Z"
             style="fill:#1d3f8a;fill-opacity:1;fill-rule:nonzero;stroke:none"
             id="path152" />
        </g>
        <g
           id="g154"
           transform="translate(509.1326,226.7564)">
          <path
             d="m 0,0 -105.37,105.522 -45.159,-0.117 z"
             style="fill:#1d3f8a;fill-opacity:1;fill-rule:nonzero;stroke:none"
             id="path156" />
        </g>
        <g
           id="g158"
           transform="translate(286.8925,332.1618)">
          <path
             d="M 0,0 -106.763,-108.056 -29.865,0 Z"
             style="fill:#1d3f8a;fill-opacity:1;fill-rule:nonzero;stroke:none"
             id="path160" />
        </g>
        <path
           d="M 570.904,329.323 H 117.916 v 5.627 h 452.988 z"
           style="fill:#231f20;fill-opacity:1;fill-rule:nonzero;stroke:none"
           id="path162" />
        <path
           d="M 570.904,452.558 H 117.916 v 5.627 h 452.988 z"
           style="fill:#231f20;fill-opacity:1;fill-rule:nonzero;stroke:none"
           id="path164" />
      </g>
    </g>
    <g
       id="g166">
      <g
         id="g168"
         clip-path="url(#clipPath172)">
        <g
           id="g174"
           transform="translate(143.7782,416.9235)">
          <path
             d="m 0,0 v 9.63 h 14.991 c 8.535,0 9.849,-1.1 9.849,-4.631 C 24.84,0.551 23.636,0.138 14.991,0 Z m 19.367,31.039 h -32.131 c -5.039,0 -9.124,-4.085 -9.124,-9.125 v -57.247 c 0,-3.024 2.451,-5.475 5.474,-5.475 h 10.939 c 3.024,0 5.475,2.451 5.475,5.475 v 12.918 h 19.367 c 22.872,0 28.015,6.899 28.015,27.111 0,18.775 -7.657,26.343 -28.015,26.343 M 0,-3.397 h 14.991 c 0.024,0 0.047,0 0.071,0 7.621,0.122 13.641,0.219 13.641,8.396 0,7.414 -6.486,8.028 -13.712,8.028 L 0,13.027 c -2.133,0 -3.863,-1.521 -3.863,-3.397 V 0 c 0,-1.876 1.73,-3.397 3.863,-3.397 m 19.367,30.573 c 9.312,0 15.343,-1.61 18.98,-5.067 3.529,-3.355 5.172,-8.888 5.172,-17.413 0,-9.809 -1.296,-15.323 -4.333,-18.438 -3.243,-3.327 -9.355,-4.81 -19.819,-4.81 H 0 c -2.133,0 -3.863,-1.729 -3.863,-3.863 v -12.918 c 0,-0.889 -0.723,-1.612 -1.612,-1.612 h -10.939 c -0.888,0 -1.612,0.723 -1.612,1.612 v 57.247 c 0,2.902 2.361,5.262 5.262,5.262 z"
             style="fill:#1d3f8a;fill-opacity:1;fill-rule:nonzero;stroke:none"
             id="path176" />
        </g>
        <g
           id="g178"
           transform="translate(229.4704,448.5375)">
          <path
             d="m 0,0 c -22.215,0 -37.974,-4.213 -37.974,-26.343 v -20.308 c 0,-22.13 15.759,-26.346 37.974,-26.346 22.215,0 37.974,4.216 37.974,26.346 v 20.308 C 37.974,-4.213 22.215,0 0,0 m 0,-3.863 c 12.26,0 20.096,-1.347 25.408,-4.368 3.736,-2.124 8.703,-6.313 8.703,-18.112 v -20.308 c 0,-11.799 -4.967,-15.989 -8.703,-18.114 -5.313,-3.022 -13.149,-4.369 -25.408,-4.369 -12.259,0 -20.095,1.347 -25.408,4.369 -3.736,2.125 -8.703,6.315 -8.703,18.114 v 20.308 c 0,11.799 4.967,15.988 8.703,18.112 5.312,3.021 13.148,4.368 25.408,4.368"
             style="fill:#1d3f8a;fill-opacity:1;fill-rule:nonzero;stroke:none"
             id="path180" />
        </g>
        <g
           id="g182"
           transform="translate(295.2743,394.9644)">
          <path
             d="m 0,0 v 6.918 h 10.99 c 4.607,0 6.236,-0.425 6.236,-3.342 C 17.226,0.706 15.311,0 10.705,0 Z m -0.895,25.487 v 6.917 h 12.876 c 4.293,-0.1 4.826,-0.965 4.826,-3.255 0,-3.053 -1.299,-3.662 -6.667,-3.662 z m 17.439,27.511 h -35.817 c -4.031,0 -7.299,-3.268 -7.299,-7.3 v -57.247 c 0,-4.032 3.268,-7.3 7.299,-7.3 h 36.257 c 17.403,0 26.814,2.394 26.814,20.022 0,9.004 -0.562,14.27 -8.752,16.458 v 0.038 c 8.431,2.377 7.438,7.836 7.438,16.936 0,15.713 -9.631,18.393 -25.94,18.393 M 0,-2.928 h 10.705 c 2.353,0 5.042,0.143 7.137,1.206 2.154,1.094 3.247,2.876 3.247,5.298 0,6.27 -6.821,6.27 -10.099,6.27 H 0 c -2.133,0 -3.863,-1.311 -3.863,-2.928 V 0 c 0,-1.617 1.73,-2.928 3.863,-2.928 M -0.895,22.558 H 10.14 c 5.095,0 10.53,0.51 10.53,6.591 0,4.192 -2.563,6.041 -8.57,6.182 -0.039,10e-4 -0.079,0.002 -0.119,0.002 H -0.895 c -2.134,0 -3.863,-1.311 -3.863,-2.929 v -6.917 c 0,-1.617 1.729,-2.929 3.863,-2.929 m 17.439,26.577 c 8.727,0 13.846,-0.827 17.117,-2.765 2.31,-1.368 4.961,-3.942 4.961,-11.765 0,-4.399 0.008,-7.169 -1.2,-8.982 -0.838,-1.258 -2.312,-2.651 -4.743,-3.765 -1.566,-0.813 -3.321,-1.9 -3.321,-3.824 v -0.768 c 0,-2.051 2.148,-2.929 3.65,-3.857 3.422,-1.427 5.12,-2.596 5.652,-3.33 1.261,-1.741 1.276,-4.488 1.276,-8.906 0,-9.05 -2.7,-11.881 -5.051,-13.336 -4.009,-2.481 -10.973,-2.823 -17.901,-2.823 h -36.257 c -1.895,0 -3.437,1.542 -3.437,3.437 v 57.247 c 0,1.895 1.542,3.437 3.437,3.437 z"
             style="fill:#1d3f8a;fill-opacity:1;fill-rule:nonzero;stroke:none"
             id="path184" />
        </g>
        <g
           id="g186"
           transform="translate(399.7702,447.9624)">
          <path
             d="m 0,0 h -52.912 c -4.109,0 -7.441,-3.268 -7.441,-7.3 v -57.247 c 0,-4.031 3.332,-7.3 7.441,-7.3 H 0.297 v 19.709 h -38.34 v 5.426 h 35.697 v 19.703 h -35.697 v 5.347 H 0 Z m -3.938,-3.863 v -14.149 h -34.105 c -2.175,0 -3.938,-1.04 -3.938,-3.173 v -5.824 c 0,-2.133 1.763,-3.863 3.938,-3.863 h 31.76 v -11.977 h -31.76 c -2.175,0 -3.938,-1.73 -3.938,-3.863 v -5.774 c 0,-2.134 1.763,-3.864 3.938,-3.864 l 34.887,0.015 v -11.649 h -49.756 c -1.932,0 -3.503,1.542 -3.503,3.437 V -7.3 c 0,1.895 1.571,3.437 3.503,3.437 z"
             style="fill:#1d3f8a;fill-opacity:1;fill-rule:nonzero;stroke:none"
             id="path188" />
        </g>
        <g
           id="g190"
           transform="translate(426.265,396.1505)">
          <path
             d="m 0,0 v 29.728 h 14.519 c 5.811,0 8.385,-1.479 8.385,-8.652 V 9.465 C 22.904,3.624 20.664,0 14.519,0 Z m 16.045,51.812 h -34.283 c -4.032,0 -7.3,-3.268 -7.3,-7.3 v -57.247 c 0,-4.032 3.268,-7.3 7.3,-7.3 H 19 c 22.872,0 30.096,9.293 30.096,28.93 v 15.041 c 0,20.405 -10.179,27.876 -33.051,27.876 M 0,-3.933 h 14.519 c 7.784,0 12.248,4.884 12.248,13.398 v 11.611 c 0,6.223 -1.455,12.585 -12.248,12.585 H 0 c -2.133,0 -3.863,-1.761 -3.863,-3.933 V 0 c 0,-2.172 1.73,-3.933 3.863,-3.933 m 16.045,51.882 c 10.791,0 18.202,-1.771 22.657,-5.414 4.456,-3.643 6.531,-9.553 6.531,-18.599 V 8.895 c 0,-9.298 -1.707,-15.377 -5.372,-19.13 C 35.96,-14.23 29.137,-16.172 19,-16.172 h -37.238 c -1.895,0 -3.437,1.542 -3.437,3.437 v 57.247 c 0,1.895 1.542,3.437 3.437,3.437 z"
             style="fill:#1d3f8a;fill-opacity:1;fill-rule:nonzero;stroke:none"
             id="path192" />
        </g>
        <path
           d="m 497.883,379.978 h -17.486 v 64.121 h 17.486 z m -21.348,-3.862 h 24.998 v 71.847 h -24.998 z"
           style="fill:#1d3f8a;fill-opacity:1;fill-rule:nonzero;stroke:none"
           id="path194" />
        <g
           id="g196"
           transform="translate(566.8856,447.9624)">
          <path
             d="m 0,0 h -65.008 v -21.662 h 18.273 v -50.185 h 27.367 v 50.185 H 0 Z m -3.863,-3.863 v -14.149 h -15.505 c -2.134,0 -3.862,0.309 -3.862,-1.825 v -48.147 h -19.641 v 48.147 c 0,2.134 -1.73,1.825 -3.864,1.825 h -14.41 v 14.149 z"
             style="fill:#1d3f8a;fill-opacity:1;fill-rule:nonzero;stroke:none"
             id="path198" />
        </g>
        <path
           d="M 566.707,364.147 H 122.338 v 3.863 h 444.369 z"
           style="fill:#ed1c24;fill-opacity:1;fill-rule:nonzero;stroke:none"
           id="path200" />
        <g
           id="g202"
           transform="translate(123.473,346.1552)">
          <path
             d="m 0,0 h 4.859 v -1.72 c 0,-1.119 1.586,-2.008 3.471,-2.008 h 6.296 c 1.884,0 3.471,0.889 3.471,2.008 v 1.29 c 0,0.946 -1.19,1.72 -2.727,1.95 L 6.197,2.897 C 2.628,3.442 0,5.334 0,7.571 v 1.147 c 0,2.667 3.719,4.818 8.33,4.818 h 6.296 c 4.611,0 8.329,-2.151 8.329,-4.818 v -1.29 h -4.858 v 1.29 c 0,1.09 -1.587,2.007 -3.471,2.007 H 8.33 C 6.445,10.725 4.859,9.808 4.859,8.718 V 7.571 c 0,-0.918 1.14,-1.721 2.628,-1.95 l 9.271,-1.405 c 2.875,-0.43 6.197,-2.151 6.197,-4.646 v -1.29 c 0,-2.668 -3.718,-4.818 -8.329,-4.818 H 8.33 C 3.719,-6.538 0,-4.388 0,-1.72 Z"
             style="fill:#1d3f8a;fill-opacity:1;fill-rule:nonzero;stroke:none"
             id="path204" />
        </g>
        <g
           id="g206"
           transform="translate(153.371,359.6911)">
          <path
             d="M 0,0 H 4.908 V -10.869 L 19.534,0 h 6.347 L 14.279,-8.288 26.376,-20.074 h -5.701 l -9.619,9.492 -6.148,-4.416 v -5.076 H 0 Z"
             style="fill:#1d3f8a;fill-opacity:1;fill-rule:nonzero;stroke:none"
             id="path208" />
        </g>
        <path
           d="m 183.219,359.691 h 4.859 v -20.074 h -4.859 z"
           style="fill:#1d3f8a;fill-opacity:1;fill-rule:nonzero;stroke:none"
           id="path210" />
        <g
           id="g212"
           transform="translate(209.6454,350.1416)">
          <path
             d="m 0,0 c 1.785,0 3.421,0.889 3.421,2.007 v 2.725 c 0,1.118 -1.537,2.007 -3.471,2.007 H -9.767 L -9.767,0 Z M -14.626,9.549 H 0 c 4.611,0 8.329,-2.151 8.329,-4.817 V 1.606 c 0,-2.438 -4.164,-4.416 -8.379,-4.416 h -9.717 v -7.715 h -4.859 z"
             style="fill:#1d3f8a;fill-opacity:1;fill-rule:nonzero;stroke:none"
             id="path214" />
        </g>
        <g
           id="g216"
           transform="translate(223.9254,346.1552)">
          <path
             d="m 0,0 h 4.859 v -1.72 c 0,-1.119 1.587,-2.008 3.471,-2.008 h 6.296 c 1.884,0 3.471,0.889 3.471,2.008 v 1.29 c 0,0.946 -1.19,1.72 -2.727,1.95 L 6.197,2.897 C 2.628,3.442 0,5.334 0,7.571 v 1.147 c 0,2.667 3.719,4.818 8.33,4.818 h 6.296 c 4.611,0 8.329,-2.151 8.329,-4.818 v -1.29 h -4.858 v 1.29 c 0,1.09 -1.587,2.007 -3.471,2.007 H 8.33 C 6.446,10.725 4.859,9.808 4.859,8.718 V 7.571 c 0,-0.918 1.14,-1.721 2.628,-1.95 l 9.271,-1.405 c 2.875,-0.43 6.197,-2.151 6.197,-4.646 v -1.29 c 0,-2.668 -3.718,-4.818 -8.329,-4.818 H 8.33 C 3.719,-6.538 0,-4.388 0,-1.72 Z"
             style="fill:#1d3f8a;fill-opacity:1;fill-rule:nonzero;stroke:none"
             id="path218" />
        </g>
        <g
           id="g220"
           transform="translate(265.6237,359.6911)">
          <path
             d="M 0,0 H 22.261 V -2.81 H 4.859 v -5.621 h 14.576 v -2.811 H 4.859 v -6.022 h 17.402 v -2.81 H 0 Z"
             style="fill:#1d3f8a;fill-opacity:1;fill-rule:nonzero;stroke:none"
             id="path222" />
        </g>
        <g
           id="g224"
           transform="translate(294.8271,359.6911)">
          <path
             d="m 0,0 h 4.859 v -17.264 h 15.965 v -2.81 l -20.824,0 z"
             style="fill:#1d3f8a;fill-opacity:1;fill-rule:nonzero;stroke:none"
             id="path226" />
        </g>
        <g
           id="g228"
           transform="translate(320.6094,359.6911)">
          <path
             d="M 0,0 H 22.261 V -2.81 H 4.859 v -5.621 h 14.576 v -2.811 H 4.859 v -6.022 h 17.402 v -2.81 H 0 Z"
             style="fill:#1d3f8a;fill-opacity:1;fill-rule:nonzero;stroke:none"
             id="path230" />
        </g>
        <g
           id="g232"
           transform="translate(349.8131,359.6911)">
          <path
             d="M 0,0 H 4.909 V -10.869 L 19.535,0 h 6.346 L 14.279,-8.288 26.376,-20.074 h -5.701 l -9.619,9.492 -6.147,-4.416 v -5.076 H 0 Z"
             style="fill:#1d3f8a;fill-opacity:1;fill-rule:nonzero;stroke:none"
             id="path234" />
        </g>
        <g
           id="g236"
           transform="translate(387.3955,356.8806)">
          <path
             d="M 0,0 H -9.718 V 2.81 H 14.576 V 0 H 4.858 V -17.264 H 0 Z"
             style="fill:#1d3f8a;fill-opacity:1;fill-rule:nonzero;stroke:none"
             id="path238" />
        </g>
        <g
           id="g240"
           transform="translate(421.5073,350.8872)">
          <path
             d="M 0,0 C 1.934,0 3.52,0.889 3.52,2.007 V 3.986 C 3.52,5.104 1.934,5.993 0,5.993 H -9.717 V 0 Z M -14.576,8.804 H 0 c 4.611,0 8.379,-2.151 8.379,-4.818 V 2.007 c 0,-2.466 -3.173,-4.502 -7.288,-4.789 L 8.875,-11.27 H 3.372 l -7.735,8.46 h -5.354 v -8.46 h -4.859 z"
             style="fill:#1d3f8a;fill-opacity:1;fill-rule:nonzero;stroke:none"
             id="path242" />
        </g>
        <g
           id="g244"
           transform="translate(451.0085,342.4274)">
          <path
             d="m 0,0 c 1.884,0 3.471,0.889 3.471,2.007 v 10.41 c 0,1.119 -1.587,2.036 -3.471,2.036 h -6.297 c -1.933,0 -3.52,-0.917 -3.52,-2.036 V 2.007 C -9.817,0.889 -8.23,0 -6.297,0 Z m -14.676,12.446 c 0,2.667 3.768,4.818 8.379,4.818 H 0 c 4.611,0 8.33,-2.151 8.33,-4.818 V 2.007 C 8.33,-0.66 4.611,-2.81 0,-2.81 h -6.297 c -4.611,0 -8.379,2.15 -8.379,4.817 z"
             style="fill:#1d3f8a;fill-opacity:1;fill-rule:nonzero;stroke:none"
             id="path246" />
        </g>
        <g
           id="g248"
           transform="translate(466.2797,359.6911)">
          <path
             d="M 0,0 H 4.859 L 20.823,-14.367 V 0 h 4.859 V -20.074 H 21.419 L 4.859,-5.191 V -20.074 H 0 Z"
             style="fill:#1d3f8a;fill-opacity:1;fill-rule:nonzero;stroke:none"
             id="path250" />
        </g>
        <path
           d="m 498.904,359.691 h 4.859 v -20.074 h -4.859 z"
           style="fill:#1d3f8a;fill-opacity:1;fill-rule:nonzero;stroke:none"
           id="path252" />
        <g
           id="g254"
           transform="translate(510.7044,359.6911)">
          <path
             d="M 0,0 H 4.909 V -10.869 L 19.535,0 h 6.346 L 14.279,-8.288 26.376,-20.074 h -5.701 l -9.619,9.492 -6.147,-4.416 v -5.076 H 0 Z"
             style="fill:#1d3f8a;fill-opacity:1;fill-rule:nonzero;stroke:none"
             id="path256" />
        </g>
        <g
           id="g258"
           transform="translate(540.5527,359.6911)">
          <path
             d="M 0,0 H 4.909 V -10.869 L 19.535,0 h 6.346 L 14.279,-8.288 26.376,-20.074 h -5.701 l -9.619,9.492 -6.147,-4.416 v -5.076 H 0 Z"
             style="fill:#1d3f8a;fill-opacity:1;fill-rule:nonzero;stroke:none"
             id="path260" />
        </g>
        <g
           id="g262"
           transform="translate(223.594,427.4821)">
          <path
             d="m 0,0 c -0.007,0 0.024,-0.017 0.091,-0.04 2.074,-0.731 4.163,-1.593 6.21,-2.563 0.062,-0.029 0.101,-0.033 0.124,-0.033 0.054,0 0.124,0.022 0.222,0.069 1.972,0.939 3.989,1.773 5.996,2.477 0.153,0.053 0.188,0.094 0.19,0.097 -10e-4,0 0.012,0.052 -0.034,0.213 -0.322,1.139 -0.65,2.3 -1.058,3.405 C 11.022,5.572 10.15,7.6 8.643,9.237 7.94,10.002 7.246,10.386 6.461,10.443 5.548,10.382 4.769,9.921 4.009,8.994 1.873,6.384 0.903,3.248 0.021,-0.006 0.009,-0.002 0.002,0 0,0 m 10.423,-4.671 c 1.202,-0.652 2.43,-1.364 3.665,-2.121 -0.12,1.069 -0.291,2.134 -0.505,3.366 L 13.177,-3.578 C 12.276,-3.919 11.352,-4.269 10.423,-4.671 M -1.215,-6.809 c 0.204,0.12 0.403,0.247 0.603,0.373 1.023,0.649 1.994,1.178 3.021,1.739 l 0.09,0.049 c -1.058,0.458 -2.109,0.872 -3.192,1.256 0,0 -0.424,-2.752 -0.522,-3.417 m -10.204,5.73 c -1.487,0 -2.722,-0.201 -3.571,-0.583 -1.135,-0.511 -1.658,-1.515 -1.436,-2.754 0.158,-0.884 0.474,-1.747 0.966,-2.638 1.386,-2.51 3.37,-4.611 5.128,-6.335 -0.012,-0.016 -0.016,-0.024 -0.011,-0.024 0.008,0 0.033,0.018 0.074,0.053 1.678,1.443 3.419,2.79 5.177,4.005 0.132,0.091 0.142,0.133 0.149,0.2 0.196,2.007 0.458,4.371 0.91,6.704 0.014,0.073 0.015,0.112 0.013,0.13 -0.008,0 -0.036,0.013 -0.087,0.028 -2.6,0.734 -5.043,1.143 -7.263,1.215 l -0.049,0.425 z m 28.312,-1.284 c 0.002,-10e-4 -0.007,-0.037 0.012,-0.129 0.433,-2.152 0.673,-4.319 0.899,-6.533 0.016,-0.16 0.058,-0.235 0.178,-0.32 2.036,-1.444 3.757,-2.78 5.263,-4.085 0.033,-0.029 0.057,-0.047 0.074,-0.058 0.01,0.012 0.034,0.032 0.066,0.065 1.644,1.655 2.88,3.093 3.888,4.523 0.741,1.049 1.638,2.471 2.001,4.161 0.345,1.606 -0.278,2.725 -1.804,3.236 -0.98,0.329 -2.024,0.402 -3.007,0.432 -2.278,-0.058 -4.64,-0.45 -7.431,-1.232 -0.103,-0.028 -0.134,-0.055 -0.139,-0.06 M -0.294,-14.39 c 0.737,1.432 2.414,4.707 3.017,5.894 -1.501,-0.846 -2.85,-1.666 -4.119,-2.501 -0.14,-0.091 -0.194,-0.165 -0.218,-0.395 -0.1,-0.945 -0.102,-1.905 -0.103,-2.834 l -10e-4,-0.164 z m -4.887,-3.399 c 0.003,0.452 0.003,3.608 0.001,4.12 0,0 -1.962,-1.565 -2.566,-2.042 -0.005,-0.004 -0.01,-0.008 -0.015,-0.012 0.004,-0.004 2.58,-2.066 2.58,-2.066 m 23.234,-0.132 0.992,0.789 c 0.564,0.45 1.128,0.9 1.696,1.345 -0.563,0.449 -2.687,2.133 -2.687,2.133 -0.002,-0.438 -0.003,-3.749 -10e-4,-4.267 M 4.798,-7.359 c 0.463,-0.172 0.67,-0.682 1.564,-2.876 0.515,-1.266 3.356,-8.299 3.356,-8.299 l 1.123,2.627 c 0.398,0.945 0.638,1.515 1.622,1.515 0.411,-0.006 1.477,-0.011 2.123,-0.011 l 10e-4,0.001 c -0.012,0.888 -0.034,1.776 -0.071,2.666 -0.02,0.47 -0.167,0.71 -0.608,0.986 -2.326,1.457 -4.737,2.847 -7.167,4.133 -0.136,0.072 -0.214,0.08 -0.261,0.08 -0.075,0 -0.16,-0.025 -0.265,-0.08 C 5.728,-6.868 5.256,-7.115 4.798,-7.359 m 6.213,-15.223 c 1.041,0.611 2.133,1.281 3.298,2.022 0.125,0.08 0.161,0.139 0.17,0.275 0.054,0.948 0.089,1.971 0.107,3.116 l -1.26,-0.006 c -0.533,-1.241 -1.553,-3.624 -2.315,-5.407 m -12.728,5.41 c 0.002,-0.999 0.007,-1.947 0.101,-2.898 0.029,-0.282 0.094,-0.369 0.23,-0.46 2.431,-1.624 4.982,-3.109 7.582,-4.413 0.095,-0.048 0.172,-0.07 0.241,-0.07 0.062,0 0.127,0.017 0.204,0.055 0.878,0.436 1.769,0.905 2.693,1.417 -0.614,0.146 -0.905,0.649 -0.977,0.936 -0.147,0.378 -2.703,6.724 -4.289,10.626 L 3.612,-12.87 c -2.154,-4.206 -2.154,-4.206 -2.901,-4.293 -0.053,-0.006 -0.107,-0.009 -0.16,-0.009 z m 12.081,-9.703 c 1.095,-0.473 2.141,-0.872 3.197,-1.266 0,0 0.404,2.711 0.502,3.387 -1.32,-0.794 -2.479,-1.472 -3.699,-2.121 m -11.472,1.409 c 0.145,-0.891 0.291,-1.783 0.415,-2.678 0.001,10e-4 3.186,1.277 3.186,1.277 -1.328,0.706 -2.612,1.47 -3.725,2.148 z m 18.059,-3.782 c 2.785,-0.789 5.144,-1.186 7.424,-1.251 h 0.001 c 0.836,0 1.577,0.075 2.262,0.221 0.401,0.085 0.789,0.2 1.154,0.343 1.053,0.414 1.55,1.142 1.561,2.289 0.01,1.049 -0.377,1.978 -0.756,2.749 -1.313,2.662 -3.36,4.859 -5.176,6.71 -0.05,0.052 -0.085,0.08 -0.106,0.094 -0.023,-0.013 -0.063,-0.039 -0.125,-0.091 -1.346,-1.114 -3.796,-3.042 -5.06,-3.952 -0.288,-0.207 -0.288,-0.207 -0.356,-0.703 -0.141,-1.131 -0.6,-4.767 -0.892,-6.268 -0.011,-0.058 -0.014,-0.094 -0.014,-0.115 0.012,-0.002 0.04,-0.013 0.083,-0.026 m -27.323,11.119 c -0.019,-0.011 -0.061,-0.039 -0.132,-0.112 -1.437,-1.481 -2.551,-2.764 -3.504,-4.037 -1.015,-1.357 -2.004,-2.86 -2.367,-4.661 -0.325,-1.613 0.267,-2.603 1.862,-3.117 1.037,-0.334 2.102,-0.413 3.007,-0.447 2.262,0.068 4.65,0.471 7.485,1.268 0.003,-0.001 0.005,-0.002 0.007,-0.002 0.021,0 0.006,0.078 -0.005,0.132 -0.453,2.353 -0.707,4.617 -0.898,6.529 -0.023,0.234 -0.092,0.348 -0.294,0.488 -1.944,1.347 -3.583,2.606 -5.01,3.851 -0.083,0.072 -0.131,0.098 -0.151,0.108 M 0.022,-31.485 c 0.007,-0.007 0.01,-0.056 0.037,-0.153 0.393,-1.422 0.884,-3.089 1.552,-4.682 0.53,-1.261 1.289,-2.88 2.476,-4.213 0.789,-0.886 1.498,-1.305 2.299,-1.36 0.552,0.015 1.054,0.202 1.59,0.608 0.751,0.571 1.387,1.34 2.062,2.495 1.358,2.328 2.147,4.853 2.796,7.236 0.009,0.033 0.013,0.056 0.016,0.073 -0.017,0.002 -0.054,0.02 -0.118,0.042 -2.057,0.722 -4.093,1.558 -6.05,2.484 -0.084,0.04 -0.157,0.059 -0.229,0.059 -0.084,0 -0.177,-0.025 -0.293,-0.079 -2.311,-1.067 -4.219,-1.845 -6.003,-2.45 -0.081,-0.027 -0.12,-0.05 -0.135,-0.06 m 6.392,-13.867 c -1.491,0 -2.925,0.596 -4.147,1.724 -1.872,1.727 -2.979,3.947 -3.735,5.689 -0.695,1.602 -1.269,3.329 -1.707,5.134 -0.056,0.231 -0.097,0.284 -0.104,0.292 -0.043,-0.012 -0.119,-0.021 -0.259,-0.061 -2.979,-0.847 -5.632,-1.26 -8.111,-1.26 l -0.424,0.004 c -1.241,0.023 -2.416,0.207 -3.493,0.547 -3.223,1.016 -4.828,3.707 -4.189,7.021 0.317,1.639 1.023,3.249 2.222,5.067 1.205,1.825 2.661,3.542 4.452,5.247 0.093,0.088 0.134,0.14 0.151,0.166 -0.017,0.008 -0.059,0.062 -0.155,0.155 -2.717,2.627 -4.562,5.044 -5.805,7.606 -0.602,1.242 -1.27,2.91 -1.084,4.808 0.216,2.199 1.427,3.79 3.601,4.729 1.353,0.585 2.868,0.868 4.632,0.868 0.418,0 0.838,-0.015 1.26,-0.043 2.312,-0.151 4.652,-0.577 7.157,-1.304 0.046,-0.014 0.076,-0.018 0.092,-0.019 -0.03,0.011 -0.003,0.117 0.015,0.189 0.675,2.667 1.49,4.905 2.498,6.862 0.902,1.752 1.831,3.041 2.927,4.056 1.248,1.159 2.709,1.771 4.225,1.771 1.504,0 2.956,-0.604 4.198,-1.746 1.862,-1.712 2.95,-3.897 3.769,-5.807 0.69,-1.609 1.251,-3.32 1.669,-5.085 0.043,-0.184 0.081,-0.228 0.083,-0.23 0.03,0.016 0.101,0.024 0.234,0.061 3.105,0.875 5.739,1.288 8.289,1.297 h 10e-4 c 1.301,0 2.518,-0.164 3.672,-0.487 3.379,-0.946 5.146,-3.899 4.395,-7.346 -0.576,-2.642 -2.021,-4.751 -3.498,-6.636 -1.016,-1.295 -2.123,-2.509 -3.29,-3.607 -0.07,-0.065 -0.103,-0.107 -0.118,-0.13 0.016,-0.008 0.052,-0.055 0.132,-0.132 2.236,-2.169 3.85,-4.153 5.081,-6.244 0.942,-1.604 1.498,-3.127 1.699,-4.655 0.304,-2.316 -0.892,-4.704 -2.908,-5.809 -1.729,-0.946 -3.586,-1.131 -5.335,-1.19 -2.749,0.072 -5.409,0.494 -8.157,1.29 -0.115,0.033 -0.179,0.04 -0.214,0.04 -0.002,-0.01 -0.031,-0.073 -0.073,-0.237 -0.84,-3.312 -1.885,-5.928 -3.288,-8.232 -0.742,-1.219 -1.577,-2.186 -2.552,-2.959 -1.159,-0.919 -2.476,-1.404 -3.808,-1.404"
             style="fill:#c8171e;fill-opacity:1;fill-rule:nonzero;stroke:none"
             id="path264" />
        </g>
      </g>
    </g>
  </g>
</svg>
